<?xml version="1.0" encoding="utf-8"?>
<!-- Generator: Adobe Illustrator 19.0.0, SVG Export Plug-In . SVG Version: 6.00 Build 0)  -->
<svg version="1.1" id="Layer_1" xmlns="http://www.w3.org/2000/svg" xmlns:xlink="http://www.w3.org/1999/xlink" x="0px" y="0px"
	 viewBox="-285.9 379 148 36" style="enable-background:new -285.9 379 148 36;" xml:space="preserve">
<style type="text/css">
	.st0{fill:none;}
	.st1{fill:#235;}
</style>
<path class="st0" d="M-261.7,394c-1.3,0.1-2.2,0.7-3.2,1.4c-0.5,0.6-1,1.2-1.4,2c-0.3,0.7-0.6,1.6-1.1,2.2c-0.4,0.5-0.9,1-1.6,1
	c-0.8,0-1.4-0.4-2.1-0.7c2.6-2.2,2.3-5.9-0.7-7.6c-2.3-1.4-5.2-0.4-7.3,1.1c-0.7,0.5-1.4,0.9-1.1,1.8c0.1,0.4,0.3,0.8,0.6,1.2
	c0.3,0.5,0.6,0.9,1,1.3c0.6,0.5,1,0.3,1.6-0.1c1.1-0.7,2.3-1.4,3.7-1.3c0.6,0,1.4,0.2,1.6,0.9c0.3,0.7-0.3,1.2-0.9,1.3
	c-0.8,0.1-3-0.7-3.5,0.4c-0.2,0.6,0.7,3.4,1.4,3.3c1.1-0.2,2.4,0,3.1,0.8c1.2,1.3,0.3,3-1.2,3.6c-1.7,0.7-4,0.1-5.4-0.9
	c-1.2-0.9-2.2-2.6-2.8-4l0,0c-0.2-0.5-1.1-2.2-1.5-1c-0.3,0.8,0.4,2.3,0.6,3.1c0.7,2.1,1.9,4.3,3.7,5.6c2.1,1.5,4.9,1.8,7.1,0.4
	c2.3-1.4,3-3.8,2.7-6.3c1.4,0.5,3.2,0.3,4.2-0.9c1-1.1,1.2-2.7,2.2-3.8c1-1.1,2.7-1.7,3.8-0.3c1,1.3,0.4,3.1-0.3,4.4
	c-0.8,1.5-2.3,2.6-4.1,2.5c-0.9-0.1-1.6-0.5-2.4-0.9c-0.5-0.3-1.3-0.9-1.6-0.1c-0.3,1,0.3,2.7,0.9,3.5c1.1,1.6,2.8,1.9,4.6,1.8
	c3.2-0.3,5-3.6,5.2-6.6c0.1-2.6-0.1-5.3-1.8-7.3C-258.5,394.7-260.1,393.9-261.7,394z"/>
<path class="st0" d="M-271.2,391.8c0.5,0.7,1.2,1.5,1.9,2c1.7,1.2,3.9,1,5.7,0.1c0.8-0.4,1.6-0.8,2.2-1.5c0.7-0.8,0.1-1.9-0.6-2.6
	c-1-1.1-1.6-0.6-2.5,0.2c-0.7,0.6-1.6,1.1-2.5,1.2c0.9-0.4,2.7-1.3,2.1-2.5c-0.4-0.8-1.5-2.4-2.5-2.3c-0.9,0-2.1,1.2-2.5,1.9
	c-0.5,1.1,1.3,2.8,2.3,3c-0.7,0-1.4-0.2-2-0.5c-0.6-0.3-1-0.8-1.5-1.2c-0.2-0.1-0.3-0.4-0.6-0.4c-0.1,0-0.2,0.1-0.3,0.1
	C-272.4,390-271.6,391.3-271.2,391.8z"/>
<path class="st1" d="M-252.2,388.2c-5.1-3.1-10.3-6-15.5-9c-0.2-0.1-0.5-0.2-0.8-0.2s-0.6,0.1-0.8,0.2c-5.2,3-10.3,5.9-15.5,9
	c-0.8,0.5-1.2,1-1.2,2c0,1.1,0,2.2,0,3.3c0,3.9,0,7.8,0,11.7c0,2.8,0,5.5,0,8.3c0,0.9,0.7,1.6,1.6,1.6h15.8h15.8
	c0.9,0,1.6-0.7,1.6-1.6c0-2.8,0-5.5,0-8.3c0-3.9,0-7.8,0-11.7c0-1.1,0-2.2,0-3.3C-251.1,389.2-251.5,388.6-252.2,388.2z
	 M-271.9,389.4c0.1-0.1,0.2-0.1,0.3-0.1c0.3,0,0.4,0.2,0.6,0.4c0.5,0.4,0.9,0.9,1.5,1.2c0.6,0.3,1.3,0.5,2,0.5c-1-0.2-2.8-1.9-2.3-3
	c0.3-0.7,1.6-1.8,2.5-1.9c1-0.1,2.1,1.5,2.5,2.3c0.6,1.2-1.2,2.1-2.1,2.5c1-0.2,1.8-0.6,2.5-1.2c0.9-0.8,1.6-1.3,2.5-0.2
	c0.6,0.7,1.3,1.7,0.6,2.6c-0.6,0.7-1.4,1.1-2.2,1.5c-1.8,0.9-4,1.1-5.7-0.1c-0.7-0.5-1.4-1.2-1.9-2
	C-271.6,391.3-272.4,390-271.9,389.4C-272.1,389.6-271.8,389.3-271.9,389.4z M-255.6,403.2c-0.2,2.9-2,6.3-5.2,6.6
	c-1.8,0.2-3.6-0.2-4.6-1.8c-0.6-0.9-1.2-2.5-0.9-3.5c0.2-0.8,1-0.2,1.6,0.1c0.7,0.4,1.5,0.8,2.4,0.9c1.8,0.1,3.3-1,4.1-2.5
	c0.7-1.3,1.3-3.1,0.3-4.4c-1-1.4-2.8-0.7-3.8,0.3c-1,1.1-1.3,2.7-2.2,3.8c-1,1.1-2.8,1.3-4.2,0.9c0.3,2.5-0.4,4.9-2.7,6.3
	c-2.2,1.4-5.1,1-7.1-0.4c-1.9-1.4-3-3.5-3.7-5.6c-0.3-0.8-0.9-2.3-0.6-3.1c0.4-1.2,1.3,0.5,1.5,1l0,0c0.6,1.4,1.5,3,2.8,4
	c1.4,1.1,3.7,1.6,5.4,0.9c1.5-0.6,2.3-2.3,1.2-3.6c-0.7-0.8-2.1-1-3.1-0.8c-0.7,0.1-1.6-2.7-1.4-3.3c0.4-1,2.6-0.3,3.5-0.4
	c0.7-0.1,1.2-0.6,0.9-1.3c-0.2-0.7-1-0.9-1.6-0.9c-1.4-0.1-2.6,0.6-3.7,1.3c-0.6,0.4-1,0.7-1.6,0.1c-0.4-0.4-0.7-0.8-1-1.3
	c-0.2-0.4-0.5-0.8-0.6-1.2c-0.2-0.9,0.5-1.3,1.1-1.8c2-1.5,4.9-2.4,7.3-1.1c2.9,1.7,3.3,5.4,0.7,7.6c0.7,0.3,1.3,0.7,2.1,0.7
	c0.7,0,1.2-0.5,1.6-1c0.5-0.7,0.8-1.5,1.1-2.2c0.4-0.8,0.9-1.3,1.4-2c1-0.7,1.9-1.3,3.2-1.4c1.7-0.2,3.2,0.6,4.3,1.8
	C-255.6,397.9-255.4,400.6-255.6,403.2z"/>
<path class="st1" d="M-271.9,389.4C-271.8,389.3-272.1,389.6-271.9,389.4L-271.9,389.4z"/>
<path class="st1" d="M-271.9,389.4C-271.8,389.3-272.1,389.6-271.9,389.4L-271.9,389.4z"/>
<g>
	<path class="st1" d="M-228.9,402.6c0,1.2-0.2,2.3-0.6,3.3c-0.4,1-1,1.9-1.8,2.6c-0.8,0.8-1.7,1.3-2.7,1.8c-1,0.4-2.2,0.6-3.4,0.6
		c-1.2,0-2.4-0.2-3.4-0.6c-1-0.4-1.9-1-2.7-1.8c-0.8-0.8-1.4-1.6-1.8-2.6c-0.4-1-0.6-2.1-0.6-3.3s0.2-2.3,0.6-3.3
		c0.4-1,1-1.9,1.8-2.6c0.8-0.8,1.7-1.3,2.7-1.8s2.2-0.6,3.4-0.6c1.2,0,2.3,0.2,3.4,0.6c1,0.4,1.9,1,2.7,1.8c0.8,0.8,1.4,1.6,1.8,2.6
		C-229.1,400.3-228.9,401.4-228.9,402.6z M-240.3,402.6c0,0.9,0.3,1.6,0.9,2.2c0.6,0.6,1.3,0.9,2.1,0.9c0.8,0,1.5-0.3,2.1-0.9
		c0.6-0.6,0.9-1.3,0.9-2.2s-0.3-1.6-0.9-2.2c-0.6-0.6-1.3-0.9-2.1-0.9c-0.8,0-1.5,0.3-2.1,0.9C-240.1,401-240.3,401.7-240.3,402.6z"
		/>
	<path class="st1" d="M-207.9,394.3c1.7,0,3,0.6,4,1.7s1.5,2.8,1.5,4.9v9.7h-5.5v-8.7c0-0.9-0.2-1.5-0.5-1.9
		c-0.3-0.4-0.7-0.6-1.3-0.6c-0.5,0-1,0.2-1.3,0.6c-0.3,0.4-0.5,1-0.5,1.9v8.7h-5.5v-8.7c0-0.9-0.2-1.5-0.5-1.9
		c-0.3-0.4-0.7-0.6-1.3-0.6c-0.5,0-1,0.2-1.3,0.6c-0.3,0.4-0.5,1-0.5,1.9v8.7h-5.5v-15.9h4l0.9,1.6c0.4-0.3,0.8-0.7,1.2-0.9
		c0.4-0.3,0.8-0.5,1.3-0.7c0.5-0.2,1.1-0.3,1.7-0.3c0.8,0,1.5,0.1,2,0.3c0.5,0.2,1,0.5,1.3,0.7c0.4,0.3,0.8,0.6,1,1
		c0.4-0.4,0.8-0.7,1.3-1c0.4-0.3,0.9-0.5,1.5-0.7C-209.3,394.4-208.6,394.3-207.9,394.3z"/>
	<path class="st1" d="M-189.4,394.3c0.9,0,1.8,0.2,2.6,0.5c0.8,0.3,1.5,0.8,2,1.4c0.6,0.6,1,1.3,1.3,2.2c0.3,0.9,0.5,1.8,0.5,2.9
		v9.4h-5.5v-8.3c0-0.9-0.2-1.6-0.7-2c-0.5-0.5-1-0.7-1.7-0.7c-0.7,0-1.3,0.2-1.7,0.7c-0.5,0.5-0.7,1.2-0.7,2v8.3h-5.5v-21.8h5.5v7.1
		c0.3-0.3,0.7-0.5,1.1-0.8c0.3-0.2,0.8-0.4,1.3-0.5C-190.5,394.4-190,394.3-189.4,394.3z"/>
	<path class="st1" d="M-179.7,390.3c0-0.8,0.3-1.4,0.8-2c0.5-0.5,1.3-0.8,2.1-0.8s1.6,0.3,2.1,0.8c0.5,0.5,0.8,1.2,0.8,2
		c0,0.8-0.3,1.4-0.8,2c-0.5,0.5-1.3,0.8-2.1,0.8s-1.6-0.3-2.1-0.8C-179.4,391.7-179.7,391.1-179.7,390.3z M-179.5,394.6h5.5v15.9
		h-5.5V394.6z"/>
	<path class="st1" d="M-166,405.2c0.1,0.3,0.2,0.5,0.3,0.7c0.1,0.2,0.3,0.3,0.5,0.5c0.2,0.1,0.5,0.2,0.9,0.2c0.5,0,0.9-0.1,1.2-0.3
		c0.3-0.2,0.4-0.5,0.4-0.7c0-0.2-0.2-0.4-0.6-0.6c-0.4-0.1-0.9-0.3-1.5-0.5c-0.6-0.2-1.3-0.4-2-0.6c-0.7-0.2-1.4-0.5-2-0.9
		c-0.6-0.4-1.1-0.9-1.5-1.5c-0.4-0.6-0.6-1.3-0.6-2.2c0-0.6,0.1-1.3,0.4-1.9c0.3-0.6,0.7-1.1,1.3-1.6s1.2-0.9,2.1-1.1
		c0.8-0.3,1.8-0.4,2.8-0.4c2.2,0,3.9,0.5,5.1,1.4c1.1,0.9,1.9,2.1,2.2,3.6l-5.2,0.5c-0.1-0.2-0.2-0.4-0.3-0.6
		c-0.1-0.2-0.3-0.3-0.5-0.4c-0.2-0.1-0.5-0.2-0.8-0.2c-0.8,0-1.2,0.3-1.2,0.9c0,0.2,0.2,0.4,0.6,0.6c0.4,0.1,0.9,0.3,1.5,0.5
		c0.6,0.2,1.3,0.3,2,0.6c0.7,0.2,1.4,0.5,2,0.9c0.6,0.4,1.1,0.9,1.5,1.5c0.4,0.6,0.6,1.4,0.6,2.3c0,0.7-0.2,1.4-0.5,2
		c-0.3,0.6-0.7,1.2-1.3,1.7c-0.6,0.5-1.3,0.9-2.2,1.1c-0.9,0.3-1.8,0.4-3,0.4c-2.3,0-4.1-0.5-5.2-1.4c-1.1-0.9-1.9-2.2-2.2-3.8
		L-166,405.2z M-162.3,387.9h4.5l-3.6,4.9h-4.9l-3.6-4.9h4.5l1.6,2.1L-162.3,387.9z"/>
	<path class="st1" d="M-147.4,410.9c-0.9,0-1.8-0.2-2.7-0.6c-0.9-0.4-1.7-1-2.3-1.8c-0.7-0.8-1.2-1.6-1.6-2.6
		c-0.4-1-0.6-2.1-0.6-3.3s0.2-2.3,0.6-3.3c0.4-1,1-1.9,1.6-2.6c0.7-0.8,1.5-1.3,2.3-1.8c0.9-0.4,1.8-0.6,2.7-0.6
		c0.7,0,1.3,0.1,1.9,0.3c0.6,0.2,1.1,0.4,1.5,0.7c0.5,0.3,0.9,0.6,1.3,0.9l0.9-1.6h4v15.9h-4l-0.9-1.6c-0.4,0.4-0.8,0.7-1.3,1
		c-0.4,0.3-0.9,0.5-1.5,0.7C-146.1,410.8-146.7,410.9-147.4,410.9z M-143.3,402.6c0-0.9-0.3-1.6-0.9-2.2c-0.6-0.6-1.3-0.9-2.1-0.9
		c-0.8,0-1.5,0.3-2.1,0.9c-0.6,0.6-0.9,1.3-0.9,2.2s0.3,1.6,0.9,2.2c0.6,0.6,1.3,0.9,2.1,0.9c0.8,0,1.5-0.3,2.1-0.9
		C-143.6,404.2-143.3,403.5-143.3,402.6z"/>
</g>
</svg>
