<?xml version="1.0" encoding="utf-8"?>
<!-- Generator: Adobe Illustrator 19.0.0, SVG Export Plug-In . SVG Version: 6.00 Build 0)  -->
<svg version="1.1" id="Layer_1" xmlns="http://www.w3.org/2000/svg" xmlns:xlink="http://www.w3.org/1999/xlink" x="0px" y="0px"
	 viewBox="46 0 717.3 150" style="enable-background:new 46 0 717.3 150;" xml:space="preserve">
<style type="text/css">
	.st0{fill:#282525;}
</style>
<g id="XMLID_1_">
	<g id="XMLID_407_">
		<path id="XMLID_762_" class="st0" d="M114.7,64.1c0.2,0.2,0.4,0.5,0.5,0.7s0.3,0.4,0.4,0.6c0.3,0.4,0.7,0.8,1,1.2l0.5,0.5
			c0.5,0.5,1,1,1.5,1.4c0.6,0.5,1.2,1,1.8,1.3c0.6,0.4,1.3,0.8,2.1,1.1c0.9,0.4,1.8,0.6,2.6,0.7c0.8,0.1,1.6,0.2,2.3,0.2
			c1,0,1.9-0.1,2.8-0.3c0.6,0,1.1-0.2,1.7-0.4h0.1c0.2,0,0.4-0.1,0.5-0.2c0.4-0.1,0.7-0.2,1.1-0.4l0.4-0.1c0.5-0.2,0.9-0.4,1.3-0.6
			l0.9-0.5c0.3-0.1,0.6-0.2,0.8-0.4c0.2,0,0.3-0.1,0.4-0.2c0.3-0.1,0.5-0.3,0.5-0.3c0.6-0.3,1.2-0.8,1.7-1.2
			c0.6-0.5,1.3-1.1,1.9-1.8c0.2-0.2,0.5-0.5,0.6-1.1c0.1-0.8,0-1.6-0.3-2.4c0-0.1-0.1-0.3-0.2-0.4c-0.2-0.4-0.5-0.8-0.8-1.3
			c-0.2-0.4-0.5-0.7-0.7-1c-0.4-0.5-0.9-1-1.5-1.6c-0.3-0.3-0.7-0.6-1.1-0.8c-1.2-0.4-2.1,0.3-2.5,0.6c-0.4,0.3-0.7,0.6-1,0.9
			c-0.2,0.2-0.5,0.4-0.7,0.6c-0.6,0.5-1.2,1-1.9,1.5c-0.5,0.4-1.1,0.8-1.9,1.1c-0.3,0.1-0.5,0.2-0.8,0.3l-0.7,0.4
			c-0.7,0.3-1.4,0.4-2,0.6l0.5-0.3c0.6-0.3,1.1-0.6,1.7-0.9c1.1-0.7,2.2-1.6,3.2-2.6c0.3-0.3,1.2-1.2,0.7-2.4
			c-0.2-0.5-0.4-1-0.7-1.4l-0.5-0.8c-0.4-0.6-0.9-1.3-1.4-1.9c-0.7-0.8-1.6-1.8-2.7-2.6c-0.6-0.4-1.1-0.5-1.6-0.4
			c-0.6,0.1-1.2,0.4-1.6,0.6l-0.2,0.1c-0.3,0.1-0.5,0.3-0.8,0.5l-0.5,0.3c-0.5,0.3-1,0.7-1.6,1.2c-0.9,0.8-1.5,1.5-2,2.3l-0.1,0.1
			c-0.2,0.3-0.5,0.8-0.4,1.4c0,0.2,0,0.4,0.1,0.7c0.1,0.5,0.8,1.4,1.1,1.8c0.5,0.7,1.1,1.2,1.7,1.8c0.8,0.7,1.7,1.5,2.8,2.1
			c0.2,0.1,0.5,0.2,0.8,0.3l0,0c-0.5,0-1,0-1.4-0.1l-0.7-0.2c-0.7-0.1-1.3-0.3-1.8-0.5l-0.4,0.1c-0.5-0.2-0.9-0.4-1.3-0.6
			c-0.8-0.5-1.5-1.1-2.3-1.8c-0.5-0.4-1-0.9-1.5-1.4l-0.7-0.6c-0.2-0.2-0.6-0.3-0.8-0.3c-0.3,0-0.6,0.1-0.8,0.4
			c-0.6,0.6-0.7,1.5-0.4,2.3C112.8,60.7,114.2,63.5,114.7,64.1z"/>
		<path id="XMLID_755_" class="st0" d="M157,89c0-1.6-0.2-3-0.6-4.2v-0.2c0-0.2-0.1-0.5-0.1-0.7c-0.1-0.2-0.1-0.5-0.2-0.7
			c-0.1-0.4-0.2-0.8-0.3-1.2c0-0.1,0-0.5-0.3-0.7c0-0.1-0.1-0.3-0.1-0.4l-0.3-0.7c-0.2-0.6-0.5-1.1-0.8-1.7
			c-0.1-0.1-0.1-0.3-0.2-0.4c-0.2-0.3-0.3-0.7-0.6-0.9l-0.3-0.4c-0.3-0.4-0.7-0.9-1-1.3l-0.3-0.4c-0.3-0.3-0.5-0.6-0.8-0.8
			c-0.6-0.6-1.4-1.2-2.4-1.9c-1-0.7-2-1.2-3.1-1.5c-1-0.3-2.1-0.5-3.2-0.6c-1,0-1.9-0.1-2.9,0.2c-0.2,0.1-0.4,0.1-0.7,0.1
			c-0.2,0-0.4,0.1-0.6,0.1c-0.9,0.2-1.6,0.5-2.3,0.8c-0.1,0-0.2,0.1-0.2,0.1c-0.3,0.1-0.6,0.2-0.8,0.4l-0.4,0.2
			c-0.6,0.4-1.3,0.8-1.9,1.3c-0.2,0.1-0.3,0.2-0.4,0.3l-0.1,0.1L132,74l-0.1,0.2c-0.1,0.1-0.2,0.1-0.2,0.2c-0.5,0.5-0.9,1.1-1.4,1.6
			c-0.6,0.7-1,1.4-1.4,2.1c-0.2,0.4-0.4,0.8-0.6,1.3c-0.1,0.3-0.2,0.5-0.3,0.8c-0.2,0.5-0.4,0.9-0.6,1.4c-0.1,0.3-0.3,0.6-0.4,1
			c-0.3,0.6-0.6,1.2-0.9,1.8c-0.2,0.4-0.5,0.7-0.7,1.1c-0.2,0.3-0.5,0.6-0.8,0.9l-0.2,0.2c-0.3,0.4-0.7,0.6-1,0.9
			c-0.7,0.5-1.4,0.7-2,0.8c-0.5,0-1,0-1.5,0c-0.3,0-0.7-0.1-1.1-0.3c-0.7-0.3-1.5-0.7-2.2-1l-0.4-0.2c-0.2-0.1-0.5-0.2-0.8-0.4
			l0.2-0.1c0.3-0.2,0.5-0.4,0.7-0.7c0.5-0.5,0.9-1,1.4-1.5c0.5-0.7,1-1.4,1.4-2.2c0.1-0.2,0.2-0.4,0.3-0.6c0-0.1,0.1-0.2,0.1-0.3
			c0.4-0.7,0.6-1.5,0.7-2.2c0.3-1.7,0.2-3.1-0.1-4.4c-0.2-0.7-0.4-1.4-0.8-2.3l-0.1-0.2c-0.1-0.2-0.2-0.5-0.4-0.8
			c-0.2-0.2-0.3-0.4-0.5-0.7c-0.2-0.3-0.4-0.5-0.5-0.8c-0.9-1.2-1.9-2.2-3.2-3.1c-0.2-0.3-0.5-0.4-0.7-0.5c-0.2-0.2-0.4-0.3-0.7-0.4
			c-0.2-0.1-0.3-0.1-0.5-0.2c-0.5-0.3-0.7-0.4-0.8-0.4l-0.3-0.1c-0.3-0.1-0.6-0.3-1-0.4c-0.7-0.3-1.4-0.4-2-0.5
			c-2-0.2-3.6-0.2-5.1,0.1c-1,0.2-2.2,0.5-3.3,0.9c-0.9,0.3-1.7,0.7-2.6,1.1c-0.5,0.2-1.1,0.5-1.5,0.8l-0.3,0.2
			c-0.3,0.2-0.6,0.3-0.8,0.5c-0.2,0.2-0.4,0.3-0.7,0.5c-0.4,0.3-0.9,0.6-1.2,0.9c-0.7,0.6-1.4,1.2-2,1.8c-0.6,0.6-0.8,1.3-0.6,2.2
			c0,0.2,0.1,0.3,0.2,0.5c0,0.1,0.1,0.2,0.1,0.3c0.1,0.3,0.3,0.7,0.4,1l0.1,0.3c0.2,0.6,0.6,1.1,0.9,1.7l0.2,0.3
			c0.3,0.5,0.6,1,1.1,1.6c0.5,0.7,1.1,1.3,1.7,1.9c0.5,0.5,1.2,1,2.3,0.4c0.2-0.1,0.4-0.2,0.6-0.4c0.1-0.1,0.3-0.2,0.4-0.3
			c0.5-0.3,1-0.6,1.5-0.9l0.8-0.5c0.8-0.5,1.6-0.9,2.5-1.3c0.8-0.4,1.6-0.7,2.6-0.9c0.8-0.2,1.5-0.3,2.3-0.4c1.7-0.1,3,0,4.1,0.8
			c0.9,0.6,1.4,1.4,1.6,2.3c0.1,0.9-0.2,1.7-1,2.2c-0.5,0.4-1.2,0.6-2,0.6c-0.7,0-1.3-0.1-2-0.1c-0.4,0-0.9-0.1-1.3-0.1h-0.4
			c-1.3-0.1-2.6-0.2-3.9,0.2c-1.1,0.3-1.7,1.2-1.4,2.2c0.1,0.5,0.3,1,0.4,1.5l0.2,0.6c0.2,0.8,0.5,1.6,0.8,2.5
			c0.1,0.3,0.2,0.6,0.4,0.9c0.1,0.2,0.2,0.5,0.3,0.7c0.1,0.3,0.3,0.6,0.4,0.9c0.2,0.5,0.7,0.7,1.2,0.7l0.5-0.1
			c0.2,0,0.4-0.1,0.6-0.1c0.2,0,0.5,0,0.7,0h0.3c0.2,0,0.3,0,0.5,0h0.5c0.3,0,0.6,0,0.9,0.1h0.2c0.2,0.1,0.5,0.1,0.6,0.1
			c0.2,0.1,0.5,0.2,0.6,0.2s0.2,0,0.3,0.1c0.7,0.3,1.3,0.7,1.8,1.1l0.9,0.9l0.2,0.3c0.3,0.5,0.6,0.9,0.8,1.4l0.1,0.3
			c0.1,0.4,0.3,0.8,0.3,1.2c0,0.7,0,1.3-0.1,1.8c-0.2,0.5-0.4,1-0.7,1.5c-0.3,0.4-0.7,0.8-1,1.2l-0.2,0.2c-0.7,0.7-1.5,1.2-2.3,1.6
			s-1.8,0.7-2.9,0.8c-1.5,0.1-2.8,0.1-4.1-0.1c-0.6-0.1-1.3-0.2-1.9-0.4l-0.7-0.1c-0.3-0.1-0.5-0.1-0.7-0.2c-0.3-0.2-0.7-0.3-1-0.4
			s-0.6-0.2-1-0.4c-0.7-0.3-1.3-0.7-1.8-1c-0.7-0.5-1.4-1.1-2-1.6c-0.7-0.7-1.3-1.5-1.8-2.2c-0.2-0.3-0.5-0.7-0.7-1L92,97
			c-0.3-0.5-0.7-1-1-1.5l-0.4-0.6c-0.3-0.5-0.6-0.9-0.8-1.4L89.5,93c-0.1-0.3-0.3-0.6-0.4-0.9c-0.1-0.2-0.2-0.4-0.3-0.7l-0.1-0.2
			c0-0.1-0.1-0.2-0.2-0.3l-0.1-0.1c-0.2-0.4-0.4-0.8-0.6-1.2l-0.2-0.3c-0.3-0.5-0.5-1-0.8-1.3c-0.2-0.3-0.5-0.4-0.7-0.6
			c-0.3-0.2-0.7-0.2-1,0c-0.3,0.2-0.5,0.6-0.5,1c0,1.4,0.1,2.5,0.4,3.6l0.1,0.3c0.1,0.5,0.2,1,0.4,1.5v0.1c0.1,0.3,0.2,0.7,0.3,1
			c0.1,0.2,0.1,0.4,0.2,0.6c0,0.1,0.3,0.8,0.4,1.3l0.1,0.4c0.1,0.4,0.3,0.9,0.4,1.3c0.1,0.4,0.3,0.7,0.4,1.1c0.1,0.3,0.2,0.5,0.4,1
			c0.1,0.4,0.3,0.7,0.4,1l0.3,0.6c0.3,0.6,0.7,1.3,1.1,1.9c0.2,0.3,0.3,0.5,0.5,0.8s0.4,0.7,0.6,1c0.6,0.8,1.2,1.6,1.8,2.4
			c0.3,0.4,0.7,0.8,1,1.2l0.9,0.9c0.4,0.4,0.8,0.8,1.3,1.2c0.7,0.6,1.5,1.2,2.4,1.7c0.7,0.4,1.3,0.8,2,1.1c0.9,0.4,1.9,0.7,2.9,0.9
			c0.7,0.2,1.5,0.4,2.2,0.4c0.7,0,1.4,0,2.1,0s1.4,0,2.1,0c0.7,0,1.3-0.1,2-0.3c0.2,0,0.3-0.1,0.4-0.2l0.2-0.1
			c0.2-0.1,0.3-0.1,0.5-0.2l0.5-0.2c0.2-0.1,0.4-0.1,0.6-0.2l0.6-0.3c0.3-0.1,0.5-0.3,0.8-0.4c0.1-0.1,0.3-0.2,0.4-0.3
			c0.1-0.1,0.2-0.1,0.2-0.2l0.3-0.2c0.1-0.1,0.3-0.2,0.4-0.3c0.4-0.3,0.8-0.6,1.3-1c0.3-0.2,0.5-0.5,0.7-0.7
			c0.4-0.4,0.8-0.9,1.3-1.4c0.2-0.2,0.3-0.4,0.4-0.6c0.1-0.1,0.2-0.3,0.3-0.4c0.7-0.9,1.2-1.9,1.6-2.7c0.4-0.9,0.6-1.8,0.8-2.6
			l0.1-0.4c0.2-0.7,0.2-1.3,0.3-1.9v-0.4c0.1-1.5,0.1-3-0.2-4.4c0-0.1,0-0.1,0-0.2c0.6,0.2,1.2,0.3,1.9,0.5c0.8,0.1,1.5,0.1,2.3,0.1
			h0.6c1.4,0,2.7-0.3,3.9-0.8c0.1,0,0.2-0.1,0.3-0.2s0.3-0.1,0.4-0.2c0.6-0.3,1-0.8,1.5-1.2l0.2-0.2c0.1-0.1,0.1-0.2,0.2-0.2
			c0.2-0.2,0.4-0.4,0.6-0.8l0.3-0.3c0.1-0.2,0.3-0.4,0.4-0.7c0.2-0.3,0.3-0.6,0.5-0.8c0.1-0.1,0.1-0.2,0.2-0.3
			c0.3-0.5,0.5-1.1,0.8-1.7c0.1-0.2,0.2-0.5,0.3-0.7l0.2-0.4c0.1-0.2,0.2-0.5,0.3-0.7l0.1-0.2c0.3-0.5,0.6-1,0.9-1.5
			s0.6-0.9,1.1-1.5c0.4-0.5,0.9-1,1.3-1.4c0.2-0.2,0.5-0.4,0.7-0.6l0.4-0.3c0.3-0.2,0.6-0.5,1.1-0.7s0.9-0.5,1.4-0.6
			c0.8-0.2,1.6-0.2,2.5-0.1c0.2,0,0.5,0,0.6,0.1l0.2,0.1c0.4,0.2,0.9,0.4,1.3,0.6c0.4,0.3,0.8,0.6,1.2,1c0.3,0.4,0.6,0.9,0.9,1.4
			c0.3,0.6,0.5,1.3,0.6,2.1c0.2,1.2,0.1,2.5-0.2,3.8l-0.1,0.3c0,0.1,0,0.2-0.1,0.3c-0.1,0.3-0.2,0.5-0.3,0.8L151,92
			c-0.1,0.3-0.2,0.6-0.3,0.9c-0.2,0.5-0.5,1.1-0.8,1.6c-0.3,0.6-0.7,1.2-1.1,1.8c-0.4,0.6-0.9,1.4-1.6,2.1c-0.4,0.5-1,0.8-1.6,1.3
			c-0.2,0.2-0.5,0.3-0.8,0.4l-0.4,0.2c-0.7,0.4-1.6,0.7-2.4,0.9c-0.5,0.1-1,0.2-1.5,0.3c-1,0.1-1.9,0.1-2.7-0.1
			c-0.8-0.1-1.6-0.4-2.3-0.7c-0.3-0.1-0.7-0.3-1-0.4c-0.2-0.1-0.4-0.2-0.6-0.3c-0.5-0.2-1-0.5-1.6-0.8c-0.2-0.1-0.5-0.3-0.7-0.4
			l-0.6-0.3c-0.4-0.2-0.9-0.5-1.5-0.6c-0.3-0.1-0.7-0.1-1,0.1c-0.3,0.2-0.4,0.6-0.4,1c-0.1,1.1-0.1,2.2,0.2,3.7v0.3
			c0,0.3,0.1,0.5,0.1,0.8l0.2,0.6c0.2,0.5,0.3,1.1,0.5,1.6l0.1,0.4c0.1,0.3,0.3,0.7,0.4,1l0.3,0.5c0.2,0.3,0.3,0.6,0.5,0.8
			c0.4,0.6,0.8,1.1,1.2,1.5c0.5,0.5,1,1,1.7,1.4c2.1,1.4,4.7,2.1,8.5,1.9c1.3,0,2.8-0.2,4.2-0.7c0.6-0.2,1.3-0.5,2-0.9l0.2-0.1
			c0.4-0.3,0.8-0.5,1.2-0.8c0.5-0.4,1.1-0.9,1.7-1.5c0.6-0.6,1.1-1.3,1.7-1.9c0.5-0.7,1-1.4,1.4-2.1c0.5-0.8,0.9-1.7,1.4-2.9
			c0.2-0.4,0.3-0.8,0.4-1.2l0.1-0.5c0.1-0.3,0.2-0.6,0.2-0.9c0.1-0.1,0.2-0.3,0.2-0.6v-0.1c0-0.2,0.1-0.4,0.1-0.7
			c0.2-0.7,0.3-1.2,0.3-2c0.1-0.2,0.2-0.7,0.2-1.1c0.1-1.4,0.2-2.9,0.1-4.3v-0.5C157.1,89.9,157.1,89.4,157,89z"/>
		<path id="XMLID_491_" class="st0" d="M46,0.4V150h149.6V0.4H46z M171.9,118.2c0,4.5-3.7,8.1-8.1,8.1h-86c-4.5,0-8.1-3.7-8.1-8.1
			V71.9c0-4.5,2.9-10.4,6.4-13.1l38.2-29.7c1.8-1.4,4.1-2.1,6.4-2.1s4.7,0.7,6.4,2.1l38.2,29.7c3.5,2.7,6.4,8.7,6.4,13.1v46.3H171.9
			z"/>
	</g>
	<g id="XMLID_228_">
		<path id="XMLID_791_" class="st0" d="M221.1,56.2c0-3,0.6-5.7,1.6-8.2c1.1-2.6,2.6-4.7,4.4-6.5c1.9-1.9,4.1-3.3,6.8-4.4
			s5.4-1.6,8.4-1.6c3,0,5.8,0.6,8.4,1.6c2.6,1.1,4.9,2.6,6.8,4.4c1.9,1.9,3.4,4.1,4.4,6.5c1.1,2.6,1.6,5.2,1.6,8.2s-0.6,5.7-1.6,8.2
			c-1.1,2.6-2.6,4.7-4.4,6.5c-1.9,1.9-4.2,3.3-6.8,4.4c-2.6,1.1-5.4,1.6-8.4,1.6c-3.1,0-5.9-0.6-8.4-1.6c-2.6-1-4.8-2.6-6.8-4.4
			c-1.9-1.9-3.4-4.1-4.4-6.5C221.5,61.9,221.1,59.2,221.1,56.2z M242.3,64.1c2,0,3.7-0.8,5.2-2.2c1.4-1.6,2.2-3.3,2.2-5.5
			s-0.8-4-2.2-5.5c-1.4-1.6-3.2-2.2-5.2-2.2s-3.7,0.8-5.2,2.2c-1.4,1.6-2.2,3.3-2.2,5.5s0.8,4,2.2,5.5
			C238.6,63.3,240.3,64.1,242.3,64.1z"/>
		<path id="XMLID_1031_" class="st0" d="M278.6,36.3h10l2.2,3.9c0.9-0.9,1.9-1.7,3-2.3c0.9-0.7,2-1.2,3.3-1.7
			c1.2-0.4,2.7-0.8,4.2-0.8c2,0,3.7,0.2,5,0.8c1.3,0.6,2.4,1.1,3.3,1.8c1,0.8,1.9,1.7,2.6,2.6c0.9-1,2-1.9,3.2-2.6
			c1-0.7,2.3-1.2,3.8-1.8s3-0.8,4.8-0.8c4.2,0,7.5,1.4,10.1,4.2c2.6,2.8,3.8,6.9,3.8,12.3v24.3H324V54.5c0-2.2-0.3-3.8-1.2-4.7
			c-0.8-0.9-1.9-1.4-3.2-1.4c-1.3,0-2.4,0.4-3.2,1.4c-0.8,0.9-1.2,2.4-1.2,4.7v21.6h-13.9V54.5c0-2.2-0.4-3.8-1.2-4.7
			c-0.8-0.9-1.9-1.4-3.2-1.4c-1.3,0-2.4,0.4-3.2,1.4c-0.8,0.9-1.2,2.4-1.2,4.7v21.6h-13.9V36.3H278.6z"/>
		<path id="XMLID_1086_" class="st0" d="M353.9,21.5h13.9v17.8c0.8-0.7,1.7-1.3,2.7-1.9c0.9-0.4,1.9-0.9,3.2-1.3
			c1.2-0.4,2.7-0.7,4.1-0.7c2.3,0,4.5,0.4,6.5,1.2c2,0.8,3.7,1.9,5.1,3.4c1.4,1.6,2.6,3.3,3.3,5.4c0.8,2.1,1.2,4.5,1.2,7.3v23.4
			h-13.9V55.4c0-2.2-0.6-3.9-1.8-5.1c-1.1-1.2-2.6-1.8-4.3-1.8s-3.2,0.6-4.3,1.8s-1.8,2.9-1.8,5.1v20.9H354V21.5H353.9z"/>
		<path id="XMLID_1164_" class="st0" d="M409.6,25.4c0-2,0.7-3.7,2-5c1.3-1.3,3.1-2,5.3-2s4,0.7,5.3,2c1.3,1.3,2,3,2,5s-0.7,3.7-2,5
			c-1.3,1.3-3.1,2-5.3,2s-4-0.7-5.3-2C410.4,29.1,409.6,27.4,409.6,25.4z M410.1,36.3H424v39.9h-13.9V36.3z"/>
		<path id="XMLID_1178_" class="st0" d="M451.6,62.7c0.2,0.7,0.4,1.2,0.9,1.8c0.3,0.4,0.7,0.9,1.3,1.2c0.6,0.3,1.3,0.6,2.2,0.6
			c1.3,0,2.3-0.2,3-0.8s1-1.1,1-1.8c0-0.6-0.6-1.1-1.6-1.4c-1-0.3-2.2-0.8-3.8-1.2c-1.6-0.4-3.1-0.9-4.9-1.4
			c-1.8-0.6-3.4-1.3-4.9-2.3c-1.6-1-2.8-2.2-3.8-3.7c-1-1.4-1.6-3.3-1.6-5.5c0-1.7,0.3-3.2,1.1-4.7c0.8-1.6,1.8-2.9,3.2-4
			c1.4-1.2,3.1-2.1,5.2-2.8c2.1-0.7,4.3-1,7-1c5.7,0,9.9,1.2,12.7,3.6c2.9,2.3,4.7,5.3,5.5,9.1l-13,1.3c-0.2-0.6-0.4-1-0.7-1.4
			c-0.3-0.4-0.7-0.8-1.2-1.1c-0.4-0.3-1.2-0.4-2-0.4c-2,0-3,0.8-3,2.2c0,0.6,0.6,1,1.6,1.4c1,0.3,2.2,0.8,3.8,1.1
			c1.6,0.4,3.1,0.9,4.9,1.4c1.8,0.6,3.4,1.2,4.9,2.2c1.6,1,2.8,2.2,3.8,3.8c1,1.6,1.6,3.4,1.6,5.8c0,1.8-0.3,3.4-1.1,5
			c-0.8,1.6-1.9,3-3.3,4.2c-1.4,1.2-3.3,2.2-5.4,2.9s-4.7,1-7.4,1c-5.9,0-10.2-1.2-13.1-3.6c-2.9-2.3-4.8-5.5-5.5-9.4L451.6,62.7z
			 M441.8,19.3h11.3l3.9,5.2l3.9-5.2h11.3l-9.1,12.1H451L441.8,19.3z"/>
		<path id="XMLID_1281_" class="st0" d="M517.4,72.3c-1,0.9-2.1,1.8-3.3,2.4c-1,0.7-2.2,1.2-3.7,1.7c-1.4,0.4-3,0.7-4.8,0.7
			c-2.2,0-4.4-0.6-6.7-1.6c-2.2-1.1-4.1-2.6-5.9-4.4c-1.7-1.9-3.1-4.1-4.1-6.5c-1-2.6-1.6-5.2-1.6-8.2s0.6-5.7,1.6-8.2
			c1-2.6,2.4-4.7,4.1-6.5c1.7-1.9,3.7-3.3,5.9-4.4c2.2-1.1,4.4-1.6,6.7-1.6c1.8,0,3.3,0.2,4.8,0.8c1.4,0.4,2.7,1.1,3.7,1.7
			c1.2,0.7,2.3,1.4,3.3,2.3l2.2-3.9h10v39.9h-10L517.4,72.3z M508.7,64.1c2,0,3.7-0.8,5.2-2.2c1.4-1.6,2.2-3.3,2.2-5.5
			s-0.8-4-2.2-5.5c-1.4-1.6-3.2-2.2-5.2-2.2c-2,0-3.7,0.8-5.2,2.2c-1.4,1.6-2.2,3.3-2.2,5.5s0.8,4,2.2,5.5
			C505,63.3,506.7,64.1,508.7,64.1z"/>
	</g>
	<g id="XMLID_334_">
		<path id="XMLID_1302_" class="st0" d="M238.9,124.4c-0.5,0.5-1,0.9-1.6,1.3c-0.6,0.3-1.3,0.7-2.1,0.9c-0.8,0.3-1.9,0.4-3,0.4
			c-1.6,0-3-0.3-4.4-0.9s-2.5-1.4-3.6-2.5c-1-1.1-1.8-2.3-2.4-3.8c-0.6-1.5-0.9-3.1-0.9-4.8s0.3-3.4,0.9-4.8
			c0.6-1.5,1.4-2.7,2.4-3.8c1-1.1,2.2-1.9,3.6-2.5c1.4-0.6,2.8-0.9,4.4-0.9c1.2,0,2.2,0.1,3,0.4c0.9,0.3,1.6,0.6,2.1,0.9
			c0.6,0.4,1.2,0.8,1.6,1.3l1-2.3h3.4v23.5h-3.4L238.9,124.4z M232.4,122.6c0.9,0,1.8-0.2,2.6-0.5c0.8-0.4,1.5-0.9,2.2-1.6
			c0.6-0.7,1.1-1.5,1.5-2.4s0.5-1.9,0.5-3s-0.2-2.1-0.5-3c-0.4-0.9-0.9-1.7-1.5-2.4c-0.6-0.7-1.3-1.2-2.2-1.6
			c-0.8-0.4-1.7-0.5-2.6-0.5s-1.8,0.2-2.6,0.5c-0.8,0.4-1.5,0.9-2.2,1.6c-0.6,0.7-1.1,1.5-1.5,2.4s-0.5,1.9-0.5,3s0.2,2.1,0.5,3
			c0.4,0.9,0.9,1.7,1.5,2.4c0.6,0.7,1.3,1.2,2.2,1.6C230.6,122.4,231.5,122.6,232.4,122.6z"/>
		<path id="XMLID_1305_" class="st0" d="M248.4,103.3h3.4l1,2.3c0.4-0.5,0.9-0.9,1.5-1.3c0.5-0.3,1.1-0.6,1.8-0.9
			c0.7-0.3,1.6-0.4,2.6-0.4c0.3,0,0.5,0,0.7,0.1c0.2,0,0.3,0.1,0.5,0.1c0.1,0,0.3,0.1,0.4,0.1v4.7c-0.1,0-0.3-0.1-0.5-0.1
			c-0.2,0-0.4-0.1-0.5-0.1c-0.2,0-0.4-0.1-0.5-0.1c-0.8,0-1.5,0.2-2.2,0.5c-0.7,0.3-1.3,0.7-1.8,1.3c-0.5,0.5-0.9,1.1-1.2,1.8
			s-0.4,1.4-0.4,2.2v13.3h-4.7v-23.5H248.4z"/>
		<path id="XMLID_1307_" class="st0" d="M263.5,93.9h4.7v11.7c0.5-0.5,1-0.9,1.7-1.3c0.6-0.3,1.2-0.6,2.1-0.9
			c0.8-0.3,1.7-0.4,2.8-0.4c1.3,0,2.5,0.3,3.6,0.8s2.1,1.2,3,2.1s1.5,2,2,3.2c0.5,1.3,0.7,2.6,0.7,4.1v13.6h-4.7v-13.6
			c0-0.8-0.1-1.5-0.4-2.2c-0.3-0.7-0.7-1.3-1.2-1.8s-1.1-0.9-1.7-1.3c-0.7-0.3-1.4-0.5-2.1-0.5c-0.8,0-1.5,0.2-2.2,0.5
			c-0.7,0.3-1.3,0.7-1.8,1.3c-0.5,0.5-0.9,1.1-1.2,1.8c-0.3,0.7-0.4,1.4-0.4,2.2v13.6h-4.9V93.9z"/>
		<path id="XMLID_1309_" class="st0" d="M291.2,93.9c0.8,0,1.5,0.3,2,0.8c0.6,0.6,0.8,1.2,0.8,2s-0.3,1.5-0.8,2
			c-0.6,0.6-1.2,0.8-2,0.8c-0.8,0-1.5-0.3-2-0.8c-0.6-0.6-0.8-1.2-0.8-2s0.3-1.5,0.8-2C289.7,94.2,290.4,93.9,291.2,93.9z
			 M288.9,103.3h4.7v23.5h-4.7V103.3z"/>
		<path id="XMLID_1312_" class="st0" d="M300.6,107.7h-4.1v-4.4h1.8c0.9,0,1.7-0.3,2.2-0.9c0.6-0.6,0.9-1.3,0.9-2.2V97h3.9v6.3h5.2
			v4.4h-5.2v11.2c0,1,0.3,1.9,1,2.6c0.7,0.7,1.6,1,2.6,1c0.2,0,0.4,0,0.5,0c0.2,0,0.4,0,0.5-0.1c0.2,0,0.3-0.1,0.5-0.2v4.2
			c-0.2,0.1-0.5,0.2-0.7,0.3c-0.5,0.2-1.1,0.3-1.9,0.3c-1,0-2-0.2-2.9-0.6s-1.7-0.9-2.3-1.6c-0.7-0.7-1.2-1.5-1.5-2.5
			c-0.4-1-0.5-2.1-0.5-3.4V107.7z"/>
		<path id="XMLID_1314_" class="st0" d="M334.3,120c-0.4,1-0.9,1.9-1.5,2.7c-0.6,0.9-1.3,1.6-2.1,2.2c-0.8,0.6-1.8,1.1-2.9,1.5
			s-2.3,0.5-3.7,0.5c-1.6,0-3-0.3-4.4-0.9s-2.5-1.4-3.6-2.5c-1-1.1-1.8-2.3-2.4-3.8s-0.9-3.1-0.9-4.8s0.3-3.4,0.9-4.8
			c0.6-1.5,1.4-2.7,2.3-3.8c1-1.1,2.2-1.9,3.5-2.5s2.8-0.9,4.2-0.9c1.5,0,2.9,0.3,4.2,0.9c1.3,0.6,2.5,1.4,3.5,2.5s1.8,2.3,2.3,3.8
			c0.6,1.5,0.9,3.1,0.9,4.8c0,0.3,0,0.5-0.1,0.8c0,0.3-0.1,0.5-0.1,0.7s-0.1,0.5-0.1,0.6h-16.7c0.1,0.7,0.3,1.4,0.6,2.1
			c0.3,0.7,0.8,1.2,1.3,1.7s1.2,0.9,1.9,1.2c0.7,0.3,1.5,0.4,2.4,0.4c1.4,0,2.6-0.3,3.4-0.9s1.4-1.2,1.8-1.7h5.3V120z M330.4,113.2
			c-0.3-1.7-1-3.1-2.1-4.1c-1.1-1.1-2.6-1.6-4.4-1.6c-1.6,0-2.9,0.5-4,1.6s-1.8,2.4-2,4.1H330.4z"/>
		<path id="XMLID_1320_" class="st0" d="M338.8,93.9h4.7v19.5l8.1-10.2h5.5l-9.1,10.9l10.4,12.5h-5.7l-9.1-11.2v11.2h-4.7
			L338.8,93.9L338.8,93.9z"/>
		<path id="XMLID_1322_" class="st0" d="M361.8,107.7h-4.2v-4.4h1.8c0.9,0,1.7-0.3,2.2-0.9c0.6-0.6,0.9-1.3,0.9-2.2V97h3.9v6.3h5.2
			v4.4h-5.1v11.2c0,1,0.3,1.9,1,2.6s1.6,1,2.6,1c0.2,0,0.4,0,0.5,0c0.2,0,0.4,0,0.5-0.1c0.2,0,0.3-0.1,0.5-0.2v4.2
			c-0.2,0.1-0.5,0.2-0.7,0.3c-0.5,0.2-1.1,0.3-1.9,0.3c-1,0-2-0.2-2.9-0.6s-1.7-0.9-2.3-1.6c-0.7-0.7-1.2-1.5-1.5-2.5
			c-0.4-1-0.5-2.1-0.5-3.4L361.8,107.7L361.8,107.7z"/>
		<path id="XMLID_1324_" class="st0" d="M375.9,103.3h4.7v13.6c0,0.8,0.1,1.5,0.4,2.2s0.7,1.3,1.2,1.8s1.1,0.9,1.7,1.2
			c0.7,0.3,1.4,0.4,2.1,0.4c0.8,0,1.5-0.1,2.2-0.4s1.3-0.7,1.8-1.2s0.9-1.1,1.3-1.8c0.3-0.7,0.5-1.4,0.5-2.2v-13.6h4.7v23.5h-3.4
			l-1-2.3c-0.5,0.5-1,0.9-1.6,1.3c-0.6,0.3-1.3,0.7-2.1,0.9c-0.9,0.3-1.9,0.4-3.1,0.4c-1.3,0-2.5-0.3-3.7-0.8
			c-1.1-0.5-2.1-1.2-3-2.1s-1.5-2-2-3.2c-0.5-1.3-0.7-2.6-0.7-4.1V103.3z"/>
		<path id="XMLID_1326_" class="st0" d="M401.5,103.3h3.4l1,2.3c0.4-0.5,0.9-0.9,1.5-1.3c0.5-0.3,1.1-0.6,1.8-0.9
			c0.7-0.3,1.6-0.4,2.6-0.4c0.3,0,0.5,0,0.7,0.1c0.2,0,0.3,0.1,0.5,0.1c0.1,0,0.3,0.1,0.4,0.1v4.7c-0.1,0-0.3-0.1-0.5-0.1
			s-0.4-0.1-0.5-0.1c-0.2,0-0.4-0.1-0.5-0.1c-0.8,0-1.5,0.2-2.2,0.5s-1.3,0.7-1.8,1.3c-0.5,0.5-0.9,1.1-1.2,1.8s-0.4,1.4-0.4,2.2
			v13.3h-4.8V103.3z"/>
		<path id="XMLID_1328_" class="st0" d="M433.1,124.4c-0.5,0.5-1,0.9-1.6,1.3c-0.6,0.3-1.3,0.7-2.1,0.9c-0.8,0.3-1.9,0.4-3,0.4
			c-1.6,0-3-0.3-4.4-0.9s-2.5-1.4-3.6-2.5c-1-1.1-1.8-2.3-2.4-3.8s-0.9-3.1-0.9-4.8s0.3-3.4,0.9-4.8c0.6-1.5,1.4-2.7,2.4-3.8
			c1-1.1,2.2-1.9,3.6-2.5s2.8-0.9,4.4-0.9c1.2,0,2.2,0.1,3,0.4c0.9,0.3,1.6,0.6,2.1,0.9c0.6,0.4,1.2,0.8,1.6,1.3l1-2.3h3.4v23.5
			h-3.4L433.1,124.4z M426.6,122.6c0.9,0,1.8-0.2,2.6-0.5c0.8-0.4,1.5-0.9,2.2-1.6c0.6-0.7,1.1-1.5,1.5-2.4s0.5-1.9,0.5-3
			s-0.2-2.1-0.5-3c-0.4-0.9-0.9-1.7-1.5-2.4c-0.6-0.7-1.3-1.2-2.2-1.6c-0.8-0.4-1.7-0.5-2.6-0.5s-1.8,0.2-2.6,0.5
			c-0.8,0.4-1.5,0.9-2.2,1.6c-0.6,0.7-1.1,1.5-1.5,2.4s-0.5,1.9-0.5,3s0.2,2.1,0.5,3c0.4,0.9,0.9,1.7,1.5,2.4
			c0.6,0.7,1.3,1.2,2.2,1.6C424.8,122.4,425.7,122.6,426.6,122.6z"/>
		<path id="XMLID_1331_" class="st0" d="M441.7,130.6c0.3-0.2,0.7-0.6,1-0.9c0.3-0.3,0.5-0.7,0.8-1.1c0.2-0.5,0.4-1,0.6-1.6
			c-0.9,0-1.7-0.3-2.2-0.8c-0.6-0.6-0.9-1.2-0.9-2s0.3-1.5,0.8-2c0.6-0.6,1.2-0.8,2-0.8s1.5,0.3,2,0.9c0.6,0.6,0.8,1.3,0.8,2.2
			c0,1.3-0.2,2.4-0.7,3.4c-0.4,0.9-0.9,1.7-1.4,2.3c-0.6,0.7-1.3,1.3-2.1,1.7L441.7,130.6z"/>
		<path id="XMLID_1333_" class="st0" d="M467.9,98.6H458v-4.7h24.8v4.7h-9.9v28.1h-5V98.6z"/>
		<path id="XMLID_1335_" class="st0" d="M499,124.4c-0.5,0.5-1,0.9-1.6,1.3c-0.6,0.3-1.3,0.7-2.1,0.9c-0.8,0.3-1.9,0.4-3,0.4
			c-1.6,0-3-0.3-4.4-0.9s-2.5-1.4-3.6-2.5c-1-1.1-1.8-2.3-2.4-3.8s-0.9-3.1-0.9-4.8s0.3-3.4,0.9-4.8c0.6-1.5,1.4-2.7,2.4-3.8
			c1-1.1,2.2-1.9,3.6-2.5s2.8-0.9,4.4-0.9c1.2,0,2.2,0.1,3,0.4c0.9,0.3,1.6,0.6,2.1,0.9c0.6,0.4,1.2,0.8,1.6,1.3l1-2.3h3.4v23.5H500
			L499,124.4z M492.4,122.6c0.9,0,1.8-0.2,2.6-0.5c0.8-0.4,1.5-0.9,2.2-1.6c0.6-0.7,1.1-1.5,1.5-2.4s0.5-1.9,0.5-3s-0.2-2.1-0.5-3
			c-0.4-0.9-0.9-1.7-1.5-2.4c-0.6-0.7-1.3-1.2-2.2-1.6c-0.8-0.4-1.7-0.5-2.6-0.5s-1.8,0.2-2.6,0.5c-0.8,0.4-1.5,0.9-2.2,1.6
			c-0.6,0.7-1.1,1.5-1.5,2.4s-0.5,1.9-0.5,3s0.2,2.1,0.5,3c0.4,0.9,0.9,1.7,1.5,2.4c0.6,0.7,1.3,1.2,2.2,1.6
			C490.7,122.4,491.5,122.6,492.4,122.6z"/>
		<path id="XMLID_1338_" class="st0" d="M525.1,124.4c-0.5,0.5-1,0.9-1.6,1.3c-0.6,0.3-1.3,0.7-2.1,0.9c-0.8,0.3-1.9,0.4-3,0.4
			c-1.6,0-3-0.3-4.4-0.9c-1.4-0.6-2.5-1.4-3.6-2.5c-1-1.1-1.8-2.3-2.4-3.8s-0.9-3.1-0.9-4.8s0.3-3.4,0.9-4.8
			c0.6-1.5,1.4-2.7,2.4-3.8c1-1.1,2.2-1.9,3.6-2.5c1.4-0.6,2.8-0.9,4.4-0.9c1.1,0,2.1,0.1,2.9,0.4s1.5,0.6,2,0.9
			c0.6,0.4,1.2,0.8,1.6,1.3V93.9h4.7v32.8h-3.4L525.1,124.4z M518.6,122.6c0.9,0,1.8-0.2,2.6-0.5c0.8-0.4,1.5-0.9,2.2-1.6
			c0.6-0.7,1.1-1.5,1.5-2.4c0.4-0.9,0.5-1.9,0.5-3s-0.2-2.1-0.5-3c-0.4-0.9-0.9-1.7-1.5-2.4c-0.6-0.7-1.3-1.2-2.2-1.6
			c-0.8-0.4-1.7-0.5-2.6-0.5c-0.9,0-1.8,0.2-2.6,0.5c-0.8,0.4-1.5,0.9-2.2,1.6c-0.6,0.7-1.1,1.5-1.5,2.4c-0.4,0.9-0.5,1.9-0.5,3
			s0.2,2.1,0.5,3c0.4,0.9,0.9,1.7,1.5,2.4c0.6,0.7,1.3,1.2,2.2,1.6C516.8,122.4,517.7,122.6,518.6,122.6z"/>
		<path id="XMLID_1341_" class="st0" d="M554.8,120c-0.4,1-0.9,1.9-1.5,2.7c-0.6,0.9-1.3,1.6-2.1,2.2c-0.8,0.6-1.8,1.1-2.9,1.5
			c-1.1,0.4-2.3,0.5-3.7,0.5c-1.6,0-3-0.3-4.4-0.9c-1.4-0.6-2.5-1.4-3.6-2.5c-1-1.1-1.8-2.3-2.4-3.8c-0.6-1.5-0.9-3.1-0.9-4.8
			s0.3-3.4,0.9-4.8c0.6-1.5,1.4-2.7,2.3-3.8c1-1.1,2.2-1.9,3.5-2.5s2.8-0.9,4.2-0.9c1.5,0,2.9,0.3,4.2,0.9s2.5,1.4,3.5,2.5
			s1.8,2.3,2.3,3.8c0.6,1.5,0.9,3.1,0.9,4.8c0,0.3,0,0.5-0.1,0.8c-0.1,0.3-0.1,0.5-0.1,0.7s-0.1,0.5-0.1,0.6h-16.7
			c0.1,0.7,0.3,1.4,0.6,2.1c0.3,0.7,0.8,1.2,1.3,1.7s1.2,0.9,1.9,1.2c0.7,0.3,1.5,0.4,2.4,0.4c1.4,0,2.6-0.3,3.4-0.9
			s1.4-1.2,1.8-1.7h5.3V120z M550.9,113.2c-0.3-1.7-1-3.1-2.1-4.1c-1.1-1.1-2.6-1.6-4.4-1.6c-1.6,0-2.9,0.5-4,1.6
			c-1.1,1.1-1.8,2.4-2,4.1H550.9z"/>
		<path id="XMLID_1344_" class="st0" d="M553.8,130.6c0.1,0.1,0.3,0.1,0.5,0.2c0.2,0,0.3,0.1,0.5,0.1s0.4,0,0.6,0c1,0,1.9-0.3,2.6-1
			s1-1.6,1-2.6v-24h4.7v24c0,1.3-0.2,2.4-0.5,3.4c-0.4,1-0.9,1.8-1.5,2.5c-0.7,0.7-1.4,1.2-2.3,1.6c-0.9,0.4-1.8,0.6-2.9,0.6
			c-0.7,0-1.4-0.1-1.9-0.3c-0.3-0.1-0.5-0.2-0.7-0.3v-4.2H553.8z M561.4,99.6c-0.8,0-1.5-0.3-2-0.8c-0.6-0.6-0.8-1.2-0.8-2
			s0.3-1.5,0.8-2c0.6-0.6,1.2-0.8,2-0.8s1.5,0.3,2,0.8c0.6,0.6,0.8,1.2,0.8,2s-0.3,1.5-0.8,2C562.9,99.4,562.2,99.6,561.4,99.6z"/>
		<path id="XMLID_1347_" class="st0" d="M579.8,93.9h13c1.3,0,2.5,0.2,3.6,0.7s2.1,1.1,3,2c0.8,0.8,1.5,1.8,2,2.9s0.7,2.3,0.7,3.5
			c0,1-0.2,2-0.5,2.7c-0.4,0.8-0.8,1.4-1.2,2c-0.5,0.6-1,1.1-1.7,1.6c0.9,0.5,1.7,1.1,2.3,1.9c0.6,0.7,1.1,1.5,1.6,2.5
			s0.7,2.2,0.7,3.7c0,1.3-0.3,2.4-0.8,3.6c-0.5,1.1-1.3,2.1-2.2,3s-2,1.5-3.3,2.1c-1.3,0.5-2.7,0.8-4.1,0.8h-13.3v-33H579.8z
			 M592.8,107.4c1.3,0,2.4-0.4,3.3-1.3c0.9-0.9,1.4-1.9,1.4-3.1s-0.5-2.2-1.4-3.1s-2-1.3-3.3-1.3h-8.1v8.9L592.8,107.4L592.8,107.4z
			 M593,122c0.8,0,1.5-0.1,2.2-0.4s1.3-0.7,1.7-1.1c0.5-0.5,0.9-1,1.1-1.6c0.3-0.6,0.4-1.3,0.4-2s-0.1-1.4-0.4-2
			c-0.3-0.6-0.7-1.2-1.1-1.6c-0.5-0.5-1.1-0.8-1.7-1.1c-0.7-0.3-1.4-0.4-2.2-0.4h-8.3V122H593z"/>
		<path id="XMLID_1351_" class="st0" d="M623.8,124.4c-0.5,0.5-1,0.9-1.6,1.3c-0.6,0.3-1.3,0.7-2.1,0.9c-0.8,0.3-1.9,0.4-3,0.4
			c-1.6,0-3-0.3-4.4-0.9s-2.5-1.4-3.6-2.5c-1-1.1-1.8-2.3-2.4-3.8c-0.6-1.5-0.9-3.1-0.9-4.8s0.3-3.4,0.9-4.8
			c0.6-1.5,1.4-2.7,2.4-3.8c1-1.1,2.2-1.9,3.6-2.5c1.4-0.6,2.8-0.9,4.4-0.9c1.2,0,2.2,0.1,3,0.4c0.9,0.3,1.6,0.6,2.1,0.9
			c0.6,0.4,1.2,0.8,1.6,1.3l1-2.3h3.4v23.5h-3.4L623.8,124.4z M617.3,122.6c0.9,0,1.8-0.2,2.6-0.5c0.8-0.4,1.5-0.9,2.2-1.6
			c0.6-0.7,1.1-1.5,1.5-2.4s0.5-1.9,0.5-3s-0.2-2.1-0.5-3c-0.4-0.9-0.9-1.7-1.5-2.4c-0.6-0.7-1.3-1.2-2.2-1.6
			c-0.8-0.4-1.7-0.5-2.6-0.5c-0.9,0-1.8,0.2-2.6,0.5c-0.8,0.4-1.5,0.9-2.2,1.6c-0.6,0.7-1.1,1.5-1.5,2.4s-0.5,1.9-0.5,3
			s0.2,2.1,0.5,3c0.4,0.9,0.9,1.7,1.5,2.4c0.6,0.7,1.3,1.2,2.2,1.6C615.6,122.4,616.4,122.6,617.3,122.6z"/>
		<path id="XMLID_1354_" class="st0" d="M628.1,130.6c0.1,0.1,0.3,0.1,0.5,0.2c0.2,0,0.3,0.1,0.5,0.1s0.4,0,0.6,0c1,0,1.9-0.3,2.6-1
			c0.7-0.7,1-1.6,1-2.6v-24h4.7v24c0,1.3-0.2,2.4-0.5,3.4c-0.4,1-0.9,1.8-1.5,2.5c-0.7,0.7-1.4,1.2-2.3,1.6
			c-0.9,0.4-1.8,0.6-2.9,0.6c-0.7,0-1.4-0.1-1.9-0.3c-0.3-0.1-0.5-0.2-0.7-0.3L628.1,130.6L628.1,130.6z M635.6,99.6
			c-0.8,0-1.5-0.3-2-0.8c-0.6-0.6-0.8-1.2-0.8-2s0.3-1.5,0.8-2c0.6-0.6,1.2-0.8,2-0.8s1.5,0.3,2,0.8c0.6,0.6,0.8,1.2,0.8,2
			s-0.3,1.5-0.8,2C637.1,99.4,636.4,99.6,635.6,99.6z"/>
		<path id="XMLID_1357_" class="st0" d="M659.7,124.4c-0.5,0.5-1,0.9-1.6,1.3c-0.6,0.3-1.3,0.7-2.1,0.9c-0.8,0.3-1.9,0.4-3,0.4
			c-1.6,0-3-0.3-4.4-0.9s-2.5-1.4-3.6-2.5c-1-1.1-1.8-2.3-2.4-3.8c-0.6-1.5-0.9-3.1-0.9-4.8s0.3-3.4,0.9-4.8
			c0.6-1.5,1.4-2.7,2.4-3.8c1-1.1,2.2-1.9,3.6-2.5c1.4-0.6,2.8-0.9,4.4-0.9c1.1,0,2.1,0.1,2.9,0.4c0.8,0.3,1.5,0.6,2,0.9
			c0.6,0.4,1.2,0.8,1.6,1.3V93.9h4.7v32.8h-3.4L659.7,124.4z M653.1,122.6c0.9,0,1.8-0.2,2.6-0.5c0.8-0.4,1.5-0.9,2.2-1.6
			c0.6-0.7,1.1-1.5,1.5-2.4s0.5-1.9,0.5-3s-0.2-2.1-0.5-3c-0.4-0.9-0.9-1.7-1.5-2.4c-0.6-0.7-1.3-1.2-2.2-1.6
			c-0.8-0.4-1.7-0.5-2.6-0.5c-0.9,0-1.8,0.2-2.6,0.5c-0.8,0.4-1.5,0.9-2.2,1.6c-0.6,0.7-1.1,1.5-1.5,2.4s-0.5,1.9-0.5,3
			s0.2,2.1,0.5,3c0.4,0.9,0.9,1.7,1.5,2.4c0.6,0.7,1.3,1.2,2.2,1.6C651.4,122.4,652.2,122.6,653.1,122.6z"/>
		<path id="XMLID_1360_" class="st0" d="M686,124.4c-0.5,0.5-1,0.9-1.6,1.3c-0.6,0.3-1.3,0.7-2.1,0.9c-0.8,0.3-1.9,0.4-3,0.4
			c-1.6,0-3-0.3-4.4-0.9s-2.5-1.4-3.6-2.5c-1-1.1-1.8-2.3-2.4-3.8c-0.6-1.5-0.9-3.1-0.9-4.8s0.3-3.4,0.9-4.8
			c0.6-1.5,1.4-2.7,2.4-3.8c1-1.1,2.2-1.9,3.6-2.5c1.4-0.6,2.8-0.9,4.4-0.9c1.2,0,2.2,0.1,3,0.4c0.9,0.3,1.6,0.6,2.1,0.9
			c0.6,0.4,1.2,0.8,1.6,1.3l1-2.3h3.4v23.5H687L686,124.4z M679.5,122.6c0.9,0,1.8-0.2,2.6-0.5c0.8-0.4,1.5-0.9,2.2-1.6
			c0.6-0.7,1.1-1.5,1.5-2.4s0.5-1.9,0.5-3s-0.2-2.1-0.5-3c-0.4-0.9-0.9-1.7-1.5-2.4c-0.6-0.7-1.3-1.2-2.2-1.6
			c-0.8-0.4-1.7-0.5-2.6-0.5s-1.8,0.2-2.6,0.5c-0.8,0.4-1.5,0.9-2.2,1.6c-0.6,0.7-1.1,1.5-1.5,2.4s-0.5,1.9-0.5,3s0.2,2.1,0.5,3
			c0.4,0.9,0.9,1.7,1.5,2.4c0.6,0.7,1.3,1.2,2.2,1.6C677.8,122.4,678.6,122.6,679.5,122.6z"/>
		<path id="XMLID_1363_" class="st0" d="M709.1,119.2c0.1,1,0.5,1.9,1.2,2.5s1.6,0.9,3,0.9c1.5,0,2.5-0.3,3.2-0.8c0.7-0.6,1-1.2,1-2
			c0-0.7-0.3-1.2-0.9-1.6c-0.6-0.4-1.4-0.7-2.3-0.9c-0.9-0.2-1.9-0.5-3-0.8s-2.1-0.6-3-1.1s-1.7-1.1-2.3-2c-0.6-0.8-0.9-1.9-0.9-3.3
			c0-1,0.2-1.9,0.6-2.7c0.4-0.9,0.9-1.6,1.6-2.2c0.7-0.6,1.5-1.1,2.5-1.5s2.1-0.5,3.4-0.5c2.7,0,4.8,0.7,6.3,2
			c1.4,1.3,2.2,3.1,2.3,5.3h-4.7c-0.1-0.8-0.5-1.5-1.2-2c-0.6-0.6-1.6-0.8-2.7-0.8c-1.2,0-2.1,0.3-2.7,0.8c-0.6,0.5-0.9,1.1-0.9,1.8
			c0,0.7,0.3,1.2,0.9,1.6c0.6,0.4,1.4,0.7,2.3,0.9c0.9,0.2,1.9,0.5,3,0.8s2.1,0.6,3,1.1s1.7,1.1,2.3,2c0.6,0.8,0.9,1.9,0.9,3.3
			c0,2.1-0.7,3.8-2.2,5.2c-1.5,1.4-3.6,2.1-6.4,2.1c-2.9,0-5-0.7-6.5-2s-2.2-3.3-2.4-5.8h4.6V119.2z"/>
		<path id="XMLID_1365_" class="st0" d="M724,123.8c0-0.8,0.3-1.5,0.8-2c0.6-0.6,1.2-0.8,2-0.8s1.5,0.3,2,0.8c0.6,0.6,0.8,1.2,0.8,2
			s-0.3,1.5-0.8,2c-0.6,0.6-1.2,0.8-2,0.8s-1.5-0.3-2-0.8S724,124.6,724,123.8z"/>
		<path id="XMLID_1367_" class="st0" d="M733.1,103.3h3.4l1,2.3c0.5-0.5,1-0.9,1.6-1.3c0.6-0.3,1.3-0.6,2.1-0.9
			c0.9-0.3,1.9-0.4,3.1-0.4c1.6,0,3,0.3,4.4,0.9s2.5,1.4,3.6,2.5c1,1.1,1.8,2.3,2.4,3.8c0.6,1.5,0.9,3.1,0.9,4.8s-0.3,3.4-0.9,4.8
			c-0.6,1.5-1.4,2.7-2.4,3.8c-1,1.1-2.2,1.9-3.6,2.5s-2.8,0.9-4.4,0.9c-1.1,0-2.1-0.1-2.9-0.4c-0.8-0.3-1.5-0.6-2-0.9
			c-0.6-0.4-1.2-0.8-1.6-1.3v10.7h-4.7L733.1,103.3L733.1,103.3z M744.1,122.6c0.9,0,1.8-0.2,2.6-0.5c0.8-0.4,1.5-0.9,2.2-1.6
			c0.6-0.7,1.1-1.5,1.5-2.4s0.5-1.9,0.5-3s-0.2-2.1-0.5-3c-0.4-0.9-0.9-1.7-1.5-2.4c-0.6-0.7-1.3-1.2-2.2-1.6
			c-0.8-0.4-1.7-0.5-2.6-0.5s-1.8,0.2-2.6,0.5c-0.8,0.4-1.5,0.9-2.2,1.6c-0.6,0.7-1.1,1.5-1.5,2.4s-0.5,1.9-0.5,3s0.2,2.1,0.5,3
			c0.4,0.9,0.9,1.7,1.5,2.4c0.6,0.7,1.3,1.2,2.2,1.6C742.3,122.4,743.2,122.6,744.1,122.6z"/>
		<path id="XMLID_1370_" class="st0" d="M757.7,123.8c0-0.8,0.3-1.5,0.8-2c0.6-0.6,1.2-0.8,2-0.8s1.5,0.3,2,0.8
			c0.6,0.6,0.8,1.2,0.8,2s-0.3,1.5-0.8,2c-0.6,0.6-1.2,0.8-2,0.8s-1.5-0.3-2-0.8S757.7,124.6,757.7,123.8z"/>
	</g>
</g>
</svg>
