<?xml version="1.0" encoding="utf-8"?>
<!-- Generator: Adobe Illustrator 19.0.0, SVG Export Plug-In . SVG Version: 6.00 Build 0)  -->
<svg version="1.1" id="Layer_1" xmlns="http://www.w3.org/2000/svg" xmlns:xlink="http://www.w3.org/1999/xlink" x="0px" y="0px"
	 viewBox="46 0 717.3 150" style="enable-background:new 46 0 717.3 150;" xml:space="preserve">
<style type="text/css">
	.st0{fill:#282525;}
</style>
<g>
    <g id="XMLID_1_">
        <path id="XMLID_6_" class="st0" d="M68.9,63.9c0.2,0.2,0.4,0.5,0.5,0.7c0.2,0.2,0.3,0.4,0.4,0.6c0.3,0.4,0.7,0.8,1,1.2l0.5,0.5
            c0.5,0.5,1,1,1.5,1.4c0.6,0.5,1.2,1,1.8,1.4c0.6,0.4,1.3,0.8,2.1,1.1c0.9,0.4,1.8,0.6,2.6,0.7c0.8,0.1,1.6,0.2,2.3,0.2
            c1,0,1.9-0.1,2.8-0.3c0.6,0,1.1-0.2,1.7-0.4c0,0,0.1,0,0.1,0c0.2,0,0.4-0.1,0.5-0.2c0.4-0.1,0.7-0.2,1.1-0.4l0.4-0.1
            c0.5-0.2,0.9-0.4,1.3-0.6l0.9-0.5c0.3-0.1,0.6-0.2,0.8-0.4c0.2,0,0.3-0.1,0.4-0.2c0.3-0.1,0.5-0.3,0.5-0.3
            c0.6-0.4,1.2-0.8,1.7-1.2c0.6-0.5,1.3-1.1,1.9-1.8c0.2-0.2,0.5-0.5,0.6-1.1c0.1-0.8,0-1.6-0.3-2.4c0-0.1-0.1-0.3-0.2-0.4
            c-0.2-0.4-0.5-0.8-0.8-1.3c-0.2-0.4-0.5-0.7-0.7-1c-0.4-0.5-0.9-1-1.5-1.6c-0.3-0.3-0.7-0.6-1.1-0.8c-1.2-0.4-2.1,0.3-2.5,0.6
            c-0.4,0.3-0.7,0.6-1,0.9c-0.2,0.2-0.5,0.4-0.7,0.6c-0.6,0.5-1.2,1-1.9,1.5c-0.5,0.4-1.1,0.8-1.9,1.1c-0.3,0.1-0.5,0.2-0.8,0.3
            L82.2,62c-0.7,0.3-1.4,0.4-2,0.6l0.5-0.3c0.6-0.3,1.1-0.6,1.7-0.9c1.1-0.7,2.2-1.6,3.2-2.6c0.3-0.3,1.2-1.2,0.7-2.4
            c-0.2-0.5-0.4-1-0.7-1.4L85,54.3c-0.4-0.6-0.9-1.3-1.4-1.9c-0.7-0.8-1.6-1.8-2.7-2.6c-0.6-0.4-1.1-0.5-1.6-0.4
            c-0.6,0.1-1.2,0.4-1.7,0.7L77.4,50c-0.3,0.1-0.5,0.3-0.8,0.5l-0.4,0.2c-0.5,0.3-1,0.7-1.6,1.2c-0.9,0.8-1.5,1.5-2,2.3l-0.1,0.1
            c-0.2,0.3-0.5,0.8-0.4,1.4c0,0.2,0,0.4,0.1,0.7c0.1,0.5,0.8,1.4,1.1,1.8c0.5,0.7,1.1,1.2,1.7,1.9c0.8,0.7,1.7,1.5,2.8,2.1
            c0.2,0.1,0.5,0.2,0.8,0.3c0,0,0,0,0,0c-0.5,0-1,0-1.4-0.1l-0.7-0.2c-0.7-0.1-1.3-0.3-1.9-0.5l-0.4-0.2c-0.5-0.2-0.9-0.4-1.3-0.6
            c-0.8-0.5-1.5-1.1-2.3-1.8c-0.5-0.4-1-0.9-1.5-1.4l-0.7-0.6c-0.2-0.2-0.6-0.3-0.8-0.3c-0.3,0-0.6,0.1-0.8,0.4
            c-0.6,0.6-0.7,1.5-0.4,2.3C67,60.4,68.4,63.3,68.9,63.9z"/>
        <path id="XMLID_5_" class="st0" d="M111.3,88.9c0-1.6-0.2-3-0.6-4.3l0-0.2c0-0.2-0.1-0.5-0.1-0.7c-0.1-0.2-0.1-0.5-0.2-0.7
            c-0.1-0.4-0.2-0.8-0.3-1.2c0-0.1,0-0.5-0.3-0.7c0-0.1-0.1-0.3-0.1-0.4l-0.3-0.7c-0.2-0.6-0.5-1.1-0.8-1.7
            c-0.1-0.1-0.1-0.3-0.2-0.4c-0.2-0.3-0.3-0.7-0.6-0.9l-0.3-0.4c-0.3-0.4-0.7-0.9-1-1.3l-0.3-0.4c-0.3-0.3-0.5-0.6-0.8-0.8
            c-0.6-0.6-1.4-1.2-2.4-1.9c-1-0.7-2-1.2-3.2-1.5c-1-0.3-2.1-0.5-3.2-0.6c-1,0-1.9-0.1-2.9,0.2c-0.2,0.1-0.4,0.1-0.7,0.1
            c-0.2,0-0.4,0.1-0.6,0.1c-0.9,0.2-1.6,0.5-2.3,0.8c-0.1,0-0.2,0.1-0.2,0.1c-0.3,0.1-0.6,0.2-0.8,0.4l-0.4,0.2
            c-0.6,0.4-1.3,0.8-1.9,1.3c-0.2,0.1-0.3,0.2-0.4,0.3c0,0-0.1,0.1-0.1,0.1L86,73.9L85.9,74c-0.1,0.1-0.2,0.1-0.2,0.2
            c-0.5,0.5-0.9,1.1-1.4,1.6c-0.6,0.7-1,1.4-1.4,2.1c-0.2,0.4-0.4,0.8-0.6,1.3c-0.1,0.3-0.2,0.5-0.3,0.8c-0.2,0.5-0.4,0.9-0.6,1.4
            c-0.1,0.3-0.3,0.7-0.4,1c-0.3,0.6-0.6,1.2-0.9,1.8c-0.2,0.4-0.5,0.7-0.7,1.1c-0.2,0.3-0.5,0.6-0.8,0.9l-0.2,0.2
            c-0.3,0.4-0.7,0.6-1,0.9c-0.7,0.5-1.4,0.7-2,0.8c-0.5,0-1,0-1.5,0c-0.3,0-0.7-0.1-1.1-0.3c-0.7-0.3-1.5-0.7-2.2-1l-0.4-0.2
            c-0.2-0.1-0.5-0.3-0.8-0.4l0.2-0.1c0.3-0.2,0.5-0.4,0.7-0.7c0.5-0.5,0.9-1,1.4-1.5c0.5-0.7,1-1.4,1.4-2.2c0.1-0.2,0.2-0.4,0.3-0.6
            c0-0.1,0.1-0.2,0.1-0.3c0.4-0.7,0.6-1.5,0.7-2.2c0.3-1.7,0.2-3.1-0.1-4.4c-0.2-0.7-0.4-1.4-0.8-2.3L73,71.5
            c-0.1-0.2-0.2-0.5-0.4-0.8c-0.2-0.2-0.3-0.4-0.5-0.7c-0.2-0.3-0.4-0.5-0.5-0.8c-0.9-1.2-1.9-2.2-3.2-3.1c-0.2-0.3-0.5-0.4-0.7-0.5
            c-0.2-0.2-0.4-0.3-0.7-0.4c-0.2-0.1-0.3-0.1-0.5-0.2c-0.1-0.1-0.3-0.1-0.4-0.2l-0.3-0.1c-0.3-0.1-0.6-0.3-1.1-0.4
            c-0.7-0.3-1.4-0.4-2-0.5c-2-0.3-3.6-0.2-5.2,0.1c-1,0.2-2.2,0.5-3.3,0.9c-0.9,0.3-1.7,0.7-2.6,1.1c-0.5,0.2-1.1,0.5-1.5,0.8
            l-0.3,0.2c-0.3,0.2-0.6,0.3-0.8,0.5c-0.2,0.2-0.5,0.3-0.7,0.5c-0.4,0.3-0.9,0.6-1.3,0.9c-0.7,0.6-1.4,1.2-2,1.8
            c-0.6,0.6-0.8,1.3-0.6,2.2c0,0.2,0.1,0.3,0.2,0.5c0,0.1,0.1,0.2,0.1,0.3c0.1,0.4,0.3,0.7,0.4,1l0.1,0.3c0.2,0.6,0.6,1.1,0.9,1.7
            l0.2,0.3c0.3,0.5,0.6,1,1.1,1.6c0.5,0.7,1.1,1.3,1.7,1.9c0.5,0.5,1.2,1,2.3,0.4c0.2-0.1,0.4-0.2,0.6-0.4c0.1-0.1,0.3-0.2,0.4-0.3
            c0.5-0.3,1-0.6,1.5-0.9l0.8-0.5c0.8-0.5,1.6-0.9,2.5-1.3c0.8-0.4,1.6-0.7,2.6-0.9c0.8-0.2,1.5-0.4,2.3-0.4c1.7-0.1,3,0,4.2,0.8
            c0.9,0.6,1.4,1.4,1.6,2.3c0.1,0.9-0.2,1.7-1,2.3c-0.5,0.4-1.2,0.6-2,0.6c-0.7,0-1.3-0.1-2-0.1c-0.4,0-0.9-0.1-1.3-0.1l-0.4,0
            c-1.3-0.1-2.6-0.2-3.9,0.2c-1.1,0.3-1.7,1.2-1.4,2.2c0.1,0.5,0.3,1,0.4,1.5l0.2,0.6c0.2,0.8,0.5,1.6,0.8,2.6
            c0.1,0.3,0.2,0.6,0.4,0.9c0.1,0.2,0.2,0.5,0.3,0.7c0.1,0.3,0.3,0.6,0.4,0.9c0.2,0.5,0.7,0.7,1.2,0.7l0.5-0.1
            c0.2,0,0.4-0.1,0.6-0.1c0.2,0,0.5,0,0.7,0l0.3,0c0.2,0,0.3,0,0.5,0l0.6,0c0.3,0,0.6,0,0.9,0.1l0.2,0c0.2,0.1,0.5,0.1,0.6,0.1
            c0.2,0.1,0.5,0.2,0.6,0.2c0.1,0,0.2,0,0.3,0.1c0.7,0.3,1.3,0.7,1.8,1.1l0.9,0.9l0.2,0.3c0.3,0.5,0.6,0.9,0.8,1.4l0.1,0.3
            c0.1,0.4,0.3,0.8,0.3,1.2c0,0.7,0,1.3-0.1,1.8c-0.2,0.5-0.4,1-0.7,1.5c-0.3,0.4-0.7,0.8-1,1.2l-0.2,0.2c-0.7,0.7-1.6,1.2-2.3,1.6
            c-0.8,0.4-1.8,0.7-2.9,0.8c-1.5,0.1-2.8,0.1-4.1-0.1c-0.6-0.1-1.3-0.2-1.9-0.4l-0.7-0.1c-0.3-0.1-0.5-0.1-0.7-0.2
            c-0.3-0.2-0.7-0.3-1-0.4c-0.3-0.1-0.6-0.2-1-0.4c-0.7-0.3-1.3-0.7-1.8-1c-0.7-0.5-1.4-1.1-2-1.6c-0.7-0.7-1.3-1.5-1.8-2.2
            c-0.2-0.3-0.5-0.7-0.7-1l-0.3-0.5c-0.3-0.5-0.7-1-1-1.5l-0.4-0.6c-0.3-0.5-0.6-0.9-0.8-1.4l-0.3-0.5c-0.1-0.3-0.3-0.6-0.4-0.9
            c-0.1-0.2-0.2-0.4-0.3-0.7L42.7,91c0-0.1-0.1-0.2-0.2-0.3l-0.1-0.1c-0.2-0.4-0.4-0.8-0.6-1.2l-0.2-0.3c-0.3-0.5-0.5-1-0.8-1.3
            c-0.2-0.3-0.5-0.4-0.7-0.6c-0.3-0.2-0.7-0.2-1,0c-0.3,0.2-0.5,0.6-0.5,1c0,1.4,0.1,2.5,0.4,3.6l0.1,0.3c0.1,0.5,0.2,1,0.4,1.5
            l0,0.1c0.1,0.3,0.2,0.7,0.3,1c0.1,0.2,0.1,0.4,0.2,0.6c0,0.1,0.3,0.8,0.4,1.3l0.1,0.4c0.1,0.4,0.3,0.9,0.4,1.3
            c0.1,0.4,0.3,0.7,0.4,1.1c0.1,0.3,0.2,0.5,0.4,1c0.1,0.4,0.3,0.7,0.4,1l0.3,0.6c0.3,0.6,0.7,1.3,1.1,1.9c0.2,0.3,0.3,0.5,0.5,0.8
            c0.2,0.3,0.4,0.7,0.6,1c0.6,0.8,1.2,1.6,1.8,2.4c0.3,0.4,0.7,0.8,1,1.2l0.9,0.9c0.4,0.4,0.8,0.8,1.3,1.2c0.8,0.6,1.5,1.2,2.4,1.7
            c0.7,0.4,1.3,0.8,2,1.1c0.9,0.4,1.9,0.7,2.9,0.9c0.7,0.2,1.5,0.4,2.2,0.4c0.7,0,1.4,0,2.1,0c0.7,0,1.4,0,2.1,0
            c0.7,0,1.3-0.1,2-0.3c0.2,0,0.3-0.1,0.4-0.2l0.2-0.1c0.2-0.1,0.3-0.1,0.5-0.2l0.5-0.2c0.2-0.1,0.4-0.1,0.6-0.2l0.6-0.3
            c0.3-0.1,0.5-0.3,0.8-0.4c0.1-0.1,0.3-0.2,0.4-0.3c0.1-0.1,0.2-0.1,0.2-0.2l0.3-0.2c0.1-0.1,0.3-0.2,0.4-0.3
            c0.4-0.3,0.8-0.6,1.3-1c0.3-0.2,0.5-0.5,0.7-0.7c0.4-0.4,0.8-0.9,1.3-1.4c0.2-0.2,0.3-0.4,0.4-0.6c0.1-0.1,0.2-0.3,0.3-0.4
            c0.7-0.9,1.2-1.9,1.6-2.7c0.4-0.9,0.6-1.8,0.8-2.6l0.1-0.4c0.2-0.7,0.2-1.3,0.3-2l0-0.4c0.1-1.5,0.1-3-0.2-4.4c0-0.1,0-0.1,0-0.2
            c0.6,0.2,1.2,0.3,1.9,0.5c0.8,0.1,1.5,0.1,2.3,0.1l0.6,0c1.4,0,2.7-0.3,3.9-0.8c0.1,0,0.2-0.1,0.3-0.2c0.1-0.1,0.3-0.1,0.4-0.2
            c0.6-0.4,1-0.8,1.5-1.2l0.2-0.2c0.1-0.1,0.1-0.2,0.2-0.2c0.2-0.2,0.4-0.4,0.6-0.8l0.3-0.3c0.1-0.2,0.3-0.4,0.4-0.7
            c0.2-0.3,0.3-0.6,0.5-0.8c0.1-0.1,0.1-0.2,0.2-0.3c0.3-0.5,0.5-1.1,0.8-1.7c0.1-0.2,0.2-0.5,0.3-0.7l0.2-0.4
            c0.1-0.2,0.2-0.5,0.3-0.7l0.1-0.2c0.3-0.5,0.6-1,0.9-1.5c0.3-0.5,0.6-0.9,1.1-1.5c0.4-0.5,0.9-1,1.3-1.4c0.2-0.2,0.5-0.4,0.7-0.6
            l0.4-0.3c0.3-0.2,0.6-0.5,1.1-0.7c0.5-0.2,0.9-0.5,1.4-0.6c0.8-0.2,1.6-0.2,2.5-0.1c0.2,0,0.5,0,0.6,0.1l0.2,0.1
            c0.4,0.2,0.9,0.4,1.3,0.6c0.4,0.3,0.8,0.6,1.2,1c0.3,0.4,0.6,0.9,0.9,1.4c0.3,0.6,0.5,1.3,0.6,2.1c0.2,1.2,0.1,2.5-0.2,3.8
            l-0.1,0.3c0,0.1,0,0.2-0.1,0.3c-0.1,0.3-0.2,0.6-0.3,0.8l-0.3,0.9c-0.1,0.3-0.2,0.6-0.3,0.9c-0.2,0.5-0.5,1.1-0.8,1.6
            c-0.3,0.6-0.7,1.2-1.1,1.8c-0.4,0.6-0.9,1.4-1.6,2.1c-0.4,0.5-1,0.9-1.6,1.3c-0.2,0.2-0.5,0.3-0.8,0.4l-0.4,0.2
            c-0.8,0.4-1.6,0.7-2.4,0.9c-0.5,0.1-1,0.2-1.5,0.3c-1,0.1-1.9,0.1-2.7-0.1c-0.8-0.1-1.6-0.4-2.3-0.7c-0.3-0.1-0.7-0.3-1-0.4
            c-0.2-0.1-0.4-0.2-0.6-0.3c-0.5-0.2-1-0.5-1.6-0.8c-0.2-0.1-0.5-0.3-0.7-0.4L85.1,98c-0.5-0.2-0.9-0.5-1.5-0.6
            c-0.3-0.1-0.7-0.1-1,0.1c-0.3,0.2-0.4,0.6-0.4,1c-0.1,1.1-0.1,2.2,0.2,3.7l0,0.3c0,0.3,0.1,0.5,0.1,0.8l0.2,0.6
            c0.2,0.5,0.3,1.1,0.5,1.6l0.1,0.4c0.1,0.3,0.3,0.7,0.4,1l0.3,0.5c0.2,0.3,0.3,0.6,0.5,0.8c0.4,0.6,0.8,1.1,1.2,1.5
            c0.5,0.5,1,1,1.7,1.4c2.1,1.4,4.7,2.1,8.5,1.9c1.3,0,2.8-0.2,4.2-0.7c0.6-0.2,1.3-0.5,2-0.9l0.2-0.1c0.4-0.3,0.8-0.5,1.2-0.8
            c0.5-0.4,1.1-0.9,1.7-1.5c0.6-0.6,1.1-1.3,1.7-1.9c0.5-0.7,1-1.4,1.4-2.1c0.5-0.8,0.9-1.7,1.4-2.9c0.2-0.4,0.3-0.8,0.4-1.2
            l0.1-0.5c0.1-0.3,0.2-0.6,0.2-0.9c0.1-0.1,0.2-0.4,0.2-0.6l0-0.1c0-0.2,0.1-0.4,0.1-0.7c0.2-0.7,0.3-1.2,0.3-2
            c0.1-0.2,0.2-0.7,0.2-1.1c0.1-1.4,0.2-2.9,0.1-4.3l0-0.5C111.3,89.7,111.3,89.2,111.3,88.9z"/>
        <path id="XMLID_2_" class="st0" d="M0,0v150h150V0H0z M126.3,118.1c0,4.5-3.7,8.2-8.2,8.2H31.9c-4.5,0-8.2-3.7-8.2-8.2V71.7
            c0-4.5,2.9-10.4,6.4-13.2l38.4-29.8c1.8-1.4,4.1-2.1,6.4-2.1c2.3,0,4.7,0.7,6.4,2.1l38.4,29.8c3.5,2.8,6.4,8.7,6.4,13.2V118.1z"/>
    </g>
    <g>
        <path class="st0" d="M167,53.5c0-2.7,0.5-5.1,1.5-7.4c1-2.3,2.3-4.3,4-6c1.7-1.7,3.7-3,6.1-4c2.3-1,4.9-1.4,7.6-1.4
            c2.7,0,5.3,0.5,7.6,1.4c2.4,1,4.4,2.3,6.1,4c1.7,1.7,3.1,3.7,4,6s1.5,4.7,1.5,7.4c0,2.7-0.5,5.1-1.5,7.4c-1,2.3-2.3,4.3-4,6
            c-1.7,1.7-3.8,3-6.1,4c-2.4,1-4.9,1.5-7.6,1.5c-2.8,0-5.3-0.5-7.6-1.5c-2.3-1-4.4-2.3-6.1-4c-1.7-1.7-3.1-3.7-4-6
            C167.5,58.6,167,56.1,167,53.5z M186.2,60.5c1.8,0,3.3-0.7,4.7-2c1.3-1.4,2-3,2-5c0-2-0.7-3.7-2-5c-1.3-1.4-2.9-2-4.7-2
            c-1.8,0-3.3,0.7-4.7,2c-1.3,1.4-2,3-2,5c0,2,0.7,3.7,2,5C182.9,59.8,184.4,60.5,186.2,60.5z"/>
        <path class="st0" d="M219,35.4h9l2,3.5c0.8-0.8,1.7-1.5,2.7-2.1c0.8-0.6,1.8-1.1,3-1.5c1.1-0.4,2.4-0.7,3.8-0.7
            c1.8,0,3.3,0.2,4.5,0.7c1.2,0.5,2.2,1,3,1.6c0.9,0.7,1.7,1.5,2.3,2.4c0.8-0.9,1.8-1.7,2.9-2.4c0.9-0.6,2.1-1.1,3.4-1.6
            c1.3-0.5,2.7-0.7,4.3-0.7c3.8,0,6.8,1.3,9.1,3.8s3.5,6.2,3.5,11.1v22h-12.5V51.9c0-2-0.4-3.4-1.1-4.2c-0.7-0.8-1.7-1.3-2.9-1.3
            c-1.2,0-2.2,0.4-2.9,1.3c-0.7,0.8-1.1,2.2-1.1,4.2v19.6h-12.5V51.9c0-2-0.4-3.4-1.1-4.2c-0.7-0.8-1.7-1.3-2.9-1.3
            s-2.2,0.4-2.9,1.3c-0.7,0.8-1.1,2.2-1.1,4.2v19.6H219V35.4z"/>
        <path class="st0" d="M287,22.1h12.5v16.1c0.7-0.6,1.5-1.2,2.4-1.7c0.8-0.4,1.7-0.8,2.9-1.2c1.1-0.4,2.4-0.6,3.7-0.6
            c2.1,0,4.1,0.4,5.9,1.1c1.8,0.7,3.3,1.7,4.6,3.1c1.3,1.4,2.3,3,3,4.9c0.7,1.9,1.1,4.1,1.1,6.6v21.2h-12.5V52.7
            c0-2-0.5-3.5-1.6-4.6c-1-1.1-2.4-1.6-3.9-1.6c-1.6,0-2.9,0.5-3.9,1.6c-1,1.1-1.6,2.6-1.6,4.6v18.8H287V22.1z"/>
        <path class="st0" d="M337.4,25.6c0-1.8,0.6-3.3,1.8-4.5c1.2-1.2,2.8-1.8,4.8-1.8c2,0,3.6,0.6,4.8,1.8c1.2,1.2,1.8,2.7,1.8,4.5
            c0,1.8-0.6,3.3-1.8,4.5s-2.8,1.8-4.8,1.8c-2,0-3.6-0.6-4.8-1.8C338.1,28.9,337.4,27.4,337.4,25.6z M337.8,35.4h12.5v36.1h-12.5
            V35.4z"/>
        <path class="st0" d="M375.3,59.4c0.2,0.6,0.4,1.1,0.8,1.6c0.3,0.4,0.7,0.8,1.2,1.1c0.5,0.3,1.2,0.5,2,0.5c1.2,0,2.1-0.2,2.7-0.7
            c0.6-0.5,0.9-1,0.9-1.6c0-0.5-0.5-1-1.4-1.3c-0.9-0.3-2.1-0.7-3.4-1.1c-1.4-0.4-2.8-0.8-4.4-1.3c-1.6-0.5-3.1-1.2-4.4-2.1
            c-1.4-0.9-2.5-2-3.4-3.3c-0.9-1.3-1.4-3-1.4-5.1c0-1.5,0.3-2.9,1-4.2c0.7-1.4,1.6-2.6,2.9-3.6c1.3-1.1,2.8-1.9,4.7-2.5
            c1.9-0.6,4-0.9,6.3-0.9c5.1,0,8.9,1.1,11.4,3.2c2.6,2.1,4.2,4.8,5,8.2l-11.8,1.2c-0.2-0.5-0.4-0.9-0.6-1.3c-0.3-0.4-0.6-0.7-1.1-1
            c-0.4-0.3-1.1-0.4-1.8-0.4c-1.8,0-2.7,0.7-2.7,2c0,0.5,0.5,0.9,1.4,1.3c0.9,0.3,2.1,0.7,3.4,1c1.4,0.4,2.8,0.8,4.4,1.3
            c1.6,0.5,3.1,1.1,4.4,2c1.4,0.9,2.5,2,3.4,3.4c0.9,1.4,1.4,3.1,1.4,5.2c0,1.6-0.3,3.1-1,4.5c-0.7,1.4-1.7,2.7-3,3.8
            c-1.3,1.1-3,2-4.9,2.6c-1.9,0.6-4.2,0.9-6.7,0.9c-5.3,0-9.2-1.1-11.8-3.2c-2.6-2.1-4.3-5-5.1-8.5L375.3,59.4z M366.5,20.2h10.2
            l3.5,4.7l3.5-4.7H394l-8.2,11h-11L366.5,20.2z"/>
        <path class="st0" d="M434.7,68c-0.9,0.8-1.9,1.6-3,2.2c-0.9,0.6-2.1,1.1-3.3,1.5c-1.3,0.4-2.7,0.6-4.3,0.6c-2,0-4.1-0.5-6-1.5
            c-2-1-3.8-2.3-5.3-4c-1.5-1.7-2.8-3.7-3.7-6c-0.9-2.3-1.4-4.7-1.4-7.4c0-2.7,0.5-5.1,1.4-7.4c0.9-2.3,2.2-4.3,3.7-6
            c1.5-1.7,3.3-3,5.3-4c2-1,4-1.4,6-1.4c1.6,0,3,0.2,4.3,0.7c1.3,0.4,2.4,1,3.3,1.5c1.1,0.6,2.1,1.3,3,2.1l2-3.5h9v36.1h-9L434.7,68
            z M426.9,60.5c1.8,0,3.3-0.7,4.7-2s2-3,2-5c0-2-0.7-3.7-2-5c-1.3-1.4-2.9-2-4.7-2c-1.8,0-3.3,0.7-4.7,2c-1.3,1.4-2,3-2,5
            c0,2,0.7,3.7,2,5C423.6,59.8,425.1,60.5,426.9,60.5z"/>
    </g>
    <g>
        <path class="st0" d="M187.4,124c-0.5,0.6-1.1,1-1.8,1.5c-0.6,0.4-1.4,0.7-2.4,1s-2.1,0.4-3.4,0.4c-1.8,0-3.4-0.3-4.9-1
            c-1.5-0.7-2.9-1.6-4-2.8c-1.2-1.2-2.1-2.6-2.7-4.3s-1-3.5-1-5.5c0-2,0.3-3.8,1-5.5s1.6-3.1,2.7-4.3c1.2-1.2,2.5-2.1,4-2.8
            c1.5-0.7,3.2-1,4.9-1c1.3,0,2.5,0.2,3.4,0.5c1,0.3,1.8,0.6,2.4,1c0.7,0.4,1.3,0.9,1.8,1.5l1.2-2.6h3.8v26.5h-3.8L187.4,124z
             M180,122c1,0,2-0.2,2.9-0.6c0.9-0.4,1.7-1,2.4-1.8c0.7-0.8,1.3-1.7,1.7-2.7s0.6-2.2,0.6-3.4c0-1.3-0.2-2.4-0.6-3.4
            c-0.4-1-1-1.9-1.7-2.7c-0.7-0.8-1.5-1.4-2.4-1.8c-0.9-0.4-1.9-0.6-2.9-0.6c-1,0-2,0.2-2.9,0.6c-0.9,0.4-1.7,1-2.4,1.8
            c-0.7,0.8-1.3,1.7-1.7,2.7c-0.4,1-0.6,2.2-0.6,3.4c0,1.3,0.2,2.4,0.6,3.4s1,1.9,1.7,2.7c0.7,0.8,1.5,1.4,2.4,1.8
            C178.1,121.8,179,122,180,122z"/>
        <path class="st0" d="M198,100.2h3.8l1.2,2.6c0.5-0.5,1-1,1.7-1.5c0.5-0.4,1.2-0.7,2.1-1c0.8-0.3,1.8-0.5,3-0.5
            c0.3,0,0.6,0,0.8,0.1c0.2,0,0.4,0.1,0.5,0.1c0.2,0,0.3,0.1,0.5,0.1v5.3c-0.2,0-0.3-0.1-0.5-0.1c-0.2,0-0.4-0.1-0.6-0.1
            c-0.2,0-0.4-0.1-0.6-0.1c-0.9,0-1.7,0.2-2.5,0.5c-0.8,0.4-1.5,0.8-2.1,1.4c-0.6,0.6-1,1.3-1.4,2.1c-0.3,0.8-0.5,1.6-0.5,2.5v15
            H198V100.2z"/>
        <path class="st0" d="M215.1,89.6h5.3v13.2c0.5-0.5,1.2-1,1.9-1.5c0.6-0.4,1.4-0.7,2.3-1c0.9-0.3,2-0.5,3.1-0.5
            c1.4,0,2.8,0.3,4.1,0.9c1.3,0.6,2.4,1.4,3.4,2.4c1,1,1.7,2.2,2.3,3.6c0.5,1.4,0.8,3,0.8,4.6v15.3h-5.3v-15.3
            c0-0.9-0.2-1.7-0.5-2.5c-0.3-0.8-0.8-1.5-1.4-2.1c-0.6-0.6-1.2-1.1-2-1.4c-0.7-0.4-1.5-0.5-2.4-0.5c-0.9,0-1.7,0.2-2.5,0.5
            c-0.8,0.4-1.5,0.8-2.1,1.4c-0.6,0.6-1,1.3-1.4,2.1c-0.3,0.8-0.5,1.6-0.5,2.5v15.3h-5.3V89.6z"/>
        <path class="st0" d="M246.4,89.6c0.9,0,1.7,0.3,2.3,0.9c0.6,0.6,0.9,1.4,0.9,2.3c0,0.9-0.3,1.7-0.9,2.3c-0.6,0.6-1.4,0.9-2.3,0.9
            c-0.9,0-1.7-0.3-2.3-0.9c-0.6-0.6-0.9-1.4-0.9-2.3c0-0.9,0.3-1.7,0.9-2.3C244.7,89.9,245.5,89.6,246.4,89.6z M243.7,100.2h5.3
            v26.5h-5.3V100.2z"/>
        <path class="st0" d="M257,105.2h-4.7v-5h2.1c1,0,1.9-0.3,2.5-1c0.7-0.7,1-1.5,1-2.5v-3.5h4.4v7.1h5.9v5h-5.9v12.6
            c0,1.2,0.4,2.2,1.2,2.9c0.8,0.8,1.8,1.2,2.9,1.2c0.2,0,0.4,0,0.6,0c0.2,0,0.4,0,0.6-0.1c0.2,0,0.4-0.1,0.5-0.2v4.7
            c-0.2,0.1-0.5,0.2-0.8,0.3c-0.6,0.2-1.3,0.3-2.1,0.3c-1.2,0-2.3-0.2-3.3-0.6c-1-0.4-1.9-1-2.6-1.8c-0.7-0.8-1.3-1.7-1.7-2.9
            c-0.4-1.1-0.6-2.4-0.6-3.8V105.2z"/>
        <path class="st0" d="M295,119c-0.4,1.1-1,2.1-1.6,3.1c-0.7,1-1.5,1.8-2.4,2.5c-0.9,0.7-2,1.3-3.3,1.7c-1.2,0.4-2.6,0.6-4.1,0.6
            c-1.8,0-3.4-0.3-4.9-1c-1.5-0.7-2.9-1.6-4-2.8c-1.2-1.2-2.1-2.6-2.7-4.3s-1-3.5-1-5.5c0-2,0.3-3.8,1-5.5s1.5-3.1,2.6-4.3
            c1.1-1.2,2.4-2.1,3.9-2.8c1.5-0.7,3.1-1,4.8-1c1.7,0,3.3,0.3,4.8,1c1.5,0.7,2.8,1.6,3.9,2.8c1.1,1.2,2,2.6,2.6,4.3
            c0.6,1.6,1,3.5,1,5.5c0,0.3,0,0.6-0.1,0.9c0,0.3-0.1,0.5-0.1,0.7c0,0.3-0.1,0.5-0.1,0.7h-18.8c0.1,0.8,0.3,1.6,0.7,2.4
            s0.9,1.4,1.5,2c0.6,0.6,1.3,1,2.2,1.4c0.8,0.3,1.7,0.5,2.7,0.5c1.6,0,2.9-0.3,3.8-1c0.9-0.7,1.6-1.3,2.1-1.9H295z M290.6,111.4
            c-0.3-1.9-1.1-3.5-2.4-4.7c-1.3-1.2-2.9-1.8-5-1.8c-1.8,0-3.3,0.6-4.5,1.8c-1.2,1.2-2,2.8-2.3,4.7H290.6z"/>
        <path class="st0" d="M300,89.6h5.3v22l9.1-11.5h6.2l-10.3,12.3l11.8,14.1h-6.5L305.3,114v12.6H300V89.6z"/>
        <path class="st0" d="M326,105.2h-4.7v-5h2.1c1,0,1.9-0.3,2.5-1c0.7-0.7,1-1.5,1-2.5v-3.5h4.4v7.1h5.9v5h-5.9v12.6
            c0,1.2,0.4,2.2,1.2,2.9c0.8,0.8,1.8,1.2,2.9,1.2c0.2,0,0.4,0,0.6,0c0.2,0,0.4,0,0.6-0.1c0.2,0,0.4-0.1,0.5-0.2v4.7
            c-0.2,0.1-0.5,0.2-0.8,0.3c-0.6,0.2-1.3,0.3-2.1,0.3c-1.2,0-2.3-0.2-3.3-0.6c-1-0.4-1.9-1-2.6-1.8c-0.7-0.8-1.3-1.7-1.7-2.9
            c-0.4-1.1-0.6-2.4-0.6-3.8V105.2z"/>
        <path class="st0" d="M341.9,100.2h5.3v15.3c0,0.9,0.2,1.7,0.5,2.5c0.3,0.8,0.8,1.5,1.4,2.1c0.6,0.6,1.2,1,2,1.4
            c0.7,0.3,1.5,0.5,2.4,0.5c0.9,0,1.7-0.2,2.5-0.5c0.8-0.3,1.5-0.8,2.1-1.4c0.6-0.6,1.1-1.3,1.4-2.1c0.4-0.8,0.5-1.6,0.5-2.5v-15.3
            h5.3v26.5h-3.8l-1.2-2.6c-0.5,0.6-1.1,1-1.8,1.5c-0.6,0.4-1.4,0.7-2.4,1s-2.1,0.4-3.4,0.4c-1.5,0-2.9-0.3-4.1-0.8
            c-1.3-0.6-2.4-1.4-3.3-2.4c-1-1-1.7-2.2-2.3-3.6c-0.5-1.4-0.8-3-0.8-4.6V100.2z"/>
        <path class="st0" d="M370.8,100.2h3.8l1.2,2.6c0.5-0.5,1-1,1.7-1.5c0.5-0.4,1.2-0.7,2.1-1c0.8-0.3,1.8-0.5,3-0.5
            c0.3,0,0.6,0,0.8,0.1c0.2,0,0.4,0.1,0.5,0.1c0.2,0,0.3,0.1,0.5,0.1v5.3c-0.2,0-0.3-0.1-0.5-0.1c-0.2,0-0.4-0.1-0.6-0.1
            c-0.2,0-0.4-0.1-0.6-0.1c-0.9,0-1.7,0.2-2.5,0.5c-0.8,0.4-1.5,0.8-2.1,1.4c-0.6,0.6-1,1.3-1.4,2.1c-0.3,0.8-0.5,1.6-0.5,2.5v15
            h-5.3V100.2z"/>
        <path class="st0" d="M406.4,124c-0.5,0.6-1.1,1-1.8,1.5c-0.6,0.4-1.4,0.7-2.4,1c-1,0.3-2.1,0.4-3.4,0.4c-1.8,0-3.4-0.3-4.9-1
            c-1.5-0.7-2.9-1.6-4-2.8c-1.2-1.2-2.1-2.6-2.7-4.3s-1-3.5-1-5.5c0-2,0.3-3.8,1-5.5s1.6-3.1,2.7-4.3c1.2-1.2,2.5-2.1,4-2.8
            c1.5-0.7,3.2-1,4.9-1c1.3,0,2.5,0.2,3.4,0.5c1,0.3,1.8,0.6,2.4,1c0.7,0.4,1.3,0.9,1.8,1.5l1.2-2.6h3.8v26.5h-3.8L406.4,124z
             M399.1,122c1,0,2-0.2,2.9-0.6c0.9-0.4,1.7-1,2.4-1.8c0.7-0.8,1.3-1.7,1.7-2.7s0.6-2.2,0.6-3.4c0-1.3-0.2-2.4-0.6-3.4
            c-0.4-1-1-1.9-1.7-2.7c-0.7-0.8-1.5-1.4-2.4-1.8c-0.9-0.4-1.9-0.6-2.9-0.6c-1,0-2,0.2-2.9,0.6c-0.9,0.4-1.7,1-2.4,1.8
            c-0.7,0.8-1.3,1.7-1.7,2.7c-0.4,1-0.6,2.2-0.6,3.4c0,1.3,0.2,2.4,0.6,3.4s1,1.9,1.7,2.7c0.7,0.8,1.5,1.4,2.4,1.8
            C397.1,121.8,398,122,399.1,122z"/>
        <path class="st0" d="M416.2,131.1c0.4-0.3,0.8-0.6,1.1-1.1c0.3-0.4,0.6-0.8,0.9-1.3c0.3-0.5,0.5-1.1,0.6-1.8c-1,0-1.9-0.3-2.5-0.9
            s-1-1.4-1-2.3s0.3-1.7,0.9-2.3c0.6-0.6,1.4-0.9,2.3-0.9c0.9,0,1.7,0.3,2.3,1c0.6,0.7,0.9,1.5,0.9,2.5c0,1.5-0.2,2.8-0.7,3.8
            c-0.5,1-1,1.9-1.6,2.6c-0.7,0.8-1.5,1.4-2.4,1.9L416.2,131.1z"/>
        <path class="st0" d="M445.7,94.9h-11.2v-5.3h27.9v5.3h-11.2v31.7h-5.6V94.9z"/>
        <path class="st0" d="M480.7,124c-0.5,0.6-1.1,1-1.8,1.5c-0.6,0.4-1.4,0.7-2.4,1c-1,0.3-2.1,0.4-3.4,0.4c-1.8,0-3.4-0.3-4.9-1
            c-1.5-0.7-2.9-1.6-4-2.8c-1.2-1.2-2.1-2.6-2.7-4.3s-1-3.5-1-5.5c0-2,0.3-3.8,1-5.5s1.6-3.1,2.7-4.3c1.2-1.2,2.5-2.1,4-2.8
            c1.5-0.7,3.2-1,4.9-1c1.3,0,2.5,0.2,3.4,0.5c1,0.3,1.8,0.6,2.4,1c0.7,0.4,1.3,0.9,1.8,1.5l1.2-2.6h3.8v26.5h-3.8L480.7,124z
             M473.4,122c1,0,2-0.2,2.9-0.6c0.9-0.4,1.7-1,2.4-1.8c0.7-0.8,1.3-1.7,1.7-2.7s0.6-2.2,0.6-3.4c0-1.3-0.2-2.4-0.6-3.4
            c-0.4-1-1-1.9-1.7-2.7c-0.7-0.8-1.5-1.4-2.4-1.8c-0.9-0.4-1.9-0.6-2.9-0.6s-2,0.2-2.9,0.6c-0.9,0.4-1.7,1-2.4,1.8
            c-0.7,0.8-1.3,1.7-1.7,2.7c-0.4,1-0.6,2.2-0.6,3.4c0,1.3,0.2,2.4,0.6,3.4s1,1.9,1.7,2.7c0.7,0.8,1.5,1.4,2.4,1.8
            C471.4,121.8,472.4,122,473.4,122z"/>
        <path class="st0" d="M510.2,124c-0.5,0.6-1.1,1-1.8,1.5c-0.6,0.4-1.4,0.7-2.4,1c-1,0.3-2.1,0.4-3.4,0.4c-1.8,0-3.4-0.3-4.9-1
            c-1.5-0.7-2.9-1.6-4-2.8c-1.2-1.2-2.1-2.6-2.7-4.3s-1-3.5-1-5.5c0-2,0.3-3.8,1-5.5s1.6-3.1,2.7-4.3c1.2-1.2,2.5-2.1,4-2.8
            c1.5-0.7,3.2-1,4.9-1c1.3,0,2.3,0.2,3.2,0.5c0.9,0.3,1.7,0.6,2.3,1c0.7,0.4,1.3,0.9,1.8,1.5V89.6h5.3v37h-3.8L510.2,124z
             M502.8,122c1,0,2-0.2,2.9-0.6c0.9-0.4,1.7-1,2.4-1.8c0.7-0.8,1.3-1.7,1.7-2.7s0.6-2.2,0.6-3.4c0-1.3-0.2-2.4-0.6-3.4
            c-0.4-1-1-1.9-1.7-2.7c-0.7-0.8-1.5-1.4-2.4-1.8c-0.9-0.4-1.9-0.6-2.9-0.6c-1,0-2,0.2-2.9,0.6c-0.9,0.4-1.7,1-2.4,1.8
            c-0.7,0.8-1.3,1.7-1.7,2.7c-0.4,1-0.6,2.2-0.6,3.4c0,1.3,0.2,2.4,0.6,3.4s1,1.9,1.7,2.7c0.7,0.8,1.5,1.4,2.4,1.8
            C500.8,121.8,501.8,122,502.8,122z"/>
        <path class="st0" d="M543.8,119c-0.4,1.1-1,2.1-1.6,3.1c-0.7,1-1.5,1.8-2.4,2.5c-0.9,0.7-2,1.3-3.3,1.7c-1.2,0.4-2.6,0.6-4.1,0.6
            c-1.8,0-3.4-0.3-4.9-1c-1.5-0.7-2.9-1.6-4-2.8c-1.2-1.2-2.1-2.6-2.7-4.3c-0.6-1.6-1-3.5-1-5.5c0-2,0.3-3.8,1-5.5
            c0.6-1.6,1.5-3.1,2.6-4.3c1.1-1.2,2.4-2.1,3.9-2.8c1.5-0.7,3.1-1,4.8-1c1.7,0,3.3,0.3,4.8,1c1.5,0.7,2.8,1.6,3.9,2.8
            c1.1,1.2,2,2.6,2.6,4.3c0.6,1.6,1,3.5,1,5.5c0,0.3,0,0.6-0.1,0.9s-0.1,0.5-0.1,0.7c0,0.3-0.1,0.5-0.1,0.7h-18.8
            c0.1,0.8,0.3,1.6,0.7,2.4c0.4,0.7,0.9,1.4,1.5,2c0.6,0.6,1.3,1,2.2,1.4c0.8,0.3,1.7,0.5,2.7,0.5c1.6,0,2.9-0.3,3.8-1
            c0.9-0.7,1.6-1.3,2.1-1.9H543.8z M539.3,111.4c-0.3-1.9-1.1-3.5-2.4-4.7c-1.3-1.2-2.9-1.8-5-1.8c-1.8,0-3.3,0.6-4.5,1.8
            c-1.2,1.2-2,2.8-2.3,4.7H539.3z"/>
        <path class="st0" d="M542.6,131.1c0.2,0.1,0.3,0.1,0.5,0.2c0.2,0,0.4,0.1,0.6,0.1c0.2,0,0.4,0,0.6,0c1.2,0,2.2-0.4,2.9-1.2
            c0.8-0.8,1.2-1.8,1.2-2.9v-27h5.3v27c0,1.4-0.2,2.7-0.6,3.8c-0.4,1.1-1,2.1-1.7,2.9c-0.7,0.8-1.6,1.4-2.6,1.8
            c-1,0.4-2.1,0.6-3.3,0.6c-0.8,0-1.5-0.1-2.1-0.3c-0.3-0.1-0.6-0.2-0.8-0.3V131.1z M551.2,96.1c-0.9,0-1.7-0.3-2.3-0.9
            c-0.6-0.6-0.9-1.4-0.9-2.3c0-0.9,0.3-1.7,0.9-2.3c0.6-0.6,1.4-0.9,2.3-0.9c0.9,0,1.7,0.3,2.3,0.9c0.6,0.6,0.9,1.4,0.9,2.3
            c0,0.9-0.3,1.7-0.9,2.3C552.8,95.8,552.1,96.1,551.2,96.1z"/>
        <path class="st0" d="M571.9,89.6h14.7c1.5,0,2.8,0.3,4.1,0.8c1.3,0.5,2.4,1.3,3.4,2.2c1,0.9,1.7,2,2.3,3.3c0.5,1.2,0.8,2.6,0.8,4
            c0,1.2-0.2,2.2-0.6,3.1c-0.4,0.9-0.9,1.6-1.3,2.2c-0.5,0.7-1.2,1.3-1.9,1.8c1,0.5,1.9,1.3,2.6,2.1c0.7,0.7,1.3,1.7,1.8,2.8
            c0.5,1.1,0.8,2.5,0.8,4.2c0,1.4-0.3,2.8-0.9,4c-0.6,1.3-1.4,2.4-2.5,3.3c-1.1,1-2.3,1.7-3.7,2.3c-1.4,0.6-3,0.9-4.7,0.9h-15V89.6z
             M586.6,104.9c1.5,0,2.7-0.5,3.8-1.5c1-1,1.5-2.2,1.5-3.5c0-1.3-0.5-2.5-1.5-3.5c-1-1-2.3-1.5-3.8-1.5h-9.1v10H586.6z
             M586.9,121.4c0.9,0,1.7-0.2,2.4-0.5c0.8-0.3,1.4-0.7,2-1.3c0.5-0.5,1-1.1,1.3-1.9c0.3-0.7,0.5-1.5,0.5-2.3s-0.2-1.6-0.5-2.3
            c-0.3-0.7-0.7-1.3-1.3-1.9c-0.5-0.5-1.2-1-2-1.3c-0.8-0.3-1.6-0.5-2.4-0.5h-9.4v11.8H586.9z"/>
        <path class="st0" d="M621.6,124c-0.5,0.6-1.1,1-1.8,1.5c-0.6,0.4-1.4,0.7-2.4,1c-1,0.3-2.1,0.4-3.4,0.4c-1.8,0-3.4-0.3-4.9-1
            c-1.5-0.7-2.9-1.6-4-2.8c-1.2-1.2-2.1-2.6-2.7-4.3c-0.6-1.6-1-3.5-1-5.5c0-2,0.3-3.8,1-5.5c0.6-1.6,1.6-3.1,2.7-4.3
            c1.2-1.2,2.5-2.1,4-2.8c1.5-0.7,3.2-1,4.9-1c1.3,0,2.5,0.2,3.4,0.5c1,0.3,1.8,0.6,2.4,1c0.7,0.4,1.3,0.9,1.8,1.5l1.2-2.6h3.8v26.5
            h-3.8L621.6,124z M614.2,122c1,0,2-0.2,2.9-0.6c0.9-0.4,1.7-1,2.4-1.8c0.7-0.8,1.3-1.7,1.7-2.7s0.6-2.2,0.6-3.4
            c0-1.3-0.2-2.4-0.6-3.4c-0.4-1-1-1.9-1.7-2.7c-0.7-0.8-1.5-1.4-2.4-1.8c-0.9-0.4-1.9-0.6-2.9-0.6c-1,0-2,0.2-2.9,0.6
            c-0.9,0.4-1.7,1-2.4,1.8c-0.7,0.8-1.3,1.7-1.7,2.7c-0.4,1-0.6,2.2-0.6,3.4c0,1.3,0.2,2.4,0.6,3.4s1,1.9,1.7,2.7
            c0.7,0.8,1.5,1.4,2.4,1.8C612.3,121.8,613.2,122,614.2,122z"/>
        <path class="st0" d="M626.4,131.1c0.2,0.1,0.3,0.1,0.5,0.2c0.2,0,0.4,0.1,0.6,0.1c0.2,0,0.4,0,0.6,0c1.2,0,2.2-0.4,2.9-1.2
            c0.8-0.8,1.2-1.8,1.2-2.9v-27h5.3v27c0,1.4-0.2,2.7-0.6,3.8c-0.4,1.1-1,2.1-1.7,2.9c-0.7,0.8-1.6,1.4-2.6,1.8
            c-1,0.4-2.1,0.6-3.3,0.6c-0.8,0-1.5-0.1-2.1-0.3c-0.3-0.1-0.6-0.2-0.8-0.3V131.1z M634.9,96.1c-0.9,0-1.7-0.3-2.3-0.9
            c-0.6-0.6-0.9-1.4-0.9-2.3c0-0.9,0.3-1.7,0.9-2.3c0.6-0.6,1.4-0.9,2.3-0.9c0.9,0,1.7,0.3,2.3,0.9c0.6,0.6,0.9,1.4,0.9,2.3
            c0,0.9-0.3,1.7-0.9,2.3C636.6,95.8,635.8,96.1,634.9,96.1z"/>
        <path class="st0" d="M662,124c-0.5,0.6-1.1,1-1.8,1.5c-0.6,0.4-1.4,0.7-2.4,1s-2.1,0.4-3.4,0.4c-1.8,0-3.4-0.3-4.9-1
            c-1.5-0.7-2.9-1.6-4-2.8c-1.2-1.2-2.1-2.6-2.7-4.3c-0.6-1.6-1-3.5-1-5.5c0-2,0.3-3.8,1-5.5c0.6-1.6,1.6-3.1,2.7-4.3
            c1.2-1.2,2.5-2.1,4-2.8c1.5-0.7,3.2-1,4.9-1c1.3,0,2.3,0.2,3.2,0.5c0.9,0.3,1.7,0.6,2.3,1c0.7,0.4,1.3,0.9,1.8,1.5V89.6h5.3v37
            h-3.8L662,124z M654.6,122c1,0,2-0.2,2.9-0.6c0.9-0.4,1.7-1,2.4-1.8c0.7-0.8,1.3-1.7,1.7-2.7s0.6-2.2,0.6-3.4
            c0-1.3-0.2-2.4-0.6-3.4c-0.4-1-1-1.9-1.7-2.7c-0.7-0.8-1.5-1.4-2.4-1.8c-0.9-0.4-1.9-0.6-2.9-0.6s-2,0.2-2.9,0.6
            c-0.9,0.4-1.7,1-2.4,1.8c-0.7,0.8-1.3,1.7-1.7,2.7c-0.4,1-0.6,2.2-0.6,3.4c0,1.3,0.2,2.4,0.6,3.4s1,1.9,1.7,2.7
            c0.7,0.8,1.5,1.4,2.4,1.8C652.6,121.8,653.6,122,654.6,122z"/>
        <path class="st0" d="M691.7,124c-0.5,0.6-1.1,1-1.8,1.5c-0.6,0.4-1.4,0.7-2.4,1c-1,0.3-2.1,0.4-3.4,0.4c-1.8,0-3.4-0.3-4.9-1
            c-1.5-0.7-2.9-1.6-4-2.8c-1.2-1.2-2.1-2.6-2.7-4.3c-0.6-1.6-1-3.5-1-5.5c0-2,0.3-3.8,1-5.5c0.6-1.6,1.6-3.1,2.7-4.3
            c1.2-1.2,2.5-2.1,4-2.8c1.5-0.7,3.2-1,4.9-1c1.3,0,2.5,0.2,3.4,0.5c1,0.3,1.8,0.6,2.4,1c0.7,0.4,1.3,0.9,1.8,1.5l1.2-2.6h3.8v26.5
            h-3.8L691.7,124z M684.4,122c1,0,2-0.2,2.9-0.6c0.9-0.4,1.7-1,2.4-1.8c0.7-0.8,1.3-1.7,1.7-2.7s0.6-2.2,0.6-3.4
            c0-1.3-0.2-2.4-0.6-3.4c-0.4-1-1-1.9-1.7-2.7c-0.7-0.8-1.5-1.4-2.4-1.8c-0.9-0.4-1.9-0.6-2.9-0.6s-2,0.2-2.9,0.6
            c-0.9,0.4-1.7,1-2.4,1.8c-0.7,0.8-1.3,1.7-1.7,2.7c-0.4,1-0.6,2.2-0.6,3.4c0,1.3,0.2,2.4,0.6,3.4s1,1.9,1.7,2.7
            c0.7,0.8,1.5,1.4,2.4,1.8C682.4,121.8,683.4,122,684.4,122z"/>
        <path class="st0" d="M717.7,118.1c0.2,1.2,0.6,2.1,1.4,2.8c0.7,0.7,1.9,1,3.4,1c1.6,0,2.8-0.3,3.6-0.9c0.7-0.6,1.1-1.4,1.1-2.3
            c0-0.8-0.4-1.4-1.1-1.8c-0.7-0.4-1.6-0.8-2.6-1c-1-0.3-2.2-0.6-3.4-0.9s-2.3-0.7-3.4-1.3c-1-0.5-1.9-1.3-2.6-2.2
            c-0.7-0.9-1.1-2.2-1.1-3.7c0-1.1,0.2-2.1,0.6-3.1c0.4-1,1-1.8,1.8-2.5c0.8-0.7,1.7-1.3,2.9-1.7c1.1-0.4,2.4-0.6,3.8-0.6
            c3.1,0,5.4,0.7,7.1,2.2c1.6,1.5,2.5,3.5,2.6,6h-5.3c-0.2-0.9-0.6-1.7-1.3-2.3c-0.7-0.6-1.8-0.9-3.1-0.9c-1.3,0-2.4,0.3-3.1,0.9
            c-0.7,0.6-1.1,1.3-1.1,2c0,0.8,0.4,1.4,1.1,1.8c0.7,0.4,1.6,0.8,2.6,1c1,0.3,2.2,0.6,3.4,0.9c1.2,0.3,2.3,0.7,3.4,1.3
            c1,0.6,1.9,1.3,2.6,2.2c0.7,0.9,1.1,2.2,1.1,3.7c0,2.4-0.8,4.3-2.5,5.9c-1.7,1.6-4.1,2.3-7.2,2.3c-3.3,0-5.7-0.8-7.3-2.3
            c-1.6-1.5-2.5-3.7-2.7-6.5H717.7z"/>
        <path class="st0" d="M734.5,123.4c0-0.9,0.3-1.7,0.9-2.3c0.6-0.6,1.4-0.9,2.3-0.9c0.9,0,1.7,0.3,2.3,0.9c0.6,0.6,0.9,1.4,0.9,2.3
            c0,0.9-0.3,1.7-0.9,2.3c-0.6,0.6-1.4,0.9-2.3,0.9c-0.9,0-1.7-0.3-2.3-0.9C734.9,125,734.5,124.3,734.5,123.4z"/>
        <path class="st0" d="M744.9,100.2h3.8l1.2,2.6c0.5-0.5,1.1-1,1.8-1.5c0.6-0.4,1.4-0.7,2.4-1c1-0.3,2.1-0.5,3.4-0.5
            c1.8,0,3.4,0.3,4.9,1c1.5,0.7,2.9,1.6,4,2.8c1.2,1.2,2.1,2.6,2.7,4.3c0.6,1.6,1,3.5,1,5.5c0,2-0.3,3.8-1,5.5
            c-0.6,1.6-1.6,3.1-2.7,4.3c-1.2,1.2-2.5,2.1-4,2.8c-1.5,0.7-3.2,1-4.9,1c-1.3,0-2.3-0.1-3.2-0.4c-0.9-0.3-1.7-0.6-2.3-1
            c-0.7-0.4-1.3-0.9-1.8-1.5v12.1h-5.3V100.2z M757.2,122c1,0,2-0.2,2.9-0.6c0.9-0.4,1.7-1,2.4-1.8c0.7-0.8,1.3-1.7,1.7-2.7
            s0.6-2.2,0.6-3.4c0-1.3-0.2-2.4-0.6-3.4c-0.4-1-1-1.9-1.7-2.7c-0.7-0.8-1.5-1.4-2.4-1.8s-1.9-0.6-2.9-0.6c-1,0-2,0.2-2.9,0.6
            s-1.7,1-2.4,1.8c-0.7,0.8-1.3,1.7-1.7,2.7c-0.4,1-0.6,2.2-0.6,3.4c0,1.3,0.2,2.4,0.6,3.4s1,1.9,1.7,2.7c0.7,0.8,1.5,1.4,2.4,1.8
            C755.2,121.8,756.2,122,757.2,122z"/>
        <path class="st0" d="M772.6,123.4c0-0.9,0.3-1.7,0.9-2.3c0.6-0.6,1.4-0.9,2.3-0.9c0.9,0,1.7,0.3,2.3,0.9c0.6,0.6,0.9,1.4,0.9,2.3
            c0,0.9-0.3,1.7-0.9,2.3c-0.6,0.6-1.4,0.9-2.3,0.9c-0.9,0-1.7-0.3-2.3-0.9C772.9,125,772.6,124.3,772.6,123.4z"/>
    </g>
</g>
</svg>

