<?xml version="1.0" encoding="utf-8"?>
<!-- Generator: Adobe Illustrator 19.0.0, SVG Export Plug-In . SVG Version: 6.00 Build 0)  -->
<svg version="1.1" id="Layer_1" xmlns="http://www.w3.org/2000/svg" xmlns:xlink="http://www.w3.org/1999/xlink" x="0px" y="0px"
	 viewBox="0 0 710 150" style="enable-background:new 0 0 710 150;" xml:space="preserve">
<style type="text/css">
	.st0{fill:#282525;}
</style>
<g id="XMLID_1_">
	<g id="XMLID_407_">
		<path id="XMLID_762_" class="st0" d="M68.7,64.1c0.2,0.2,0.4,0.5,0.5,0.7c0.1,0.2,0.3,0.4,0.4,0.6c0.3,0.4,0.7,0.8,1,1.2l0.5,0.5
			c0.5,0.5,1,1,1.5,1.4c0.6,0.5,1.2,1,1.8,1.3c0.6,0.4,1.3,0.8,2.1,1.1c0.9,0.4,1.8,0.6,2.6,0.7c0.8,0.1,1.6,0.2,2.3,0.2
			c1,0,1.9-0.1,2.8-0.3c0.6,0,1.1-0.2,1.7-0.4c0,0,0.1,0,0.1,0c0.2,0,0.4-0.1,0.5-0.2c0.4-0.1,0.7-0.2,1.1-0.4l0.4-0.1
			c0.5-0.2,0.9-0.4,1.3-0.6l0.9-0.5c0.3-0.1,0.6-0.2,0.8-0.4c0.2,0,0.3-0.1,0.4-0.2c0.3-0.1,0.5-0.3,0.5-0.3
			c0.6-0.3,1.2-0.8,1.7-1.2c0.6-0.5,1.3-1.1,1.9-1.8c0.2-0.2,0.5-0.5,0.6-1.1c0.1-0.8,0-1.6-0.3-2.4c0-0.1-0.1-0.3-0.2-0.4
			c-0.2-0.4-0.5-0.8-0.8-1.3c-0.2-0.4-0.5-0.7-0.7-1c-0.4-0.5-0.9-1-1.5-1.6c-0.3-0.3-0.7-0.6-1.1-0.8c-1.2-0.4-2.1,0.3-2.5,0.6
			c-0.4,0.3-0.7,0.6-1,0.9c-0.2,0.2-0.5,0.4-0.7,0.6c-0.6,0.5-1.2,1-1.9,1.5c-0.5,0.4-1.1,0.8-1.9,1.1c-0.3,0.1-0.5,0.2-0.8,0.3
			L82,62.2c-0.7,0.3-1.4,0.4-2,0.6l0.5-0.3c0.6-0.3,1.1-0.6,1.7-0.9c1.1-0.7,2.2-1.6,3.2-2.6c0.3-0.3,1.2-1.2,0.7-2.4
			c-0.2-0.5-0.4-1-0.7-1.4l-0.5-0.8c-0.4-0.6-0.9-1.3-1.4-1.9c-0.7-0.8-1.6-1.8-2.7-2.6c-0.6-0.4-1.1-0.5-1.6-0.4
			c-0.6,0.1-1.2,0.4-1.6,0.6l-0.2,0.1c-0.3,0.1-0.5,0.3-0.8,0.5L76.1,51c-0.5,0.3-1,0.7-1.6,1.2c-0.9,0.8-1.5,1.5-2,2.3l-0.1,0.1
			c-0.2,0.3-0.5,0.8-0.4,1.4c0,0.2,0,0.4,0.1,0.7c0.1,0.5,0.8,1.4,1.1,1.8c0.5,0.7,1.1,1.2,1.7,1.8c0.8,0.7,1.7,1.5,2.8,2.1
			c0.2,0.1,0.5,0.2,0.8,0.3c0,0,0,0,0,0c-0.5,0-1,0-1.4-0.1l-0.7-0.2c-0.7-0.1-1.3-0.3-1.8-0.5L74.2,62c-0.5-0.2-0.9-0.4-1.3-0.6
			c-0.8-0.5-1.5-1.1-2.3-1.8c-0.5-0.4-1-0.9-1.5-1.4l-0.7-0.6c-0.2-0.2-0.6-0.3-0.8-0.3c-0.3,0-0.6,0.1-0.8,0.4
			c-0.6,0.6-0.7,1.5-0.4,2.3C66.8,60.7,68.2,63.5,68.7,64.1z"/>
		<path id="XMLID_755_" class="st0" d="M111,89c0-1.6-0.2-3-0.6-4.2l0-0.2c0-0.2-0.1-0.5-0.1-0.7c-0.1-0.2-0.1-0.5-0.2-0.7
			c-0.1-0.4-0.2-0.8-0.3-1.2c0-0.1,0-0.5-0.3-0.7c0-0.1-0.1-0.3-0.1-0.4l-0.3-0.7c-0.2-0.6-0.5-1.1-0.8-1.7
			c-0.1-0.1-0.1-0.3-0.2-0.4c-0.2-0.3-0.3-0.7-0.6-0.9l-0.3-0.4c-0.3-0.4-0.7-0.9-1-1.3l-0.3-0.4c-0.3-0.3-0.5-0.6-0.8-0.8
			c-0.6-0.6-1.4-1.2-2.4-1.9c-1-0.7-2-1.2-3.1-1.5c-1-0.3-2.1-0.5-3.2-0.6c-1,0-1.9-0.1-2.9,0.2c-0.2,0.1-0.4,0.1-0.7,0.1
			c-0.2,0-0.4,0.1-0.6,0.1c-0.9,0.2-1.6,0.5-2.3,0.8c-0.1,0-0.2,0.1-0.2,0.1c-0.3,0.1-0.6,0.2-0.8,0.4l-0.4,0.2
			c-0.6,0.4-1.3,0.8-1.9,1.3c-0.2,0.1-0.3,0.2-0.4,0.3c0,0-0.1,0.1-0.1,0.1l-0.1,0.1l-0.1,0.2c-0.1,0.1-0.2,0.1-0.2,0.2
			c-0.5,0.5-0.9,1.1-1.4,1.6c-0.6,0.7-1,1.4-1.4,2.1c-0.2,0.4-0.4,0.8-0.6,1.3c-0.1,0.3-0.2,0.5-0.3,0.8c-0.2,0.5-0.4,0.9-0.6,1.4
			c-0.1,0.3-0.3,0.6-0.4,1c-0.3,0.6-0.6,1.2-0.9,1.8c-0.2,0.4-0.5,0.7-0.7,1.1c-0.2,0.3-0.5,0.6-0.8,0.9l-0.2,0.2
			c-0.3,0.4-0.7,0.6-1,0.9c-0.7,0.5-1.4,0.7-2,0.8c-0.5,0-1,0-1.5,0c-0.3,0-0.7-0.1-1.1-0.3c-0.7-0.3-1.5-0.7-2.2-1l-0.4-0.2
			c-0.2-0.1-0.5-0.2-0.8-0.4l0.2-0.1c0.3-0.2,0.5-0.4,0.7-0.7c0.5-0.5,0.9-1,1.4-1.5c0.5-0.7,1-1.4,1.4-2.2c0.1-0.2,0.2-0.4,0.3-0.6
			c0-0.1,0.1-0.2,0.1-0.3c0.4-0.7,0.6-1.5,0.7-2.2c0.3-1.7,0.2-3.1-0.1-4.4c-0.2-0.7-0.4-1.4-0.8-2.3l-0.1-0.2
			c-0.1-0.2-0.2-0.5-0.4-0.8c-0.2-0.2-0.3-0.4-0.5-0.7c-0.2-0.3-0.4-0.5-0.5-0.8c-0.9-1.2-1.9-2.2-3.2-3.1c-0.2-0.3-0.5-0.4-0.7-0.5
			c-0.2-0.2-0.4-0.3-0.7-0.4c-0.2-0.1-0.3-0.1-0.5-0.2C66.2,65.1,66,65,65.9,65l-0.3-0.1c-0.3-0.1-0.6-0.3-1-0.4
			c-0.7-0.3-1.4-0.4-2-0.5c-2-0.2-3.6-0.2-5.1,0.1c-1,0.2-2.2,0.5-3.3,0.9c-0.9,0.3-1.7,0.7-2.6,1.1c-0.5,0.2-1.1,0.5-1.5,0.8
			l-0.3,0.2c-0.3,0.2-0.6,0.3-0.8,0.5c-0.2,0.2-0.4,0.3-0.7,0.5c-0.4,0.3-0.9,0.6-1.2,0.9c-0.7,0.6-1.4,1.2-2,1.8
			c-0.6,0.6-0.8,1.3-0.6,2.2c0,0.2,0.1,0.3,0.2,0.5c0,0.1,0.1,0.2,0.1,0.3c0.1,0.3,0.3,0.7,0.4,1l0.1,0.3c0.2,0.6,0.6,1.1,0.9,1.7
			l0.2,0.3c0.3,0.5,0.6,1,1.1,1.6c0.5,0.7,1.1,1.3,1.7,1.9c0.5,0.5,1.2,1,2.3,0.4c0.2-0.1,0.4-0.2,0.6-0.4c0.1-0.1,0.3-0.2,0.4-0.3
			c0.5-0.3,1-0.6,1.5-0.9l0.8-0.5c0.8-0.5,1.6-0.9,2.5-1.3c0.8-0.4,1.6-0.7,2.6-0.9c0.8-0.2,1.5-0.3,2.3-0.4c1.7-0.1,3,0,4.1,0.8
			c0.9,0.6,1.4,1.4,1.6,2.3c0.1,0.9-0.2,1.7-1,2.2c-0.5,0.4-1.2,0.6-2,0.6c-0.7,0-1.3-0.1-2-0.1c-0.4,0-0.9-0.1-1.3-0.1l-0.4,0
			c-1.3-0.1-2.6-0.2-3.9,0.2c-1.1,0.3-1.7,1.2-1.4,2.2c0.1,0.5,0.3,1,0.4,1.5l0.2,0.6c0.2,0.8,0.5,1.6,0.8,2.5
			c0.1,0.3,0.2,0.6,0.4,0.9c0.1,0.2,0.2,0.5,0.3,0.7c0.1,0.3,0.3,0.6,0.4,0.9c0.2,0.5,0.7,0.7,1.2,0.7l0.5-0.1
			c0.2,0,0.4-0.1,0.6-0.1c0.2,0,0.5,0,0.7,0l0.3,0c0.2,0,0.3,0,0.5,0l0.5,0c0.3,0,0.6,0,0.9,0.1l0.2,0c0.2,0.1,0.5,0.1,0.6,0.1
			c0.2,0.1,0.5,0.2,0.6,0.2c0.1,0,0.2,0,0.3,0.1c0.7,0.3,1.3,0.7,1.8,1.1l0.9,0.9l0.2,0.3c0.3,0.5,0.6,0.9,0.8,1.4l0.1,0.3
			c0.1,0.4,0.3,0.8,0.3,1.2c0,0.7,0,1.3-0.1,1.8c-0.2,0.5-0.4,1-0.7,1.5c-0.3,0.4-0.7,0.8-1,1.2l-0.2,0.2c-0.7,0.7-1.5,1.2-2.3,1.6
			c-0.8,0.4-1.8,0.7-2.9,0.8c-1.5,0.1-2.8,0.1-4.1-0.1c-0.6-0.1-1.3-0.2-1.9-0.4l-0.7-0.1c-0.3-0.1-0.5-0.1-0.7-0.2
			c-0.3-0.2-0.7-0.3-1-0.4c-0.3-0.1-0.6-0.2-1-0.4c-0.7-0.3-1.3-0.7-1.8-1c-0.7-0.5-1.4-1.1-2-1.6c-0.7-0.7-1.3-1.5-1.8-2.2
			c-0.2-0.3-0.5-0.7-0.7-1L46,97c-0.3-0.5-0.7-1-1-1.5l-0.4-0.6c-0.3-0.5-0.6-0.9-0.8-1.4l-0.3-0.5c-0.1-0.3-0.3-0.6-0.4-0.9
			c-0.1-0.2-0.2-0.4-0.3-0.7l-0.1-0.2c0-0.1-0.1-0.2-0.2-0.3l-0.1-0.1c-0.2-0.4-0.4-0.8-0.6-1.2l-0.2-0.3c-0.3-0.5-0.5-1-0.8-1.3
			c-0.2-0.3-0.5-0.4-0.7-0.6c-0.3-0.2-0.7-0.2-1,0c-0.3,0.2-0.5,0.6-0.5,1c0,1.4,0.1,2.5,0.4,3.6l0.1,0.3c0.1,0.5,0.2,1,0.4,1.5
			l0,0.1c0.1,0.3,0.2,0.7,0.3,1c0.1,0.2,0.1,0.4,0.2,0.6c0,0.1,0.3,0.8,0.4,1.3l0.1,0.4c0.1,0.4,0.3,0.9,0.4,1.3
			c0.1,0.4,0.3,0.7,0.4,1.1c0.1,0.3,0.2,0.5,0.4,1c0.1,0.4,0.3,0.7,0.4,1l0.3,0.6c0.3,0.6,0.7,1.3,1.1,1.9c0.2,0.3,0.3,0.5,0.5,0.8
			c0.2,0.3,0.4,0.7,0.6,1c0.6,0.8,1.2,1.6,1.8,2.4c0.3,0.4,0.7,0.8,1,1.2l0.9,0.9c0.4,0.4,0.8,0.8,1.3,1.2c0.7,0.6,1.5,1.2,2.4,1.7
			c0.7,0.4,1.3,0.8,2,1.1c0.9,0.4,1.9,0.7,2.9,0.9c0.7,0.2,1.5,0.4,2.2,0.4c0.7,0,1.4,0,2.1,0c0.7,0,1.4,0,2.1,0
			c0.7,0,1.3-0.1,2-0.3c0.2,0,0.3-0.1,0.4-0.2l0.2-0.1c0.2-0.1,0.3-0.1,0.5-0.2l0.5-0.2c0.2-0.1,0.4-0.1,0.6-0.2l0.6-0.3
			c0.3-0.1,0.5-0.3,0.8-0.4c0.1-0.1,0.3-0.2,0.4-0.3c0.1-0.1,0.2-0.1,0.2-0.2l0.3-0.2c0.1-0.1,0.3-0.2,0.4-0.3
			c0.4-0.3,0.8-0.6,1.3-1c0.3-0.2,0.5-0.5,0.7-0.7c0.4-0.4,0.8-0.9,1.3-1.4c0.2-0.2,0.3-0.4,0.4-0.6c0.1-0.1,0.2-0.3,0.3-0.4
			c0.7-0.9,1.2-1.9,1.6-2.7c0.4-0.9,0.6-1.8,0.8-2.6l0.1-0.4c0.2-0.7,0.2-1.3,0.3-1.9l0-0.4c0.1-1.5,0.1-3-0.2-4.4
			c0-0.1,0-0.1,0-0.2c0.6,0.2,1.2,0.3,1.9,0.5c0.8,0.1,1.5,0.1,2.3,0.1l0.6,0c1.4,0,2.7-0.3,3.9-0.8c0.1,0,0.2-0.1,0.3-0.2
			c0.1-0.1,0.3-0.1,0.4-0.2c0.6-0.3,1-0.8,1.5-1.2l0.2-0.2c0.1-0.1,0.1-0.2,0.2-0.2c0.2-0.2,0.4-0.4,0.6-0.8l0.3-0.3
			c0.1-0.2,0.3-0.4,0.4-0.7c0.2-0.3,0.3-0.6,0.5-0.8c0.1-0.1,0.1-0.2,0.2-0.3c0.3-0.5,0.5-1.1,0.8-1.7c0.1-0.2,0.2-0.5,0.3-0.7
			l0.2-0.4c0.1-0.2,0.2-0.5,0.3-0.7l0.1-0.2c0.3-0.5,0.6-1,0.9-1.5c0.3-0.5,0.6-0.9,1.1-1.5c0.4-0.5,0.9-1,1.3-1.4
			c0.2-0.2,0.5-0.4,0.7-0.6l0.4-0.3c0.3-0.2,0.6-0.5,1.1-0.7c0.5-0.2,0.9-0.5,1.4-0.6c0.8-0.2,1.6-0.2,2.5-0.1c0.2,0,0.5,0,0.6,0.1
			l0.2,0.1c0.4,0.2,0.9,0.4,1.3,0.6c0.4,0.3,0.8,0.6,1.2,1c0.3,0.4,0.6,0.9,0.9,1.4c0.3,0.6,0.5,1.3,0.6,2.1
			c0.2,1.2,0.1,2.5-0.2,3.8l-0.1,0.3c0,0.1,0,0.2-0.1,0.3c-0.1,0.3-0.2,0.5-0.3,0.8l-0.3,0.9c-0.1,0.3-0.2,0.6-0.3,0.9
			c-0.2,0.5-0.5,1.1-0.8,1.6c-0.3,0.6-0.7,1.2-1.1,1.8c-0.4,0.6-0.9,1.4-1.6,2.1c-0.4,0.5-1,0.8-1.6,1.3c-0.2,0.2-0.5,0.3-0.8,0.4
			l-0.4,0.2c-0.7,0.4-1.6,0.7-2.4,0.9c-0.5,0.1-1,0.2-1.5,0.3c-1,0.1-1.9,0.1-2.7-0.1c-0.8-0.1-1.6-0.4-2.3-0.7
			c-0.3-0.1-0.7-0.3-1-0.4c-0.2-0.1-0.4-0.2-0.6-0.3c-0.5-0.2-1-0.5-1.6-0.8c-0.2-0.1-0.5-0.3-0.7-0.4l-0.6-0.3
			c-0.4-0.2-0.9-0.5-1.5-0.6c-0.3-0.1-0.7-0.1-1,0.1c-0.3,0.2-0.4,0.6-0.4,1c-0.1,1.1-0.1,2.2,0.2,3.7l0,0.3c0,0.3,0.1,0.5,0.1,0.8
			l0.2,0.6c0.2,0.5,0.3,1.1,0.5,1.6l0.1,0.4c0.1,0.3,0.3,0.7,0.4,1l0.3,0.5c0.2,0.3,0.3,0.6,0.5,0.8c0.4,0.6,0.8,1.1,1.2,1.5
			c0.5,0.5,1,1,1.7,1.4c2.1,1.4,4.7,2.1,8.5,1.9c1.3,0,2.8-0.2,4.2-0.7c0.6-0.2,1.3-0.5,2-0.9l0.2-0.1c0.4-0.3,0.8-0.5,1.2-0.8
			c0.5-0.4,1.1-0.9,1.7-1.5c0.6-0.6,1.1-1.3,1.7-1.9c0.5-0.7,1-1.4,1.4-2.1c0.5-0.8,0.9-1.7,1.4-2.9c0.2-0.4,0.3-0.8,0.4-1.2
			l0.1-0.5c0.1-0.3,0.2-0.6,0.2-0.9c0.1-0.1,0.2-0.3,0.2-0.6l0-0.1c0-0.2,0.1-0.4,0.1-0.7c0.2-0.7,0.3-1.2,0.3-2
			c0.1-0.2,0.2-0.7,0.2-1.1c0.1-1.4,0.2-2.9,0.1-4.3l0-0.5C111.1,89.9,111.1,89.4,111,89z"/>
		<path id="XMLID_491_" class="st0" d="M0,0.4V150h149.6V0.4H0z M125.9,118.2c0,4.5-3.7,8.1-8.1,8.1H31.8c-4.5,0-8.1-3.7-8.1-8.1
			V71.9c0-4.5,2.9-10.4,6.4-13.1l38.2-29.7c1.8-1.4,4.1-2.1,6.4-2.1c2.3,0,4.7,0.7,6.4,2.1l38.2,29.7c3.5,2.7,6.4,8.7,6.4,13.1
			V118.2z"/>
	</g>
	<g id="XMLID_228_">
		<path id="XMLID_791_" class="st0" d="M166.6,58.3c0-2.7,0.5-5.1,1.4-7.4c1-2.3,2.3-4.2,4-5.9c1.7-1.7,3.7-3,6.1-4s4.9-1.4,7.6-1.4
			c2.7,0,5.2,0.5,7.6,1.4c2.3,1,4.4,2.3,6.1,4c1.7,1.7,3.1,3.7,4,5.9c1,2.3,1.4,4.7,1.4,7.4c0,2.7-0.5,5.1-1.4,7.4
			c-1,2.3-2.3,4.2-4,5.9c-1.7,1.7-3.8,3-6.1,4c-2.3,1-4.9,1.4-7.6,1.4c-2.8,0-5.3-0.5-7.6-1.4s-4.3-2.3-6.1-4
			c-1.7-1.7-3.1-3.7-4-5.9C167,63.5,166.6,61,166.6,58.3z M185.7,65.4c1.8,0,3.3-0.7,4.7-2c1.3-1.4,2-3,2-5c0-2-0.7-3.6-2-5
			c-1.3-1.4-2.9-2-4.7-2c-1.8,0-3.3,0.7-4.7,2c-1.3,1.4-2,3-2,5c0,2,0.7,3.6,2,5C182.4,64.7,183.9,65.4,185.7,65.4z"/>
		<path id="XMLID_1031_" class="st0" d="M218.4,40.4h9l2,3.5c0.8-0.8,1.7-1.5,2.7-2.1c0.8-0.6,1.8-1.1,3-1.5
			c1.1-0.4,2.4-0.7,3.8-0.7c1.8,0,3.3,0.2,4.5,0.7c1.2,0.5,2.2,1,3,1.6c0.9,0.7,1.7,1.5,2.3,2.3c0.8-0.9,1.8-1.7,2.9-2.3
			c0.9-0.6,2.1-1.1,3.4-1.6c1.3-0.5,2.7-0.7,4.3-0.7c3.8,0,6.8,1.3,9.1,3.8c2.3,2.5,3.4,6.2,3.4,11.1v21.9h-12.5V56.8
			c0-2-0.3-3.4-1.1-4.2c-0.7-0.8-1.7-1.3-2.9-1.3c-1.2,0-2.2,0.4-2.9,1.3c-0.7,0.8-1.1,2.2-1.1,4.2v19.5h-12.5V56.8
			c0-2-0.4-3.4-1.1-4.2c-0.7-0.8-1.7-1.3-2.9-1.3s-2.2,0.4-2.9,1.3c-0.7,0.8-1.1,2.2-1.1,4.2v19.5h-12.5V40.4z"/>
		<path id="XMLID_1086_" class="st0" d="M286.3,27.1h12.5v16c0.7-0.6,1.5-1.2,2.4-1.7c0.8-0.4,1.7-0.8,2.9-1.2
			c1.1-0.4,2.4-0.6,3.7-0.6c2.1,0,4.1,0.4,5.9,1.1c1.8,0.7,3.3,1.7,4.6,3.1c1.3,1.4,2.3,3,3,4.9s1.1,4.1,1.1,6.6v21.1h-12.5V57.6
			c0-2-0.5-3.5-1.6-4.6c-1-1.1-2.3-1.6-3.9-1.6c-1.6,0-2.9,0.5-3.9,1.6c-1,1.1-1.6,2.6-1.6,4.6v18.8h-12.5V27.1z"/>
		<path id="XMLID_1164_" class="st0" d="M336.5,30.6c0-1.8,0.6-3.3,1.8-4.5c1.2-1.2,2.8-1.8,4.8-1.8c2,0,3.6,0.6,4.8,1.8
			c1.2,1.2,1.8,2.7,1.8,4.5s-0.6,3.3-1.8,4.5c-1.2,1.2-2.8,1.8-4.8,1.8c-2,0-3.6-0.6-4.8-1.8C337.2,33.9,336.5,32.4,336.5,30.6z
			 M336.9,40.4h12.5v36h-12.5V40.4z"/>
		<path id="XMLID_1178_" class="st0" d="M374.3,64.2c0.2,0.6,0.4,1.1,0.8,1.6c0.3,0.4,0.6,0.8,1.2,1.1c0.5,0.3,1.2,0.5,2,0.5
			c1.2,0,2.1-0.2,2.7-0.7c0.6-0.5,0.9-1,0.9-1.6c0-0.5-0.5-1-1.4-1.3c-0.9-0.3-2-0.7-3.4-1.1c-1.4-0.4-2.8-0.8-4.4-1.3
			c-1.6-0.5-3.1-1.2-4.4-2.1c-1.4-0.9-2.5-2-3.4-3.3c-0.9-1.3-1.4-3-1.4-5c0-1.5,0.3-2.9,1-4.2c0.7-1.4,1.6-2.6,2.9-3.6
			c1.3-1.1,2.8-1.9,4.7-2.5c1.9-0.6,3.9-0.9,6.3-0.9c5.1,0,8.9,1.1,11.4,3.2c2.6,2.1,4.2,4.8,5,8.2l-11.7,1.2
			c-0.2-0.5-0.4-0.9-0.6-1.3c-0.3-0.4-0.6-0.7-1.1-1c-0.4-0.3-1.1-0.4-1.8-0.4c-1.8,0-2.7,0.7-2.7,2c0,0.5,0.5,0.9,1.4,1.3
			c0.9,0.3,2,0.7,3.4,1c1.4,0.4,2.8,0.8,4.4,1.3c1.6,0.5,3.1,1.1,4.4,2c1.4,0.9,2.5,2,3.4,3.4c0.9,1.4,1.4,3.1,1.4,5.2
			c0,1.6-0.3,3.1-1,4.5c-0.7,1.4-1.7,2.7-3,3.8c-1.3,1.1-3,2-4.9,2.6c-1.9,0.6-4.2,0.9-6.7,0.9c-5.3,0-9.2-1.1-11.8-3.2
			c-2.6-2.1-4.3-5-5-8.5L374.3,64.2z M365.5,25.1h10.2l3.5,4.7l3.5-4.7h10.2l-8.2,10.9h-10.9L365.5,25.1z"/>
		<path id="XMLID_1281_" class="st0" d="M433.6,72.8c-0.9,0.8-1.9,1.6-3,2.2c-0.9,0.6-2,1.1-3.3,1.5c-1.3,0.4-2.7,0.6-4.3,0.6
			c-2,0-4-0.5-6-1.4c-2-1-3.7-2.3-5.3-4c-1.5-1.7-2.8-3.7-3.7-5.9c-0.9-2.3-1.4-4.7-1.4-7.4c0-2.7,0.5-5.1,1.4-7.4
			c0.9-2.3,2.2-4.2,3.7-5.9c1.5-1.7,3.3-3,5.3-4c2-1,4-1.4,6-1.4c1.6,0,3,0.2,4.3,0.7c1.3,0.4,2.4,1,3.3,1.5c1.1,0.6,2.1,1.3,3,2.1
			l2-3.5h9v36h-9L433.6,72.8z M425.8,65.4c1.8,0,3.3-0.7,4.7-2c1.3-1.4,2-3,2-5c0-2-0.7-3.6-2-5c-1.3-1.4-2.9-2-4.7-2
			c-1.8,0-3.3,0.7-4.7,2c-1.3,1.4-2,3-2,5c0,2,0.7,3.6,2,5C422.4,64.7,424,65.4,425.8,65.4z"/>
	</g>
	<g id="XMLID_334_">
		<path id="XMLID_1302_" class="st0" d="M184.4,124.4c-0.5,0.5-1,0.9-1.6,1.3c-0.6,0.3-1.3,0.7-2.1,0.9c-0.8,0.3-1.9,0.4-3,0.4
			c-1.6,0-3-0.3-4.4-0.9c-1.4-0.6-2.5-1.4-3.6-2.5c-1-1.1-1.8-2.3-2.4-3.8c-0.6-1.5-0.9-3.1-0.9-4.8s0.3-3.4,0.9-4.8
			c0.6-1.5,1.4-2.7,2.4-3.8c1-1.1,2.2-1.9,3.6-2.5c1.4-0.6,2.8-0.9,4.4-0.9c1.2,0,2.2,0.1,3,0.4c0.9,0.3,1.6,0.6,2.1,0.9
			c0.6,0.4,1.2,0.8,1.6,1.3l1-2.3h3.4v23.5h-3.4L184.4,124.4z M177.9,122.6c0.9,0,1.8-0.2,2.6-0.5c0.8-0.4,1.5-0.9,2.2-1.6
			c0.6-0.7,1.1-1.5,1.5-2.4c0.4-0.9,0.5-1.9,0.5-3c0-1.1-0.2-2.1-0.5-3c-0.4-0.9-0.9-1.7-1.5-2.4c-0.6-0.7-1.3-1.2-2.2-1.6
			c-0.8-0.4-1.7-0.5-2.6-0.5s-1.8,0.2-2.6,0.5c-0.8,0.4-1.5,0.9-2.2,1.6c-0.6,0.7-1.1,1.5-1.5,2.4c-0.4,0.9-0.5,1.9-0.5,3
			c0,1.1,0.2,2.1,0.5,3c0.4,0.9,0.9,1.7,1.5,2.4c0.6,0.7,1.3,1.2,2.2,1.6C176.1,122.4,177,122.6,177.9,122.6z"/>
		<path id="XMLID_1305_" class="st0" d="M193.9,103.3h3.4l1,2.3c0.4-0.5,0.9-0.9,1.5-1.3c0.5-0.3,1.1-0.6,1.8-0.9
			c0.7-0.3,1.6-0.4,2.6-0.4c0.3,0,0.5,0,0.7,0.1c0.2,0,0.3,0.1,0.5,0.1c0.1,0,0.3,0.1,0.4,0.1v4.7c-0.1,0-0.3-0.1-0.5-0.1
			c-0.2,0-0.4-0.1-0.5-0.1c-0.2,0-0.4-0.1-0.5-0.1c-0.8,0-1.5,0.2-2.2,0.5c-0.7,0.3-1.3,0.7-1.8,1.3c-0.5,0.5-0.9,1.1-1.2,1.8
			s-0.4,1.4-0.4,2.2v13.3h-4.7V103.3z"/>
		<path id="XMLID_1307_" class="st0" d="M209,93.9h4.7v11.7c0.5-0.5,1-0.9,1.7-1.3c0.6-0.3,1.2-0.6,2.1-0.9c0.8-0.3,1.7-0.4,2.8-0.4
			c1.3,0,2.5,0.3,3.6,0.8c1.1,0.5,2.1,1.2,3,2.1c0.9,0.9,1.5,2,2,3.2c0.5,1.3,0.7,2.6,0.7,4.1v13.6h-4.7v-13.6
			c0-0.8-0.1-1.5-0.4-2.2c-0.3-0.7-0.7-1.3-1.2-1.8c-0.5-0.5-1.1-0.9-1.7-1.3c-0.7-0.3-1.4-0.5-2.1-0.5c-0.8,0-1.5,0.2-2.2,0.5
			c-0.7,0.3-1.3,0.7-1.8,1.3c-0.5,0.5-0.9,1.1-1.2,1.8c-0.3,0.7-0.4,1.4-0.4,2.2v13.6H209V93.9z"/>
		<path id="XMLID_1309_" class="st0" d="M236.7,93.9c0.8,0,1.5,0.3,2,0.8c0.6,0.6,0.8,1.2,0.8,2c0,0.8-0.3,1.5-0.8,2
			c-0.6,0.6-1.2,0.8-2,0.8c-0.8,0-1.5-0.3-2-0.8c-0.6-0.6-0.8-1.2-0.8-2c0-0.8,0.3-1.5,0.8-2C235.2,94.2,235.9,93.9,236.7,93.9z
			 M234.4,103.3h4.7v23.5h-4.7V103.3z"/>
		<path id="XMLID_1312_" class="st0" d="M246.1,107.7H242v-4.4h1.8c0.9,0,1.7-0.3,2.2-0.9c0.6-0.6,0.9-1.3,0.9-2.2V97h3.9v6.3h5.2
			v4.4h-5.2v11.2c0,1,0.3,1.9,1,2.6c0.7,0.7,1.6,1,2.6,1c0.2,0,0.4,0,0.5,0c0.2,0,0.4,0,0.5-0.1c0.2,0,0.3-0.1,0.5-0.2v4.2
			c-0.2,0.1-0.5,0.2-0.7,0.3c-0.5,0.2-1.1,0.3-1.9,0.3c-1,0-2-0.2-2.9-0.6c-0.9-0.4-1.7-0.9-2.3-1.6c-0.7-0.7-1.2-1.5-1.5-2.5
			c-0.4-1-0.5-2.1-0.5-3.4V107.7z"/>
		<path id="XMLID_1314_" class="st0" d="M279.8,120c-0.4,1-0.9,1.9-1.5,2.7c-0.6,0.9-1.3,1.6-2.1,2.2c-0.8,0.6-1.8,1.1-2.9,1.5
			c-1.1,0.4-2.3,0.5-3.7,0.5c-1.6,0-3-0.3-4.4-0.9s-2.5-1.4-3.6-2.5c-1-1.1-1.8-2.3-2.4-3.8c-0.6-1.5-0.9-3.1-0.9-4.8
			s0.3-3.4,0.9-4.8c0.6-1.5,1.4-2.7,2.3-3.8c1-1.1,2.2-1.9,3.5-2.5c1.3-0.6,2.8-0.9,4.2-0.9c1.5,0,2.9,0.3,4.2,0.9
			c1.3,0.6,2.5,1.4,3.5,2.5c1,1.1,1.8,2.3,2.3,3.8c0.6,1.5,0.9,3.1,0.9,4.8c0,0.3,0,0.5-0.1,0.8c0,0.3-0.1,0.5-0.1,0.7
			c0,0.2-0.1,0.5-0.1,0.6h-16.7c0.1,0.7,0.3,1.4,0.6,2.1c0.3,0.7,0.8,1.2,1.3,1.7c0.5,0.5,1.2,0.9,1.9,1.2c0.7,0.3,1.5,0.4,2.4,0.4
			c1.4,0,2.6-0.3,3.4-0.9c0.8-0.6,1.4-1.2,1.8-1.7H279.8z M275.9,113.2c-0.3-1.7-1-3.1-2.1-4.1c-1.1-1.1-2.6-1.6-4.4-1.6
			c-1.6,0-2.9,0.5-4,1.6c-1.1,1.1-1.8,2.4-2,4.1H275.9z"/>
		<path id="XMLID_1320_" class="st0" d="M284.3,93.9h4.7v19.5l8.1-10.2h5.5l-9.1,10.9l10.4,12.5h-5.7l-9.1-11.2v11.2h-4.7V93.9z"/>
		<path id="XMLID_1322_" class="st0" d="M307.3,107.7h-4.2v-4.4h1.8c0.9,0,1.7-0.3,2.2-0.9c0.6-0.6,0.9-1.3,0.9-2.2V97h3.9v6.3h5.2
			v4.4H312v11.2c0,1,0.3,1.9,1,2.6c0.7,0.7,1.6,1,2.6,1c0.2,0,0.4,0,0.5,0c0.2,0,0.4,0,0.5-0.1c0.2,0,0.3-0.1,0.5-0.2v4.2
			c-0.2,0.1-0.5,0.2-0.7,0.3c-0.5,0.2-1.1,0.3-1.9,0.3c-1,0-2-0.2-2.9-0.6c-0.9-0.4-1.7-0.9-2.3-1.6c-0.7-0.7-1.2-1.5-1.5-2.5
			c-0.4-1-0.5-2.1-0.5-3.4V107.7z"/>
		<path id="XMLID_1324_" class="st0" d="M321.4,103.3h4.7v13.6c0,0.8,0.1,1.5,0.4,2.2s0.7,1.3,1.2,1.8c0.5,0.5,1.1,0.9,1.7,1.2
			c0.7,0.3,1.4,0.4,2.1,0.4c0.8,0,1.5-0.1,2.2-0.4c0.7-0.3,1.3-0.7,1.8-1.2c0.5-0.5,0.9-1.1,1.3-1.8c0.3-0.7,0.5-1.4,0.5-2.2v-13.6
			h4.7v23.5h-3.4l-1-2.3c-0.5,0.5-1,0.9-1.6,1.3c-0.6,0.3-1.3,0.7-2.1,0.9c-0.9,0.3-1.9,0.4-3.1,0.4c-1.3,0-2.5-0.3-3.7-0.8
			c-1.1-0.5-2.1-1.2-3-2.1c-0.9-0.9-1.5-2-2-3.2c-0.5-1.3-0.7-2.6-0.7-4.1V103.3z"/>
		<path id="XMLID_1326_" class="st0" d="M347,103.3h3.4l1,2.3c0.4-0.5,0.9-0.9,1.5-1.3c0.5-0.3,1.1-0.6,1.8-0.9
			c0.7-0.3,1.6-0.4,2.6-0.4c0.3,0,0.5,0,0.7,0.1c0.2,0,0.3,0.1,0.5,0.1c0.1,0,0.3,0.1,0.4,0.1v4.7c-0.1,0-0.3-0.1-0.5-0.1
			c-0.2,0-0.4-0.1-0.5-0.1c-0.2,0-0.4-0.1-0.5-0.1c-0.8,0-1.5,0.2-2.2,0.5c-0.7,0.3-1.3,0.7-1.8,1.3c-0.5,0.5-0.9,1.1-1.2,1.8
			s-0.4,1.4-0.4,2.2v13.3H347V103.3z"/>
		<path id="XMLID_1328_" class="st0" d="M378.6,124.4c-0.5,0.5-1,0.9-1.6,1.3c-0.6,0.3-1.3,0.7-2.1,0.9c-0.8,0.3-1.9,0.4-3,0.4
			c-1.6,0-3-0.3-4.4-0.9s-2.5-1.4-3.6-2.5c-1-1.1-1.8-2.3-2.4-3.8c-0.6-1.5-0.9-3.1-0.9-4.8s0.3-3.4,0.9-4.8
			c0.6-1.5,1.4-2.7,2.4-3.8c1-1.1,2.2-1.9,3.6-2.5c1.4-0.6,2.8-0.9,4.4-0.9c1.2,0,2.2,0.1,3,0.4c0.9,0.3,1.6,0.6,2.1,0.9
			c0.6,0.4,1.2,0.8,1.6,1.3l1-2.3h3.4v23.5h-3.4L378.6,124.4z M372.1,122.6c0.9,0,1.8-0.2,2.6-0.5c0.8-0.4,1.5-0.9,2.2-1.6
			c0.6-0.7,1.1-1.5,1.5-2.4c0.4-0.9,0.5-1.9,0.5-3c0-1.1-0.2-2.1-0.5-3c-0.4-0.9-0.9-1.7-1.5-2.4c-0.6-0.7-1.3-1.2-2.2-1.6
			c-0.8-0.4-1.7-0.5-2.6-0.5c-0.9,0-1.8,0.2-2.6,0.5c-0.8,0.4-1.5,0.9-2.2,1.6c-0.6,0.7-1.1,1.5-1.5,2.4c-0.4,0.9-0.5,1.9-0.5,3
			c0,1.1,0.2,2.1,0.5,3c0.4,0.9,0.9,1.7,1.5,2.4c0.6,0.7,1.3,1.2,2.2,1.6C370.3,122.4,371.2,122.6,372.1,122.6z"/>
		<path id="XMLID_1331_" class="st0" d="M387.2,130.6c0.3-0.2,0.7-0.6,1-0.9c0.3-0.3,0.5-0.7,0.8-1.1c0.2-0.5,0.4-1,0.6-1.6
			c-0.9,0-1.7-0.3-2.2-0.8c-0.6-0.6-0.9-1.2-0.9-2c0-0.8,0.3-1.5,0.8-2c0.6-0.6,1.2-0.8,2-0.8c0.8,0,1.5,0.3,2,0.9
			c0.6,0.6,0.8,1.3,0.8,2.2c0,1.3-0.2,2.4-0.7,3.4c-0.4,0.9-0.9,1.7-1.4,2.3c-0.6,0.7-1.3,1.3-2.1,1.7L387.2,130.6z"/>
		<path id="XMLID_1333_" class="st0" d="M413.4,98.6h-9.9v-4.7h24.8v4.7h-9.9v28.1h-5V98.6z"/>
		<path id="XMLID_1335_" class="st0" d="M444.5,124.4c-0.5,0.5-1,0.9-1.6,1.3c-0.6,0.3-1.3,0.7-2.1,0.9c-0.8,0.3-1.9,0.4-3,0.4
			c-1.6,0-3-0.3-4.4-0.9c-1.4-0.6-2.5-1.4-3.6-2.5c-1-1.1-1.8-2.3-2.4-3.8c-0.6-1.5-0.9-3.1-0.9-4.8s0.3-3.4,0.9-4.8
			c0.6-1.5,1.4-2.7,2.4-3.8c1-1.1,2.2-1.9,3.6-2.5c1.4-0.6,2.8-0.9,4.4-0.9c1.2,0,2.2,0.1,3,0.4c0.9,0.3,1.6,0.6,2.1,0.9
			c0.6,0.4,1.2,0.8,1.6,1.3l1-2.3h3.4v23.5h-3.4L444.5,124.4z M437.9,122.6c0.9,0,1.8-0.2,2.6-0.5c0.8-0.4,1.5-0.9,2.2-1.6
			c0.6-0.7,1.1-1.5,1.5-2.4c0.4-0.9,0.5-1.9,0.5-3c0-1.1-0.2-2.1-0.5-3c-0.4-0.9-0.9-1.7-1.5-2.4c-0.6-0.7-1.3-1.2-2.2-1.6
			c-0.8-0.4-1.7-0.5-2.6-0.5c-0.9,0-1.8,0.2-2.6,0.5c-0.8,0.4-1.5,0.9-2.2,1.6c-0.6,0.7-1.1,1.5-1.5,2.4c-0.4,0.9-0.5,1.9-0.5,3
			c0,1.1,0.2,2.1,0.5,3c0.4,0.9,0.9,1.7,1.5,2.4c0.6,0.7,1.3,1.2,2.2,1.6C436.2,122.4,437,122.6,437.9,122.6z"/>
		<path id="XMLID_1338_" class="st0" d="M470.6,124.4c-0.5,0.5-1,0.9-1.6,1.3c-0.6,0.3-1.3,0.7-2.1,0.9c-0.8,0.3-1.9,0.4-3,0.4
			c-1.6,0-3-0.3-4.4-0.9s-2.5-1.4-3.6-2.5c-1-1.1-1.8-2.3-2.4-3.8c-0.6-1.5-0.9-3.1-0.9-4.8s0.3-3.4,0.9-4.8
			c0.6-1.5,1.4-2.7,2.4-3.8c1-1.1,2.2-1.9,3.6-2.5c1.4-0.6,2.8-0.9,4.4-0.9c1.1,0,2.1,0.1,2.9,0.4c0.8,0.3,1.5,0.6,2,0.9
			c0.6,0.4,1.2,0.8,1.6,1.3V93.9h4.7v32.8h-3.4L470.6,124.4z M464.1,122.6c0.9,0,1.8-0.2,2.6-0.5c0.8-0.4,1.5-0.9,2.2-1.6
			c0.6-0.7,1.1-1.5,1.5-2.4c0.4-0.9,0.5-1.9,0.5-3c0-1.1-0.2-2.1-0.5-3c-0.4-0.9-0.9-1.7-1.5-2.4c-0.6-0.7-1.3-1.2-2.2-1.6
			c-0.8-0.4-1.7-0.5-2.6-0.5c-0.9,0-1.8,0.2-2.6,0.5c-0.8,0.4-1.5,0.9-2.2,1.6c-0.6,0.7-1.1,1.5-1.5,2.4c-0.4,0.9-0.5,1.9-0.5,3
			c0,1.1,0.2,2.1,0.5,3c0.4,0.9,0.9,1.7,1.5,2.4c0.6,0.7,1.3,1.2,2.2,1.6C462.3,122.4,463.2,122.6,464.1,122.6z"/>
		<path id="XMLID_1341_" class="st0" d="M500.3,120c-0.4,1-0.9,1.9-1.5,2.7c-0.6,0.9-1.3,1.6-2.1,2.2c-0.8,0.6-1.8,1.1-2.9,1.5
			c-1.1,0.4-2.3,0.5-3.7,0.5c-1.6,0-3-0.3-4.4-0.9c-1.4-0.6-2.5-1.4-3.6-2.5c-1-1.1-1.8-2.3-2.4-3.8c-0.6-1.5-0.9-3.1-0.9-4.8
			s0.3-3.4,0.9-4.8c0.6-1.5,1.4-2.7,2.3-3.8c1-1.1,2.2-1.9,3.5-2.5c1.3-0.6,2.8-0.9,4.2-0.9c1.5,0,2.9,0.3,4.2,0.9
			c1.3,0.6,2.5,1.4,3.5,2.5c1,1.1,1.8,2.3,2.3,3.8c0.6,1.5,0.9,3.1,0.9,4.8c0,0.3,0,0.5-0.1,0.8s-0.1,0.5-0.1,0.7
			c0,0.2-0.1,0.5-0.1,0.6h-16.7c0.1,0.7,0.3,1.4,0.6,2.1c0.3,0.7,0.8,1.2,1.3,1.7c0.5,0.5,1.2,0.9,1.9,1.2c0.7,0.3,1.5,0.4,2.4,0.4
			c1.4,0,2.6-0.3,3.4-0.9c0.8-0.6,1.4-1.2,1.8-1.7H500.3z M496.4,113.2c-0.3-1.7-1-3.1-2.1-4.1c-1.1-1.1-2.6-1.6-4.4-1.6
			c-1.6,0-2.9,0.5-4,1.6c-1.1,1.1-1.8,2.4-2,4.1H496.4z"/>
		<path id="XMLID_1344_" class="st0" d="M499.3,130.6c0.1,0.1,0.3,0.1,0.5,0.2c0.2,0,0.3,0.1,0.5,0.1c0.2,0,0.4,0,0.6,0
			c1,0,1.9-0.3,2.6-1c0.7-0.7,1-1.6,1-2.6v-24h4.7v24c0,1.3-0.2,2.4-0.5,3.4c-0.4,1-0.9,1.8-1.5,2.5c-0.7,0.7-1.4,1.2-2.3,1.6
			c-0.9,0.4-1.8,0.6-2.9,0.6c-0.7,0-1.4-0.1-1.9-0.3c-0.3-0.1-0.5-0.2-0.7-0.3V130.6z M506.9,99.6c-0.8,0-1.5-0.3-2-0.8
			c-0.6-0.6-0.8-1.2-0.8-2c0-0.8,0.3-1.5,0.8-2c0.6-0.6,1.2-0.8,2-0.8c0.8,0,1.5,0.3,2,0.8c0.6,0.6,0.8,1.2,0.8,2
			c0,0.8-0.3,1.5-0.8,2C508.4,99.4,507.7,99.6,506.9,99.6z"/>
		<path id="XMLID_1347_" class="st0" d="M525.3,93.9h13c1.3,0,2.5,0.2,3.6,0.7c1.1,0.5,2.1,1.1,3,2c0.8,0.8,1.5,1.8,2,2.9
			c0.5,1.1,0.7,2.3,0.7,3.5c0,1-0.2,2-0.5,2.7c-0.4,0.8-0.8,1.4-1.2,2c-0.5,0.6-1,1.1-1.7,1.6c0.9,0.5,1.7,1.1,2.3,1.9
			c0.6,0.7,1.1,1.5,1.6,2.5c0.5,1,0.7,2.2,0.7,3.7c0,1.3-0.3,2.4-0.8,3.6c-0.5,1.1-1.3,2.1-2.2,3c-0.9,0.9-2,1.5-3.3,2.1
			c-1.3,0.5-2.7,0.8-4.1,0.8h-13.3V93.9z M538.3,107.4c1.3,0,2.4-0.4,3.3-1.3c0.9-0.9,1.4-1.9,1.4-3.1c0-1.2-0.5-2.2-1.4-3.1
			c-0.9-0.9-2-1.3-3.3-1.3h-8.1v8.9H538.3z M538.5,122c0.8,0,1.5-0.1,2.2-0.4s1.3-0.7,1.7-1.1c0.5-0.5,0.9-1,1.1-1.6
			c0.3-0.6,0.4-1.3,0.4-2s-0.1-1.4-0.4-2c-0.3-0.6-0.7-1.2-1.1-1.6c-0.5-0.5-1.1-0.8-1.7-1.1c-0.7-0.3-1.4-0.4-2.2-0.4h-8.3V122
			H538.5z"/>
		<path id="XMLID_1351_" class="st0" d="M569.3,124.4c-0.5,0.5-1,0.9-1.6,1.3c-0.6,0.3-1.3,0.7-2.1,0.9c-0.8,0.3-1.9,0.4-3,0.4
			c-1.6,0-3-0.3-4.4-0.9c-1.4-0.6-2.5-1.4-3.6-2.5c-1-1.1-1.8-2.3-2.4-3.8c-0.6-1.5-0.9-3.1-0.9-4.8s0.3-3.4,0.9-4.8
			c0.6-1.5,1.4-2.7,2.4-3.8c1-1.1,2.2-1.9,3.6-2.5c1.4-0.6,2.8-0.9,4.4-0.9c1.2,0,2.2,0.1,3,0.4c0.9,0.3,1.6,0.6,2.1,0.9
			c0.6,0.4,1.2,0.8,1.6,1.3l1-2.3h3.4v23.5h-3.4L569.3,124.4z M562.8,122.6c0.9,0,1.8-0.2,2.6-0.5c0.8-0.4,1.5-0.9,2.2-1.6
			c0.6-0.7,1.1-1.5,1.5-2.4c0.4-0.9,0.5-1.9,0.5-3c0-1.1-0.2-2.1-0.5-3c-0.4-0.9-0.9-1.7-1.5-2.4c-0.6-0.7-1.3-1.2-2.2-1.6
			c-0.8-0.4-1.7-0.5-2.6-0.5c-0.9,0-1.8,0.2-2.6,0.5c-0.8,0.4-1.5,0.9-2.2,1.6c-0.6,0.7-1.1,1.5-1.5,2.4c-0.4,0.9-0.5,1.9-0.5,3
			c0,1.1,0.2,2.1,0.5,3c0.4,0.9,0.9,1.7,1.5,2.4c0.6,0.7,1.3,1.2,2.2,1.6C561.1,122.4,561.9,122.6,562.8,122.6z"/>
		<path id="XMLID_1354_" class="st0" d="M573.6,130.6c0.1,0.1,0.3,0.1,0.5,0.2c0.2,0,0.3,0.1,0.5,0.1s0.4,0,0.6,0c1,0,1.9-0.3,2.6-1
			c0.7-0.7,1-1.6,1-2.6v-24h4.7v24c0,1.3-0.2,2.4-0.5,3.4c-0.4,1-0.9,1.8-1.5,2.5c-0.7,0.7-1.4,1.2-2.3,1.6
			c-0.9,0.4-1.8,0.6-2.9,0.6c-0.7,0-1.4-0.1-1.9-0.3c-0.3-0.1-0.5-0.2-0.7-0.3V130.6z M581.1,99.6c-0.8,0-1.5-0.3-2-0.8
			c-0.6-0.6-0.8-1.2-0.8-2c0-0.8,0.3-1.5,0.8-2c0.6-0.6,1.2-0.8,2-0.8s1.5,0.3,2,0.8c0.6,0.6,0.8,1.2,0.8,2c0,0.8-0.3,1.5-0.8,2
			C582.6,99.4,581.9,99.6,581.1,99.6z"/>
		<path id="XMLID_1357_" class="st0" d="M605.2,124.4c-0.5,0.5-1,0.9-1.6,1.3c-0.6,0.3-1.3,0.7-2.1,0.9c-0.8,0.3-1.9,0.4-3,0.4
			c-1.6,0-3-0.3-4.4-0.9s-2.5-1.4-3.6-2.5c-1-1.1-1.8-2.3-2.4-3.8c-0.6-1.5-0.9-3.1-0.9-4.8s0.3-3.4,0.9-4.8
			c0.6-1.5,1.4-2.7,2.4-3.8c1-1.1,2.2-1.9,3.6-2.5c1.4-0.6,2.8-0.9,4.4-0.9c1.1,0,2.1,0.1,2.9,0.4c0.8,0.3,1.5,0.6,2,0.9
			c0.6,0.4,1.2,0.8,1.6,1.3V93.9h4.7v32.8h-3.4L605.2,124.4z M598.6,122.6c0.9,0,1.8-0.2,2.6-0.5c0.8-0.4,1.5-0.9,2.2-1.6
			c0.6-0.7,1.1-1.5,1.5-2.4c0.4-0.9,0.5-1.9,0.5-3c0-1.1-0.2-2.1-0.5-3c-0.4-0.9-0.9-1.7-1.5-2.4c-0.6-0.7-1.3-1.2-2.2-1.6
			c-0.8-0.4-1.7-0.5-2.6-0.5c-0.9,0-1.8,0.2-2.6,0.5c-0.8,0.4-1.5,0.9-2.2,1.6c-0.6,0.7-1.1,1.5-1.5,2.4c-0.4,0.9-0.5,1.9-0.5,3
			c0,1.1,0.2,2.1,0.5,3c0.4,0.9,0.9,1.7,1.5,2.4c0.6,0.7,1.3,1.2,2.2,1.6C596.9,122.4,597.7,122.6,598.6,122.6z"/>
		<path id="XMLID_1360_" class="st0" d="M631.5,124.4c-0.5,0.5-1,0.9-1.6,1.3c-0.6,0.3-1.3,0.7-2.1,0.9c-0.8,0.3-1.9,0.4-3,0.4
			c-1.6,0-3-0.3-4.4-0.9s-2.5-1.4-3.6-2.5c-1-1.1-1.8-2.3-2.4-3.8c-0.6-1.5-0.9-3.1-0.9-4.8s0.3-3.4,0.9-4.8
			c0.6-1.5,1.4-2.7,2.4-3.8c1-1.1,2.2-1.9,3.6-2.5c1.4-0.6,2.8-0.9,4.4-0.9c1.2,0,2.2,0.1,3,0.4c0.9,0.3,1.6,0.6,2.1,0.9
			c0.6,0.4,1.2,0.8,1.6,1.3l1-2.3h3.4v23.5h-3.4L631.5,124.4z M625,122.6c0.9,0,1.8-0.2,2.6-0.5c0.8-0.4,1.5-0.9,2.2-1.6
			c0.6-0.7,1.1-1.5,1.5-2.4c0.4-0.9,0.5-1.9,0.5-3c0-1.1-0.2-2.1-0.5-3c-0.4-0.9-0.9-1.7-1.5-2.4c-0.6-0.7-1.3-1.2-2.2-1.6
			c-0.8-0.4-1.7-0.5-2.6-0.5s-1.8,0.2-2.6,0.5c-0.8,0.4-1.5,0.9-2.2,1.6c-0.6,0.7-1.1,1.5-1.5,2.4c-0.4,0.9-0.5,1.9-0.5,3
			c0,1.1,0.2,2.1,0.5,3c0.4,0.9,0.9,1.7,1.5,2.4c0.6,0.7,1.3,1.2,2.2,1.6C623.3,122.4,624.1,122.6,625,122.6z"/>
		<path id="XMLID_1363_" class="st0" d="M654.6,119.2c0.1,1,0.5,1.9,1.2,2.5c0.7,0.6,1.6,0.9,3,0.9c1.5,0,2.5-0.3,3.2-0.8
			c0.7-0.6,1-1.2,1-2c0-0.7-0.3-1.2-0.9-1.6c-0.6-0.4-1.4-0.7-2.3-0.9c-0.9-0.2-1.9-0.5-3-0.8c-1.1-0.3-2.1-0.6-3-1.1
			c-0.9-0.5-1.7-1.1-2.3-2c-0.6-0.8-0.9-1.9-0.9-3.3c0-1,0.2-1.9,0.6-2.7c0.4-0.9,0.9-1.6,1.6-2.2c0.7-0.6,1.5-1.1,2.5-1.5
			c1-0.4,2.1-0.5,3.4-0.5c2.7,0,4.8,0.7,6.3,2c1.4,1.3,2.2,3.1,2.3,5.3h-4.7c-0.1-0.8-0.5-1.5-1.2-2c-0.6-0.6-1.6-0.8-2.7-0.8
			c-1.2,0-2.1,0.3-2.7,0.8c-0.6,0.5-0.9,1.1-0.9,1.8c0,0.7,0.3,1.2,0.9,1.6c0.6,0.4,1.4,0.7,2.3,0.9c0.9,0.2,1.9,0.5,3,0.8
			c1.1,0.3,2.1,0.6,3,1.1c0.9,0.5,1.7,1.1,2.3,2c0.6,0.8,0.9,1.9,0.9,3.3c0,2.1-0.7,3.8-2.2,5.2c-1.5,1.4-3.6,2.1-6.4,2.1
			c-2.9,0-5-0.7-6.5-2s-2.2-3.3-2.4-5.8H654.6z"/>
		<path id="XMLID_1365_" class="st0" d="M669.5,123.8c0-0.8,0.3-1.5,0.8-2c0.6-0.6,1.2-0.8,2-0.8c0.8,0,1.5,0.3,2,0.8
			c0.6,0.6,0.8,1.2,0.8,2c0,0.8-0.3,1.5-0.8,2c-0.6,0.6-1.2,0.8-2,0.8c-0.8,0-1.5-0.3-2-0.8C669.8,125.3,669.5,124.6,669.5,123.8z"
			/>
		<path id="XMLID_1367_" class="st0" d="M678.6,103.3h3.4l1,2.3c0.5-0.5,1-0.9,1.6-1.3c0.6-0.3,1.3-0.6,2.1-0.9
			c0.9-0.3,1.9-0.4,3.1-0.4c1.6,0,3,0.3,4.4,0.9c1.4,0.6,2.5,1.4,3.6,2.5c1,1.1,1.8,2.3,2.4,3.8c0.6,1.5,0.9,3.1,0.9,4.8
			s-0.3,3.4-0.9,4.8c-0.6,1.5-1.4,2.7-2.4,3.8c-1,1.1-2.2,1.9-3.6,2.5s-2.8,0.9-4.4,0.9c-1.1,0-2.1-0.1-2.9-0.4
			c-0.8-0.3-1.5-0.6-2-0.9c-0.6-0.4-1.2-0.8-1.6-1.3v10.7h-4.7V103.3z M689.6,122.6c0.9,0,1.8-0.2,2.6-0.5c0.8-0.4,1.5-0.9,2.2-1.6
			c0.6-0.7,1.1-1.5,1.5-2.4c0.4-0.9,0.5-1.9,0.5-3c0-1.1-0.2-2.1-0.5-3c-0.4-0.9-0.9-1.7-1.5-2.4c-0.6-0.7-1.3-1.2-2.2-1.6
			c-0.8-0.4-1.7-0.5-2.6-0.5s-1.8,0.2-2.6,0.5c-0.8,0.4-1.5,0.9-2.2,1.6c-0.6,0.7-1.1,1.5-1.5,2.4c-0.4,0.9-0.5,1.9-0.5,3
			c0,1.1,0.2,2.1,0.5,3c0.4,0.9,0.9,1.7,1.5,2.4c0.6,0.7,1.3,1.2,2.2,1.6C687.8,122.4,688.7,122.6,689.6,122.6z"/>
		<path id="XMLID_1370_" class="st0" d="M703.2,123.8c0-0.8,0.3-1.5,0.8-2c0.6-0.6,1.2-0.8,2-0.8c0.8,0,1.5,0.3,2,0.8
			c0.6,0.6,0.8,1.2,0.8,2c0,0.8-0.3,1.5-0.8,2c-0.6,0.6-1.2,0.8-2,0.8c-0.8,0-1.5-0.3-2-0.8C703.5,125.3,703.2,124.6,703.2,123.8z"
			/>
	</g>
</g>
</svg>
