<?xml version="1.0" encoding="utf-8"?>
<!-- Generator: Adobe Illustrator 21.0.0, SVG Export Plug-In . SVG Version: 6.00 Build 0)  -->
<svg version="1.1" id="Layer_1" xmlns="http://www.w3.org/2000/svg" xmlns:xlink="http://www.w3.org/1999/xlink" x="0px" y="0px"
	 viewBox="0 0 850.4 150" style="enable-background:new 0 0 850.4 150;" xml:space="preserve">
<style type="text/css">
	.st0{fill:#282525;}
</style>
<g>
	<g id="XMLID_1_">
		<path id="XMLID_6_" class="st0" d="M68.9,63.9c0.2,0.2,0.4,0.5,0.5,0.7c0.2,0.2,0.3,0.4,0.4,0.6c0.3,0.4,0.7,0.8,1,1.2l0.5,0.5
			c0.5,0.5,1,1,1.5,1.4c0.6,0.5,1.2,1,1.8,1.4c0.6,0.4,1.3,0.8,2.1,1.1c0.9,0.4,1.8,0.6,2.6,0.7c0.8,0.1,1.6,0.2,2.3,0.2
			c1,0,1.9-0.1,2.8-0.3c0.6,0,1.1-0.2,1.7-0.4h0.1c0.2,0,0.4-0.1,0.5-0.2c0.4-0.1,0.7-0.2,1.1-0.4l0.4-0.1c0.5-0.2,0.9-0.4,1.3-0.6
			l0.9-0.5c0.3-0.1,0.6-0.2,0.8-0.4c0.2,0,0.3-0.1,0.4-0.2c0.3-0.1,0.5-0.3,0.5-0.3c0.6-0.4,1.2-0.8,1.7-1.2
			c0.6-0.5,1.3-1.1,1.9-1.8c0.2-0.2,0.5-0.5,0.6-1.1c0.1-0.8,0-1.6-0.3-2.4c0-0.1-0.1-0.3-0.2-0.4c-0.2-0.4-0.5-0.8-0.8-1.3
			c-0.2-0.4-0.5-0.7-0.7-1c-0.4-0.5-0.9-1-1.5-1.6c-0.3-0.3-0.7-0.6-1.1-0.8c-1.2-0.4-2.1,0.3-2.5,0.6s-0.7,0.6-1,0.9
			c-0.2,0.2-0.5,0.4-0.7,0.6c-0.6,0.5-1.2,1-1.9,1.5c-0.5,0.4-1.1,0.8-1.9,1.1c-0.3,0.1-0.5,0.2-0.8,0.3L82.2,62
			c-0.7,0.3-1.4,0.4-2,0.6l0.5-0.3c0.6-0.3,1.1-0.6,1.7-0.9c1.1-0.7,2.2-1.6,3.2-2.6c0.3-0.3,1.2-1.2,0.7-2.4
			c-0.2-0.5-0.4-1-0.7-1.4L85,54.3c-0.4-0.6-0.9-1.3-1.4-1.9c-0.7-0.8-1.6-1.8-2.7-2.6c-0.6-0.4-1.1-0.5-1.6-0.4
			c-0.6,0.1-1.2,0.4-1.7,0.7L77.4,50c-0.3,0.1-0.5,0.3-0.8,0.5l-0.4,0.2c-0.5,0.3-1,0.7-1.6,1.2c-0.9,0.8-1.5,1.5-2,2.3l-0.1,0.1
			c-0.2,0.3-0.5,0.8-0.4,1.4c0,0.2,0,0.4,0.1,0.7c0.1,0.5,0.8,1.4,1.1,1.8c0.5,0.7,1.1,1.2,1.7,1.9c0.8,0.7,1.7,1.5,2.8,2.1
			c0.2,0.1,0.5,0.2,0.8,0.3l0,0c-0.5,0-1,0-1.4-0.1l-0.7-0.2c-0.7-0.1-1.3-0.3-1.9-0.5l-0.4-0.2c-0.5-0.2-0.9-0.4-1.3-0.6
			c-0.8-0.5-1.5-1.1-2.3-1.8c-0.5-0.4-1-0.9-1.5-1.4l-0.7-0.6c-0.2-0.2-0.6-0.3-0.8-0.3c-0.3,0-0.6,0.1-0.8,0.4
			c-0.6,0.6-0.7,1.5-0.4,2.3C67,60.4,68.4,63.3,68.9,63.9z"/>
		<path id="XMLID_5_" class="st0" d="M111.3,88.9c0-1.6-0.2-3-0.6-4.3v-0.2c0-0.2-0.1-0.5-0.1-0.7c-0.1-0.2-0.1-0.5-0.2-0.7
			c-0.1-0.4-0.2-0.8-0.3-1.2c0-0.1,0-0.5-0.3-0.7c0-0.1-0.1-0.3-0.1-0.4l-0.3-0.7c-0.2-0.6-0.5-1.1-0.8-1.7
			c-0.1-0.1-0.1-0.3-0.2-0.4c-0.2-0.3-0.3-0.7-0.6-0.9l-0.3-0.4c-0.3-0.4-0.7-0.9-1-1.3l-0.3-0.4c-0.3-0.3-0.5-0.6-0.8-0.8
			c-0.6-0.6-1.4-1.2-2.4-1.9c-1-0.7-2-1.2-3.2-1.5c-1-0.3-2.1-0.5-3.2-0.6c-1,0-1.9-0.1-2.9,0.2c-0.2,0.1-0.4,0.1-0.7,0.1
			c-0.2,0-0.4,0.1-0.6,0.1c-0.9,0.2-1.6,0.5-2.3,0.8c-0.1,0-0.2,0.1-0.2,0.1c-0.3,0.1-0.6,0.2-0.8,0.4L88.7,72
			c-0.6,0.4-1.3,0.8-1.9,1.3c-0.2,0.1-0.3,0.2-0.4,0.3l-0.1,0.1L86,73.9L85.9,74c-0.1,0.1-0.2,0.1-0.2,0.2c-0.5,0.5-0.9,1.1-1.4,1.6
			c-0.6,0.7-1,1.4-1.4,2.1c-0.2,0.4-0.4,0.8-0.6,1.3c-0.1,0.3-0.2,0.5-0.3,0.8c-0.2,0.5-0.4,0.9-0.6,1.4c-0.1,0.3-0.3,0.7-0.4,1
			c-0.3,0.6-0.6,1.2-0.9,1.8c-0.2,0.4-0.5,0.7-0.7,1.1c-0.2,0.3-0.5,0.6-0.8,0.9l-0.2,0.2c-0.3,0.4-0.7,0.6-1,0.9
			c-0.7,0.5-1.4,0.7-2,0.8c-0.5,0-1,0-1.5,0c-0.3,0-0.7-0.1-1.1-0.3c-0.7-0.3-1.5-0.7-2.2-1l-0.4-0.2c-0.2-0.1-0.5-0.3-0.8-0.4
			l0.2-0.1c0.3-0.2,0.5-0.4,0.7-0.7c0.5-0.5,0.9-1,1.4-1.5c0.5-0.7,1-1.4,1.4-2.2c0.1-0.2,0.2-0.4,0.3-0.6c0-0.1,0.1-0.2,0.1-0.3
			c0.4-0.7,0.6-1.5,0.7-2.2c0.3-1.7,0.2-3.1-0.1-4.4c-0.2-0.7-0.4-1.4-0.8-2.3L73,71.5c-0.1-0.2-0.2-0.5-0.4-0.8
			c-0.2-0.2-0.3-0.4-0.5-0.7c-0.2-0.3-0.4-0.5-0.5-0.8c-0.9-1.2-1.9-2.2-3.2-3.1c-0.2-0.3-0.5-0.4-0.7-0.5c-0.2-0.2-0.4-0.3-0.7-0.4
			c-0.2-0.1-0.3-0.1-0.5-0.2c-0.1-0.1-0.3-0.1-0.4-0.2l-0.3-0.1c-0.3-0.1-0.6-0.3-1.1-0.4c-0.7-0.3-1.4-0.4-2-0.5
			c-2-0.3-3.6-0.2-5.2,0.1c-1,0.2-2.2,0.5-3.3,0.9c-0.9,0.3-1.7,0.7-2.6,1.1c-0.5,0.2-1.1,0.5-1.5,0.8l-0.3,0.2
			c-0.3,0.2-0.6,0.3-0.8,0.5s-0.5,0.3-0.7,0.5c-0.4,0.3-0.9,0.6-1.3,0.9c-0.7,0.6-1.4,1.2-2,1.8c-0.6,0.6-0.8,1.3-0.6,2.2
			c0,0.2,0.1,0.3,0.2,0.5c0,0.1,0.1,0.2,0.1,0.3c0.1,0.4,0.3,0.7,0.4,1l0.1,0.3c0.2,0.6,0.6,1.1,0.9,1.7l0.2,0.3
			c0.3,0.5,0.6,1,1.1,1.6c0.5,0.7,1.1,1.3,1.7,1.9c0.5,0.5,1.2,1,2.3,0.4c0.2-0.1,0.4-0.2,0.6-0.4c0.1-0.1,0.3-0.2,0.4-0.3
			c0.5-0.3,1-0.6,1.5-0.9l0.8-0.5c0.8-0.5,1.6-0.9,2.5-1.3c0.8-0.4,1.6-0.7,2.6-0.9c0.8-0.2,1.5-0.4,2.3-0.4c1.7-0.1,3,0,4.2,0.8
			c0.9,0.6,1.4,1.4,1.6,2.3c0.1,0.9-0.2,1.7-1,2.3c-0.5,0.4-1.2,0.6-2,0.6c-0.7,0-1.3-0.1-2-0.1c-0.4,0-0.9-0.1-1.3-0.1h-0.4
			c-1.3-0.1-2.6-0.2-3.9,0.2c-1.1,0.3-1.7,1.2-1.4,2.2c0.1,0.5,0.3,1,0.4,1.5l0.2,0.6c0.2,0.8,0.5,1.6,0.8,2.6
			c0.1,0.3,0.2,0.6,0.4,0.9c0.1,0.2,0.2,0.5,0.3,0.7c0.1,0.3,0.3,0.6,0.4,0.9c0.2,0.5,0.7,0.7,1.2,0.7l0.5-0.1
			c0.2,0,0.4-0.1,0.6-0.1c0.2,0,0.5,0,0.7,0h0.3c0.2,0,0.3,0,0.5,0h0.6c0.3,0,0.6,0,0.9,0.1h0.2c0.2,0.1,0.5,0.1,0.6,0.1
			c0.2,0.1,0.5,0.2,0.6,0.2s0.2,0,0.3,0.1c0.7,0.3,1.3,0.7,1.8,1.1l0.9,0.9l0.2,0.3c0.3,0.5,0.6,0.9,0.8,1.4l0.1,0.3
			c0.1,0.4,0.3,0.8,0.3,1.2c0,0.7,0,1.3-0.1,1.8c-0.2,0.5-0.4,1-0.7,1.5c-0.3,0.4-0.7,0.8-1,1.2l-0.2,0.2c-0.7,0.7-1.6,1.2-2.3,1.6
			c-0.8,0.4-1.8,0.7-2.9,0.8c-1.5,0.1-2.8,0.1-4.1-0.1c-0.6-0.1-1.3-0.2-1.9-0.4l-0.7-0.1c-0.3-0.1-0.5-0.1-0.7-0.2
			c-0.3-0.2-0.7-0.3-1-0.4s-0.6-0.2-1-0.4c-0.7-0.3-1.3-0.7-1.8-1c-0.7-0.5-1.4-1.1-2-1.6c-0.7-0.7-1.3-1.5-1.8-2.2
			c-0.2-0.3-0.5-0.7-0.7-1l-0.3-0.5c-0.3-0.5-0.7-1-1-1.5l-0.4-0.6c-0.3-0.5-0.6-0.9-0.8-1.4l-0.3-0.5c-0.1-0.3-0.3-0.6-0.4-0.9
			c-0.1-0.2-0.2-0.4-0.3-0.7L42.7,91c0-0.1-0.1-0.2-0.2-0.3l-0.1-0.1c-0.2-0.4-0.4-0.8-0.6-1.2l-0.2-0.3c-0.3-0.5-0.5-1-0.8-1.3
			c-0.2-0.3-0.5-0.4-0.7-0.6c-0.3-0.2-0.7-0.2-1,0s-0.5,0.6-0.5,1c0,1.4,0.1,2.5,0.4,3.6l0.1,0.3c0.1,0.5,0.2,1,0.4,1.5v0.1
			c0.1,0.3,0.2,0.7,0.3,1c0.1,0.2,0.1,0.4,0.2,0.6c0,0.1,0.3,0.8,0.4,1.3l0.1,0.4c0.1,0.4,0.3,0.9,0.4,1.3c0.1,0.4,0.3,0.7,0.4,1.1
			c0.1,0.3,0.2,0.5,0.4,1c0.1,0.4,0.3,0.7,0.4,1l0.3,0.6c0.3,0.6,0.7,1.3,1.1,1.9c0.2,0.3,0.3,0.5,0.5,0.8s0.4,0.7,0.6,1
			c0.6,0.8,1.2,1.6,1.8,2.4c0.3,0.4,0.7,0.8,1,1.2l0.9,0.9c0.4,0.4,0.8,0.8,1.3,1.2c0.8,0.6,1.5,1.2,2.4,1.7c0.7,0.4,1.3,0.8,2,1.1
			c0.9,0.4,1.9,0.7,2.9,0.9c0.7,0.2,1.5,0.4,2.2,0.4s1.4,0,2.1,0c0.7,0,1.4,0,2.1,0c0.7,0,1.3-0.1,2-0.3c0.2,0,0.3-0.1,0.4-0.2
			l0.2-0.1c0.2-0.1,0.3-0.1,0.5-0.2l0.5-0.2c0.2-0.1,0.4-0.1,0.6-0.2l0.6-0.3c0.3-0.1,0.5-0.3,0.8-0.4c0.1-0.1,0.3-0.2,0.4-0.3
			c0.1-0.1,0.2-0.1,0.2-0.2l0.3-0.2c0.1-0.1,0.3-0.2,0.4-0.3c0.4-0.3,0.8-0.6,1.3-1c0.3-0.2,0.5-0.5,0.7-0.7
			c0.4-0.4,0.8-0.9,1.3-1.4c0.2-0.2,0.3-0.4,0.4-0.6c0.1-0.1,0.2-0.3,0.3-0.4c0.7-0.9,1.2-1.9,1.6-2.7c0.4-0.9,0.6-1.8,0.8-2.6
			l0.1-0.4c0.2-0.7,0.2-1.3,0.3-2v-0.4c0.1-1.5,0.1-3-0.2-4.4c0-0.1,0-0.1,0-0.2c0.6,0.2,1.2,0.3,1.9,0.5c0.8,0.1,1.5,0.1,2.3,0.1
			h0.6c1.4,0,2.7-0.3,3.9-0.8c0.1,0,0.2-0.1,0.3-0.2c0.1-0.1,0.3-0.1,0.4-0.2c0.6-0.4,1-0.8,1.5-1.2l0.2-0.2
			c0.1-0.1,0.1-0.2,0.2-0.2c0.2-0.2,0.4-0.4,0.6-0.8l0.3-0.3c0.1-0.2,0.3-0.4,0.4-0.7c0.2-0.3,0.3-0.6,0.5-0.8
			c0.1-0.1,0.1-0.2,0.2-0.3c0.3-0.5,0.5-1.1,0.8-1.7c0.1-0.2,0.2-0.5,0.3-0.7l0.2-0.4c0.1-0.2,0.2-0.5,0.3-0.7l0.1-0.2
			c0.3-0.5,0.6-1,0.9-1.5s0.6-0.9,1.1-1.5c0.4-0.5,0.9-1,1.3-1.4c0.2-0.2,0.5-0.4,0.7-0.6l0.4-0.3c0.3-0.2,0.6-0.5,1.1-0.7
			s0.9-0.5,1.4-0.6c0.8-0.2,1.6-0.2,2.5-0.1c0.2,0,0.5,0,0.6,0.1l0.2,0.1c0.4,0.2,0.9,0.4,1.3,0.6c0.4,0.3,0.8,0.6,1.2,1
			c0.3,0.4,0.6,0.9,0.9,1.4c0.3,0.6,0.5,1.3,0.6,2.1c0.2,1.2,0.1,2.5-0.2,3.8l-0.1,0.3c0,0.1,0,0.2-0.1,0.3
			c-0.1,0.3-0.2,0.6-0.3,0.8l-0.3,0.9c-0.1,0.3-0.2,0.6-0.3,0.9c-0.2,0.5-0.5,1.1-0.8,1.6c-0.3,0.6-0.7,1.2-1.1,1.8
			c-0.4,0.6-0.9,1.4-1.6,2.1c-0.4,0.5-1,0.9-1.6,1.3c-0.2,0.2-0.5,0.3-0.8,0.4l-0.4,0.2c-0.8,0.4-1.6,0.7-2.4,0.9
			c-0.5,0.1-1,0.2-1.5,0.3c-1,0.1-1.9,0.1-2.7-0.1c-0.8-0.1-1.6-0.4-2.3-0.7c-0.3-0.1-0.7-0.3-1-0.4c-0.2-0.1-0.4-0.2-0.6-0.3
			c-0.5-0.2-1-0.5-1.6-0.8c-0.2-0.1-0.5-0.3-0.7-0.4L85.1,98c-0.5-0.2-0.9-0.5-1.5-0.6c-0.3-0.1-0.7-0.1-1,0.1s-0.4,0.6-0.4,1
			c-0.1,1.1-0.1,2.2,0.2,3.7v0.3c0,0.3,0.1,0.5,0.1,0.8l0.2,0.6c0.2,0.5,0.3,1.1,0.5,1.6l0.1,0.4c0.1,0.3,0.3,0.7,0.4,1l0.3,0.5
			c0.2,0.3,0.3,0.6,0.5,0.8c0.4,0.6,0.8,1.1,1.2,1.5c0.5,0.5,1,1,1.7,1.4c2.1,1.4,4.7,2.1,8.5,1.9c1.3,0,2.8-0.2,4.2-0.7
			c0.6-0.2,1.3-0.5,2-0.9l0.2-0.1c0.4-0.3,0.8-0.5,1.2-0.8c0.5-0.4,1.1-0.9,1.7-1.5s1.1-1.3,1.7-1.9c0.5-0.7,1-1.4,1.4-2.1
			c0.5-0.8,0.9-1.7,1.4-2.9c0.2-0.4,0.3-0.8,0.4-1.2l0.1-0.5c0.1-0.3,0.2-0.6,0.2-0.9c0.1-0.1,0.2-0.4,0.2-0.6v-0.1
			c0-0.2,0.1-0.4,0.1-0.7c0.2-0.7,0.3-1.2,0.3-2c0.1-0.2,0.2-0.7,0.2-1.1c0.1-1.4,0.2-2.9,0.1-4.3v-0.5
			C111.3,89.7,111.3,89.2,111.3,88.9z"/>
		<path id="XMLID_2_" class="st0" d="M0,0v150h150V0H0z M126.3,118.1c0,4.5-3.7,8.2-8.2,8.2H31.9c-4.5,0-8.2-3.7-8.2-8.2V71.7
			c0-4.5,2.9-10.4,6.4-13.2l38.4-29.8c1.8-1.4,4.1-2.1,6.4-2.1s4.7,0.7,6.4,2.1l38.4,29.8c3.5,2.8,6.4,8.7,6.4,13.2v46.4H126.3z"/>
	</g>
	<g>
		<path class="st0" d="M179.8,53.5c0-2.7,0.5-5.1,1.5-7.4c1-2.3,2.3-4.3,4-6s3.7-3,6.1-4c2.3-1,4.9-1.4,7.6-1.4
			c2.7,0,5.3,0.5,7.6,1.4c2.4,1,4.4,2.3,6.1,4c1.7,1.7,3.1,3.7,4,6s1.5,4.7,1.5,7.4s-0.5,5.1-1.5,7.4c-1,2.3-2.3,4.3-4,6
			s-3.8,3-6.1,4c-2.4,1-4.9,1.5-7.6,1.5c-2.8,0-5.3-0.5-7.6-1.5s-4.4-2.3-6.1-4c-1.7-1.7-3.1-3.7-4-6
			C180.3,58.6,179.8,56.1,179.8,53.5z M199,60.5c1.8,0,3.3-0.7,4.7-2c1.3-1.4,2-3,2-5s-0.7-3.7-2-5c-1.3-1.4-2.9-2-4.7-2
			s-3.3,0.7-4.7,2c-1.3,1.4-2,3-2,5s0.7,3.7,2,5C195.7,59.8,197.2,60.5,199,60.5z"/>
		<path class="st0" d="M231.8,35.4h9l2,3.5c0.8-0.8,1.7-1.5,2.7-2.1c0.8-0.6,1.8-1.1,3-1.5c1.1-0.4,2.4-0.7,3.8-0.7
			c1.8,0,3.3,0.2,4.5,0.7c1.2,0.5,2.2,1,3,1.6c0.9,0.7,1.7,1.5,2.3,2.4c0.8-0.9,1.8-1.7,2.9-2.4c0.9-0.6,2.1-1.1,3.4-1.6
			s2.7-0.7,4.3-0.7c3.8,0,6.8,1.3,9.1,3.8s3.5,6.2,3.5,11.1v22h-12.5V51.9c0-2-0.4-3.4-1.1-4.2s-1.7-1.3-2.9-1.3s-2.2,0.4-2.9,1.3
			c-0.7,0.8-1.1,2.2-1.1,4.2v19.6h-12.5V51.9c0-2-0.4-3.4-1.1-4.2c-0.7-0.8-1.7-1.3-2.9-1.3s-2.2,0.4-2.9,1.3
			c-0.7,0.8-1.1,2.2-1.1,4.2v19.6h-12.5L231.8,35.4L231.8,35.4z"/>
		<path class="st0" d="M299.8,22.1h12.5v16.1c0.7-0.6,1.5-1.2,2.4-1.7c0.8-0.4,1.7-0.8,2.9-1.2c1.1-0.4,2.4-0.6,3.7-0.6
			c2.1,0,4.1,0.4,5.9,1.1c1.8,0.7,3.3,1.7,4.6,3.1c1.3,1.4,2.3,3,3,4.9s1.1,4.1,1.1,6.6v21.2h-12.5V52.7c0-2-0.5-3.5-1.6-4.6
			c-1-1.1-2.4-1.6-3.9-1.6c-1.6,0-2.9,0.5-3.9,1.6s-1.6,2.6-1.6,4.6v18.8h-12.6V22.1z"/>
		<path class="st0" d="M350.2,25.6c0-1.8,0.6-3.3,1.8-4.5c1.2-1.2,2.8-1.8,4.8-1.8s3.6,0.6,4.8,1.8c1.2,1.2,1.8,2.7,1.8,4.5
			s-0.6,3.3-1.8,4.5s-2.8,1.8-4.8,1.8s-3.6-0.6-4.8-1.8C350.9,28.9,350.2,27.4,350.2,25.6z M350.6,35.4h12.5v36.1h-12.5V35.4z"/>
		<path class="st0" d="M388.1,59.4c0.2,0.6,0.4,1.1,0.8,1.6c0.3,0.4,0.7,0.8,1.2,1.1s1.2,0.5,2,0.5c1.2,0,2.1-0.2,2.7-0.7
			s0.9-1,0.9-1.6c0-0.5-0.5-1-1.4-1.3s-2.1-0.7-3.4-1.1c-1.4-0.4-2.8-0.8-4.4-1.3s-3.1-1.2-4.4-2.1c-1.4-0.9-2.5-2-3.4-3.3
			s-1.4-3-1.4-5.1c0-1.5,0.3-2.9,1-4.2c0.7-1.4,1.6-2.6,2.9-3.6c1.3-1.1,2.8-1.9,4.7-2.5c1.9-0.6,4-0.9,6.3-0.9
			c5.1,0,8.9,1.1,11.4,3.2c2.6,2.1,4.2,4.8,5,8.2l-11.8,1.2c-0.2-0.5-0.4-0.9-0.6-1.3c-0.3-0.4-0.6-0.7-1.1-1
			c-0.4-0.3-1.1-0.4-1.8-0.4c-1.8,0-2.7,0.7-2.7,2c0,0.5,0.5,0.9,1.4,1.3c0.9,0.3,2.1,0.7,3.4,1c1.4,0.4,2.8,0.8,4.4,1.3
			s3.1,1.1,4.4,2c1.4,0.9,2.5,2,3.4,3.4s1.4,3.1,1.4,5.2c0,1.6-0.3,3.1-1,4.5s-1.7,2.7-3,3.8c-1.3,1.1-3,2-4.9,2.6s-4.2,0.9-6.7,0.9
			c-5.3,0-9.2-1.1-11.8-3.2c-2.6-2.1-4.3-5-5.1-8.5L388.1,59.4z M379.3,20.2h10.2l3.5,4.7l3.5-4.7h10.3l-8.2,11h-11L379.3,20.2z"/>
		<path class="st0" d="M447.5,68c-0.9,0.8-1.9,1.6-3,2.2c-0.9,0.6-2.1,1.1-3.3,1.5c-1.3,0.4-2.7,0.6-4.3,0.6c-2,0-4.1-0.5-6-1.5
			c-2-1-3.8-2.3-5.3-4s-2.8-3.7-3.7-6c-0.9-2.3-1.4-4.7-1.4-7.4s0.5-5.1,1.4-7.4c0.9-2.3,2.2-4.3,3.7-6s3.3-3,5.3-4s4-1.4,6-1.4
			c1.6,0,3,0.2,4.3,0.7c1.3,0.4,2.4,1,3.3,1.5c1.1,0.6,2.1,1.3,3,2.1l2-3.5h9v36.1h-9L447.5,68z M439.7,60.5c1.8,0,3.3-0.7,4.7-2
			s2-3,2-5s-0.7-3.7-2-5c-1.3-1.4-2.9-2-4.7-2c-1.8,0-3.3,0.7-4.7,2c-1.3,1.4-2,3-2,5s0.7,3.7,2,5C436.4,59.8,437.9,60.5,439.7,60.5
			z"/>
	</g>
	<g>
		<path class="st0" d="M200.2,124c-0.5,0.6-1.1,1-1.8,1.5c-0.6,0.4-1.4,0.7-2.4,1s-2.1,0.4-3.4,0.4c-1.8,0-3.4-0.3-4.9-1
			s-2.9-1.6-4-2.8c-1.2-1.2-2.1-2.6-2.7-4.3s-1-3.5-1-5.5s0.3-3.8,1-5.5s1.6-3.1,2.7-4.3c1.2-1.2,2.5-2.1,4-2.8c1.5-0.7,3.2-1,4.9-1
			c1.3,0,2.5,0.2,3.4,0.5c1,0.3,1.8,0.6,2.4,1c0.7,0.4,1.3,0.9,1.8,1.5l1.2-2.6h3.8v26.5h-3.8L200.2,124z M192.8,122
			c1,0,2-0.2,2.9-0.6s1.7-1,2.4-1.8s1.3-1.7,1.7-2.7s0.6-2.2,0.6-3.4c0-1.3-0.2-2.4-0.6-3.4c-0.4-1-1-1.9-1.7-2.7
			c-0.7-0.8-1.5-1.4-2.4-1.8s-1.9-0.6-2.9-0.6s-2,0.2-2.9,0.6s-1.7,1-2.4,1.8s-1.3,1.7-1.7,2.7s-0.6,2.2-0.6,3.4
			c0,1.3,0.2,2.4,0.6,3.4s1,1.9,1.7,2.7c0.7,0.8,1.5,1.4,2.4,1.8C190.9,121.8,191.8,122,192.8,122z"/>
		<path class="st0" d="M210.8,100.2h3.8l1.2,2.6c0.5-0.5,1-1,1.7-1.5c0.5-0.4,1.2-0.7,2.1-1c0.8-0.3,1.8-0.5,3-0.5
			c0.3,0,0.6,0,0.8,0.1c0.2,0,0.4,0.1,0.5,0.1c0.2,0,0.3,0.1,0.5,0.1v5.3c-0.2,0-0.3-0.1-0.5-0.1s-0.4-0.1-0.6-0.1
			c-0.2,0-0.4-0.1-0.6-0.1c-0.9,0-1.7,0.2-2.5,0.5c-0.8,0.4-1.5,0.8-2.1,1.4s-1,1.3-1.4,2.1c-0.3,0.8-0.5,1.6-0.5,2.5v15h-5.4V100.2
			z"/>
		<path class="st0" d="M227.9,89.6h5.3v13.2c0.5-0.5,1.2-1,1.9-1.5c0.6-0.4,1.4-0.7,2.3-1c0.9-0.3,2-0.5,3.1-0.5
			c1.4,0,2.8,0.3,4.1,0.9s2.4,1.4,3.4,2.4s1.7,2.2,2.3,3.6c0.5,1.4,0.8,3,0.8,4.6v15.3h-5.3v-15.3c0-0.9-0.2-1.7-0.5-2.5
			s-0.8-1.5-1.4-2.1c-0.6-0.6-1.2-1.1-2-1.4c-0.7-0.4-1.5-0.5-2.4-0.5s-1.7,0.2-2.5,0.5c-0.8,0.4-1.5,0.8-2.1,1.4s-1,1.3-1.4,2.1
			c-0.3,0.8-0.5,1.6-0.5,2.5v15.3h-5.3v-37H227.9z"/>
		<path class="st0" d="M259.2,89.6c0.9,0,1.7,0.3,2.3,0.9s0.9,1.4,0.9,2.3s-0.3,1.7-0.9,2.3c-0.6,0.6-1.4,0.9-2.3,0.9
			s-1.7-0.3-2.3-0.9s-0.9-1.4-0.9-2.3s0.3-1.7,0.9-2.3C257.5,89.9,258.3,89.6,259.2,89.6z M256.5,100.2h5.3v26.5h-5.3V100.2z"/>
		<path class="st0" d="M269.8,105.2h-4.7v-5h2.1c1,0,1.9-0.3,2.5-1c0.7-0.7,1-1.5,1-2.5v-3.5h4.4v7.1h5.9v5h-5.9v12.6
			c0,1.2,0.4,2.2,1.2,2.9c0.8,0.8,1.8,1.2,2.9,1.2c0.2,0,0.4,0,0.6,0s0.4,0,0.6-0.1c0.2,0,0.4-0.1,0.5-0.2v4.7
			c-0.2,0.1-0.5,0.2-0.8,0.3c-0.6,0.2-1.3,0.3-2.1,0.3c-1.2,0-2.3-0.2-3.3-0.6s-1.9-1-2.6-1.8s-1.3-1.7-1.7-2.9
			c-0.4-1.1-0.6-2.4-0.6-3.8V105.2L269.8,105.2z"/>
		<path class="st0" d="M307.8,119c-0.4,1.1-1,2.1-1.6,3.1c-0.7,1-1.5,1.8-2.4,2.5s-2,1.3-3.3,1.7c-1.2,0.4-2.6,0.6-4.1,0.6
			c-1.8,0-3.4-0.3-4.9-1s-2.9-1.6-4-2.8c-1.2-1.2-2.1-2.6-2.7-4.3s-1-3.5-1-5.5s0.3-3.8,1-5.5s1.5-3.1,2.6-4.3
			c1.1-1.2,2.4-2.1,3.9-2.8c1.5-0.7,3.1-1,4.8-1c1.7,0,3.3,0.3,4.8,1s2.8,1.6,3.9,2.8c1.1,1.2,2,2.6,2.6,4.3c0.6,1.6,1,3.5,1,5.5
			c0,0.3,0,0.6-0.1,0.9c0,0.3-0.1,0.5-0.1,0.7c0,0.3-0.1,0.5-0.1,0.7h-18.8c0.1,0.8,0.3,1.6,0.7,2.4s0.9,1.4,1.5,2s1.3,1,2.2,1.4
			c0.8,0.3,1.7,0.5,2.7,0.5c1.6,0,2.9-0.3,3.8-1s1.6-1.3,2.1-1.9L307.8,119L307.8,119z M303.4,111.4c-0.3-1.9-1.1-3.5-2.4-4.7
			s-2.9-1.8-5-1.8c-1.8,0-3.3,0.6-4.5,1.8c-1.2,1.2-2,2.8-2.3,4.7H303.4z"/>
		<path class="st0" d="M312.8,89.6h5.3v22l9.1-11.5h6.2l-10.3,12.3l11.8,14.1h-6.5L318.1,114v12.6h-5.3V89.6z"/>
		<path class="st0" d="M338.8,105.2h-4.7v-5h2.1c1,0,1.9-0.3,2.5-1c0.7-0.7,1-1.5,1-2.5v-3.5h4.4v7.1h5.9v5h-5.9v12.6
			c0,1.2,0.4,2.2,1.2,2.9c0.8,0.8,1.8,1.2,2.9,1.2c0.2,0,0.4,0,0.6,0s0.4,0,0.6-0.1c0.2,0,0.4-0.1,0.5-0.2v4.7
			c-0.2,0.1-0.5,0.2-0.8,0.3c-0.6,0.2-1.3,0.3-2.1,0.3c-1.2,0-2.3-0.2-3.3-0.6s-1.9-1-2.6-1.8s-1.3-1.7-1.7-2.9
			c-0.4-1.1-0.6-2.4-0.6-3.8V105.2z"/>
		<path class="st0" d="M354.7,100.2h5.3v15.3c0,0.9,0.2,1.7,0.5,2.5s0.8,1.5,1.4,2.1s1.2,1,2,1.4c0.7,0.3,1.5,0.5,2.4,0.5
			s1.7-0.2,2.5-0.5s1.5-0.8,2.1-1.4s1.1-1.3,1.4-2.1c0.4-0.8,0.5-1.6,0.5-2.5v-15.3h5.3v26.5h-3.8l-1.2-2.6c-0.5,0.6-1.1,1-1.8,1.5
			c-0.6,0.4-1.4,0.7-2.4,1s-2.1,0.4-3.4,0.4c-1.5,0-2.9-0.3-4.1-0.8c-1.3-0.6-2.4-1.4-3.3-2.4c-1-1-1.7-2.2-2.3-3.6
			c-0.5-1.4-0.8-3-0.8-4.6v-15.4H354.7z"/>
		<path class="st0" d="M383.6,100.2h3.8l1.2,2.6c0.5-0.5,1-1,1.7-1.5c0.5-0.4,1.2-0.7,2.1-1c0.8-0.3,1.8-0.5,3-0.5
			c0.3,0,0.6,0,0.8,0.1c0.2,0,0.4,0.1,0.5,0.1c0.2,0,0.3,0.1,0.5,0.1v5.3c-0.2,0-0.3-0.1-0.5-0.1s-0.4-0.1-0.6-0.1s-0.4-0.1-0.6-0.1
			c-0.9,0-1.7,0.2-2.5,0.5c-0.8,0.4-1.5,0.8-2.1,1.4s-1,1.3-1.4,2.1c-0.3,0.8-0.5,1.6-0.5,2.5v15h-5.3v-26.4H383.6z"/>
		<path class="st0" d="M419.2,124c-0.5,0.6-1.1,1-1.8,1.5c-0.6,0.4-1.4,0.7-2.4,1s-2.1,0.4-3.4,0.4c-1.8,0-3.4-0.3-4.9-1
			s-2.9-1.6-4-2.8c-1.2-1.2-2.1-2.6-2.7-4.3s-1-3.5-1-5.5s0.3-3.8,1-5.5s1.6-3.1,2.7-4.3c1.2-1.2,2.5-2.1,4-2.8c1.5-0.7,3.2-1,4.9-1
			c1.3,0,2.5,0.2,3.4,0.5c1,0.3,1.8,0.6,2.4,1c0.7,0.4,1.3,0.9,1.8,1.5l1.2-2.6h3.8v26.5h-3.8L419.2,124z M411.9,122
			c1,0,2-0.2,2.9-0.6s1.7-1,2.4-1.8c0.7-0.8,1.3-1.7,1.7-2.7s0.6-2.2,0.6-3.4c0-1.3-0.2-2.4-0.6-3.4s-1-1.9-1.7-2.7
			c-0.7-0.8-1.5-1.4-2.4-1.8s-1.9-0.6-2.9-0.6s-2,0.2-2.9,0.6s-1.7,1-2.4,1.8c-0.7,0.8-1.3,1.7-1.7,2.7c-0.4,1-0.6,2.2-0.6,3.4
			c0,1.3,0.2,2.4,0.6,3.4s1,1.9,1.7,2.7c0.7,0.8,1.5,1.4,2.4,1.8S410.8,122,411.9,122z"/>
		<path class="st0" d="M429,131.1c0.4-0.3,0.8-0.6,1.1-1.1c0.3-0.4,0.6-0.8,0.9-1.3s0.5-1.1,0.6-1.8c-1,0-1.9-0.3-2.5-0.9
			s-1-1.4-1-2.3s0.3-1.7,0.9-2.3c0.6-0.6,1.4-0.9,2.3-0.9s1.7,0.3,2.3,1c0.6,0.7,0.9,1.5,0.9,2.5c0,1.5-0.2,2.8-0.7,3.8
			s-1,1.9-1.6,2.6c-0.7,0.8-1.5,1.4-2.4,1.9L429,131.1z"/>
		<path class="st0" d="M458.5,94.9h-11.2v-5.3h27.9v5.3H464v31.7h-5.6V94.9H458.5z"/>
		<path class="st0" d="M493.5,124c-0.5,0.6-1.1,1-1.8,1.5c-0.6,0.4-1.4,0.7-2.4,1s-2.1,0.4-3.4,0.4c-1.8,0-3.4-0.3-4.9-1
			s-2.9-1.6-4-2.8c-1.2-1.2-2.1-2.6-2.7-4.3s-1-3.5-1-5.5s0.3-3.8,1-5.5s1.6-3.1,2.7-4.3c1.2-1.2,2.5-2.1,4-2.8c1.5-0.7,3.2-1,4.9-1
			c1.3,0,2.5,0.2,3.4,0.5c1,0.3,1.8,0.6,2.4,1c0.7,0.4,1.3,0.9,1.8,1.5l1.2-2.6h3.8v26.5h-3.8L493.5,124z M486.2,122
			c1,0,2-0.2,2.9-0.6s1.7-1,2.4-1.8c0.7-0.8,1.3-1.7,1.7-2.7s0.6-2.2,0.6-3.4c0-1.3-0.2-2.4-0.6-3.4s-1-1.9-1.7-2.7
			c-0.7-0.8-1.5-1.4-2.4-1.8s-1.9-0.6-2.9-0.6s-2,0.2-2.9,0.6s-1.7,1-2.4,1.8c-0.7,0.8-1.3,1.7-1.7,2.7c-0.4,1-0.6,2.2-0.6,3.4
			c0,1.3,0.2,2.4,0.6,3.4s1,1.9,1.7,2.7c0.7,0.8,1.5,1.4,2.4,1.8S485.2,122,486.2,122z"/>
		<path class="st0" d="M523,124c-0.5,0.6-1.1,1-1.8,1.5c-0.6,0.4-1.4,0.7-2.4,1s-2.1,0.4-3.4,0.4c-1.8,0-3.4-0.3-4.9-1
			s-2.9-1.6-4-2.8c-1.2-1.2-2.1-2.6-2.7-4.3s-1-3.5-1-5.5s0.3-3.8,1-5.5s1.6-3.1,2.7-4.3c1.2-1.2,2.5-2.1,4-2.8c1.5-0.7,3.2-1,4.9-1
			c1.3,0,2.3,0.2,3.2,0.5s1.7,0.6,2.3,1c0.7,0.4,1.3,0.9,1.8,1.5V89.6h5.3v37h-3.8L523,124z M515.6,122c1,0,2-0.2,2.9-0.6
			s1.7-1,2.4-1.8s1.3-1.7,1.7-2.7s0.6-2.2,0.6-3.4c0-1.3-0.2-2.4-0.6-3.4c-0.4-1-1-1.9-1.7-2.7c-0.7-0.8-1.5-1.4-2.4-1.8
			s-1.9-0.6-2.9-0.6s-2,0.2-2.9,0.6s-1.7,1-2.4,1.8s-1.3,1.7-1.7,2.7c-0.4,1-0.6,2.2-0.6,3.4c0,1.3,0.2,2.4,0.6,3.4s1,1.9,1.7,2.7
			c0.7,0.8,1.5,1.4,2.4,1.8S514.6,122,515.6,122z"/>
		<path class="st0" d="M556.6,119c-0.4,1.1-1,2.1-1.6,3.1c-0.7,1-1.5,1.8-2.4,2.5s-2,1.3-3.3,1.7c-1.2,0.4-2.6,0.6-4.1,0.6
			c-1.8,0-3.4-0.3-4.9-1s-2.9-1.6-4-2.8c-1.2-1.2-2.1-2.6-2.7-4.3c-0.6-1.6-1-3.5-1-5.5s0.3-3.8,1-5.5c0.6-1.6,1.5-3.1,2.6-4.3
			c1.1-1.2,2.4-2.1,3.9-2.8c1.5-0.7,3.1-1,4.8-1s3.3,0.3,4.8,1s2.8,1.6,3.9,2.8c1.1,1.2,2,2.6,2.6,4.3c0.6,1.6,1,3.5,1,5.5
			c0,0.3,0,0.6-0.1,0.9s-0.1,0.5-0.1,0.7c0,0.3-0.1,0.5-0.1,0.7h-18.8c0.1,0.8,0.3,1.6,0.7,2.4c0.4,0.7,0.9,1.4,1.5,2s1.3,1,2.2,1.4
			c0.8,0.3,1.7,0.5,2.7,0.5c1.6,0,2.9-0.3,3.8-1c0.9-0.7,1.6-1.3,2.1-1.9L556.6,119L556.6,119z M552.1,111.4
			c-0.3-1.9-1.1-3.5-2.4-4.7c-1.3-1.2-2.9-1.8-5-1.8c-1.8,0-3.3,0.6-4.5,1.8c-1.2,1.2-2,2.8-2.3,4.7H552.1z"/>
		<path class="st0" d="M555.4,131.1c0.2,0.1,0.3,0.1,0.5,0.2c0.2,0,0.4,0.1,0.6,0.1c0.2,0,0.4,0,0.6,0c1.2,0,2.2-0.4,2.9-1.2
			c0.8-0.8,1.2-1.8,1.2-2.9v-27h5.3v27c0,1.4-0.2,2.7-0.6,3.8c-0.4,1.1-1,2.1-1.7,2.9c-0.7,0.8-1.6,1.4-2.6,1.8
			c-1,0.4-2.1,0.6-3.3,0.6c-0.8,0-1.5-0.1-2.1-0.3c-0.3-0.1-0.6-0.2-0.8-0.3L555.4,131.1L555.4,131.1z M564,96.1
			c-0.9,0-1.7-0.3-2.3-0.9s-0.9-1.4-0.9-2.3s0.3-1.7,0.9-2.3c0.6-0.6,1.4-0.9,2.3-0.9c0.9,0,1.7,0.3,2.3,0.9s0.9,1.4,0.9,2.3
			s-0.3,1.7-0.9,2.3C565.6,95.8,564.9,96.1,564,96.1z"/>
		<path class="st0" d="M584.7,89.6h14.7c1.5,0,2.8,0.3,4.1,0.8s2.4,1.3,3.4,2.2c1,0.9,1.7,2,2.3,3.3c0.5,1.2,0.8,2.6,0.8,4
			c0,1.2-0.2,2.2-0.6,3.1c-0.4,0.9-0.9,1.6-1.3,2.2c-0.5,0.7-1.2,1.3-1.9,1.8c1,0.5,1.9,1.3,2.6,2.1c0.7,0.7,1.3,1.7,1.8,2.8
			c0.5,1.1,0.8,2.5,0.8,4.2c0,1.4-0.3,2.8-0.9,4c-0.6,1.3-1.4,2.4-2.5,3.3c-1.1,1-2.3,1.7-3.7,2.3c-1.4,0.6-3,0.9-4.7,0.9h-15v-37
			C584.6,89.6,584.7,89.6,584.7,89.6z M599.4,104.9c1.5,0,2.7-0.5,3.8-1.5c1-1,1.5-2.2,1.5-3.5s-0.5-2.5-1.5-3.5s-2.3-1.5-3.8-1.5
			h-9.1v10H599.4z M599.7,121.4c0.9,0,1.7-0.2,2.4-0.5c0.8-0.3,1.4-0.7,2-1.3c0.5-0.5,1-1.1,1.3-1.9c0.3-0.7,0.5-1.5,0.5-2.3
			s-0.2-1.6-0.5-2.3c-0.3-0.7-0.7-1.3-1.3-1.9c-0.5-0.5-1.2-1-2-1.3s-1.6-0.5-2.4-0.5h-9.4v11.8h9.4V121.4z"/>
		<path class="st0" d="M634.4,124c-0.5,0.6-1.1,1-1.8,1.5c-0.6,0.4-1.4,0.7-2.4,1s-2.1,0.4-3.4,0.4c-1.8,0-3.4-0.3-4.9-1
			s-2.9-1.6-4-2.8c-1.2-1.2-2.1-2.6-2.7-4.3c-0.6-1.6-1-3.5-1-5.5s0.3-3.8,1-5.5c0.6-1.6,1.6-3.1,2.7-4.3c1.2-1.2,2.5-2.1,4-2.8
			c1.5-0.7,3.2-1,4.9-1c1.3,0,2.5,0.2,3.4,0.5c1,0.3,1.8,0.6,2.4,1c0.7,0.4,1.3,0.9,1.8,1.5l1.2-2.6h3.8v26.5h-3.8L634.4,124z
			 M627,122c1,0,2-0.2,2.9-0.6s1.7-1,2.4-1.8s1.3-1.7,1.7-2.7s0.6-2.2,0.6-3.4c0-1.3-0.2-2.4-0.6-3.4c-0.4-1-1-1.9-1.7-2.7
			c-0.7-0.8-1.5-1.4-2.4-1.8S628,105,627,105s-2,0.2-2.9,0.6s-1.7,1-2.4,1.8s-1.3,1.7-1.7,2.7s-0.6,2.2-0.6,3.4
			c0,1.3,0.2,2.4,0.6,3.4s1,1.9,1.7,2.7c0.7,0.8,1.5,1.4,2.4,1.8C625.1,121.8,626,122,627,122z"/>
		<path class="st0" d="M639.2,131.1c0.2,0.1,0.3,0.1,0.5,0.2c0.2,0,0.4,0.1,0.6,0.1c0.2,0,0.4,0,0.6,0c1.2,0,2.2-0.4,2.9-1.2
			c0.8-0.8,1.2-1.8,1.2-2.9v-27h5.3v27c0,1.4-0.2,2.7-0.6,3.8c-0.4,1.1-1,2.1-1.7,2.9c-0.7,0.8-1.6,1.4-2.6,1.8
			c-1,0.4-2.1,0.6-3.3,0.6c-0.8,0-1.5-0.1-2.1-0.3c-0.3-0.1-0.6-0.2-0.8-0.3L639.2,131.1L639.2,131.1z M647.7,96.1
			c-0.9,0-1.7-0.3-2.3-0.9s-0.9-1.4-0.9-2.3s0.3-1.7,0.9-2.3c0.6-0.6,1.4-0.9,2.3-0.9c0.9,0,1.7,0.3,2.3,0.9s0.9,1.4,0.9,2.3
			s-0.3,1.7-0.9,2.3S648.6,96.1,647.7,96.1z"/>
		<path class="st0" d="M674.8,124c-0.5,0.6-1.1,1-1.8,1.5c-0.6,0.4-1.4,0.7-2.4,1s-2.1,0.4-3.4,0.4c-1.8,0-3.4-0.3-4.9-1
			s-2.9-1.6-4-2.8c-1.2-1.2-2.1-2.6-2.7-4.3c-0.6-1.6-1-3.5-1-5.5s0.3-3.8,1-5.5c0.6-1.6,1.6-3.1,2.7-4.3c1.2-1.2,2.5-2.1,4-2.8
			c1.5-0.7,3.2-1,4.9-1c1.3,0,2.3,0.2,3.2,0.5s1.7,0.6,2.3,1c0.7,0.4,1.3,0.9,1.8,1.5V89.6h5.3v37H676L674.8,124z M667.4,122
			c1,0,2-0.2,2.9-0.6s1.7-1,2.4-1.8s1.3-1.7,1.7-2.7s0.6-2.2,0.6-3.4c0-1.3-0.2-2.4-0.6-3.4c-0.4-1-1-1.9-1.7-2.7
			c-0.7-0.8-1.5-1.4-2.4-1.8s-1.9-0.6-2.9-0.6s-2,0.2-2.9,0.6s-1.7,1-2.4,1.8s-1.3,1.7-1.7,2.7s-0.6,2.2-0.6,3.4
			c0,1.3,0.2,2.4,0.6,3.4s1,1.9,1.7,2.7c0.7,0.8,1.5,1.4,2.4,1.8S666.4,122,667.4,122z"/>
		<path class="st0" d="M704.5,124c-0.5,0.6-1.1,1-1.8,1.5c-0.6,0.4-1.4,0.7-2.4,1s-2.1,0.4-3.4,0.4c-1.8,0-3.4-0.3-4.9-1
			s-2.9-1.6-4-2.8c-1.2-1.2-2.1-2.6-2.7-4.3c-0.6-1.6-1-3.5-1-5.5s0.3-3.8,1-5.5c0.6-1.6,1.6-3.1,2.7-4.3c1.2-1.2,2.5-2.1,4-2.8
			c1.5-0.7,3.2-1,4.9-1c1.3,0,2.5,0.2,3.4,0.5c1,0.3,1.8,0.6,2.4,1c0.7,0.4,1.3,0.9,1.8,1.5l1.2-2.6h3.8v26.5h-3.8L704.5,124z
			 M697.2,122c1,0,2-0.2,2.9-0.6s1.7-1,2.4-1.8s1.3-1.7,1.7-2.7s0.6-2.2,0.6-3.4c0-1.3-0.2-2.4-0.6-3.4c-0.4-1-1-1.9-1.7-2.7
			c-0.7-0.8-1.5-1.4-2.4-1.8s-1.9-0.6-2.9-0.6s-2,0.2-2.9,0.6s-1.7,1-2.4,1.8s-1.3,1.7-1.7,2.7s-0.6,2.2-0.6,3.4
			c0,1.3,0.2,2.4,0.6,3.4s1,1.9,1.7,2.7c0.7,0.8,1.5,1.4,2.4,1.8S696.2,122,697.2,122z"/>
		<path class="st0" d="M730.5,118.1c0.2,1.2,0.6,2.1,1.4,2.8c0.7,0.7,1.9,1,3.4,1c1.6,0,2.8-0.3,3.6-0.9c0.7-0.6,1.1-1.4,1.1-2.3
			c0-0.8-0.4-1.4-1.1-1.8c-0.7-0.4-1.6-0.8-2.6-1c-1-0.3-2.2-0.6-3.4-0.9s-2.3-0.7-3.4-1.3c-1-0.5-1.9-1.3-2.6-2.2
			c-0.7-0.9-1.1-2.2-1.1-3.7c0-1.1,0.2-2.1,0.6-3.1c0.4-1,1-1.8,1.8-2.5s1.7-1.3,2.9-1.7c1.1-0.4,2.4-0.6,3.8-0.6
			c3.1,0,5.4,0.7,7.1,2.2c1.6,1.5,2.5,3.5,2.6,6h-5.3c-0.2-0.9-0.6-1.7-1.3-2.3c-0.7-0.6-1.8-0.9-3.1-0.9s-2.4,0.3-3.1,0.9
			c-0.7,0.6-1.1,1.3-1.1,2c0,0.8,0.4,1.4,1.1,1.8c0.7,0.4,1.6,0.8,2.6,1c1,0.3,2.2,0.6,3.4,0.9s2.3,0.7,3.4,1.3
			c1,0.6,1.9,1.3,2.6,2.2c0.7,0.9,1.1,2.2,1.1,3.7c0,2.4-0.8,4.3-2.5,5.9s-4.1,2.3-7.2,2.3c-3.3,0-5.7-0.8-7.3-2.3s-2.5-3.7-2.7-6.5
			H730.5z"/>
		<path class="st0" d="M747.3,123.4c0-0.9,0.3-1.7,0.9-2.3c0.6-0.6,1.4-0.9,2.3-0.9c0.9,0,1.7,0.3,2.3,0.9s0.9,1.4,0.9,2.3
			s-0.3,1.7-0.9,2.3c-0.6,0.6-1.4,0.9-2.3,0.9c-0.9,0-1.7-0.3-2.3-0.9C747.7,125,747.3,124.3,747.3,123.4z"/>
		<path class="st0" d="M757.7,100.2h3.8l1.2,2.6c0.5-0.5,1.1-1,1.8-1.5c0.6-0.4,1.4-0.7,2.4-1s2.1-0.5,3.4-0.5c1.8,0,3.4,0.3,4.9,1
			s2.9,1.6,4,2.8c1.2,1.2,2.1,2.6,2.7,4.3c0.6,1.6,1,3.5,1,5.5s-0.3,3.8-1,5.5c-0.6,1.6-1.6,3.1-2.7,4.3c-1.2,1.2-2.5,2.1-4,2.8
			c-1.5,0.7-3.2,1-4.9,1c-1.3,0-2.3-0.1-3.2-0.4s-1.7-0.6-2.3-1c-0.7-0.4-1.3-0.9-1.8-1.5v12.1h-5.3L757.7,100.2L757.7,100.2z
			 M770,122c1,0,2-0.2,2.9-0.6s1.7-1,2.4-1.8s1.3-1.7,1.7-2.7s0.6-2.2,0.6-3.4c0-1.3-0.2-2.4-0.6-3.4c-0.4-1-1-1.9-1.7-2.7
			c-0.7-0.8-1.5-1.4-2.4-1.8S771,105,770,105s-2,0.2-2.9,0.6s-1.7,1-2.4,1.8s-1.3,1.7-1.7,2.7s-0.6,2.2-0.6,3.4
			c0,1.3,0.2,2.4,0.6,3.4s1,1.9,1.7,2.7c0.7,0.8,1.5,1.4,2.4,1.8S769,122,770,122z"/>
		<path class="st0" d="M785.4,123.4c0-0.9,0.3-1.7,0.9-2.3c0.6-0.6,1.4-0.9,2.3-0.9c0.9,0,1.7,0.3,2.3,0.9s0.9,1.4,0.9,2.3
			s-0.3,1.7-0.9,2.3c-0.6,0.6-1.4,0.9-2.3,0.9c-0.9,0-1.7-0.3-2.3-0.9C785.7,125,785.4,124.3,785.4,123.4z"/>
	</g>
</g>
</svg>
