<?xml version="1.0" encoding="utf-8"?>
<!-- Generator: Adobe Illustrator 19.0.0, SVG Export Plug-In . SVG Version: 6.00 Build 0)  -->
<svg version="1.1" id="Layer_1" xmlns="http://www.w3.org/2000/svg" xmlns:xlink="http://www.w3.org/1999/xlink" x="0px" y="0px"
	 viewBox="-285.9 484 144.6 35.2" style="enable-background:new -285.9 484 144.6 35.2;" xml:space="preserve">
<style type="text/css">
	.st0{fill:#282525;}
	.st1{fill:#333132;}
</style>
<path class="st0" d="M-271.9,493.6C-271.8,493.5-272.1,493.8-271.9,493.6L-271.9,493.6z"/>
<path class="st0" d="M-271.9,493.6C-271.8,493.5-272.1,493.8-271.9,493.6L-271.9,493.6z"/>
<g id="XMLID_1043_">
	<g id="XMLID_998_">
		<path id="XMLID_1023_" class="st1" d="M-228.6,508.8c0,1.1-0.2,2.2-0.6,3.1c-0.4,1-1,1.8-1.7,2.5c-0.7,0.7-1.6,1.3-2.6,1.7
			c-1,0.4-2.1,0.6-3.2,0.6c-1.2,0-2.3-0.2-3.2-0.6c-1-0.4-1.8-1-2.6-1.7c-0.7-0.7-1.3-1.6-1.7-2.5c-0.4-1-0.6-2-0.6-3.1
			c0-1.1,0.2-2.2,0.6-3.1c0.4-1,1-1.8,1.7-2.5s1.6-1.3,2.6-1.7c1-0.4,2.1-0.6,3.2-0.6c1.2,0,2.2,0.2,3.2,0.6c1,0.4,1.9,1,2.6,1.7
			c0.7,0.7,1.3,1.6,1.7,2.5C-228.8,506.6-228.6,507.7-228.6,508.8z M-239.6,508.8c0,0.8,0.3,1.6,0.8,2.1c0.6,0.6,1.2,0.9,2,0.9
			c0.8,0,1.4-0.3,2-0.9c0.6-0.6,0.8-1.3,0.8-2.1c0-0.8-0.3-1.6-0.8-2.1c-0.6-0.6-1.2-0.9-2-0.9c-0.8,0-1.4,0.3-2,0.9
			C-239.3,507.2-239.6,508-239.6,508.8z"/>
		<path id="XMLID_1021_" class="st1" d="M-208.5,500.8c1.6,0,2.9,0.5,3.9,1.6c1,1.1,1.5,2.6,1.5,4.7v9.3h-5.3v-8.3
			c0-0.8-0.1-1.4-0.4-1.8c-0.3-0.4-0.7-0.5-1.2-0.5c-0.5,0-0.9,0.2-1.2,0.5c-0.3,0.4-0.4,1-0.4,1.8v8.3h-5.3v-8.3
			c0-0.8-0.1-1.4-0.4-1.8c-0.3-0.4-0.7-0.5-1.2-0.5c-0.5,0-0.9,0.2-1.2,0.5c-0.3,0.4-0.4,1-0.4,1.8v8.3h-5.3v-15.3h3.8l0.8,1.5
			c0.4-0.3,0.7-0.6,1.1-0.9c0.4-0.2,0.8-0.5,1.3-0.6c0.5-0.2,1-0.3,1.6-0.3c0.8,0,1.4,0.1,1.9,0.3c0.5,0.2,0.9,0.4,1.3,0.7
			c0.4,0.3,0.7,0.6,1,1c0.4-0.4,0.8-0.7,1.2-1c0.4-0.2,0.9-0.5,1.4-0.7C-209.8,500.9-209.2,500.8-208.5,500.8z"/>
		<path id="XMLID_1019_" class="st1" d="M-190.7,500.8c0.9,0,1.7,0.1,2.5,0.4c0.8,0.3,1.4,0.7,1.9,1.3c0.5,0.6,1,1.3,1.3,2.1
			c0.3,0.8,0.4,1.8,0.4,2.8v9h-5.3v-8c0-0.8-0.2-1.5-0.7-2c-0.4-0.5-1-0.7-1.7-0.7s-1.2,0.2-1.7,0.7c-0.4,0.5-0.7,1.1-0.7,2v8h-5.3
			v-20.9h5.3v6.8c0.3-0.3,0.6-0.5,1-0.7c0.3-0.2,0.7-0.3,1.2-0.5C-191.8,500.9-191.3,500.8-190.7,500.8z"/>
		<path id="XMLID_1016_" class="st1" d="M-181.4,497c0-0.8,0.3-1.4,0.8-1.9c0.5-0.5,1.2-0.8,2-0.8c0.8,0,1.5,0.3,2,0.8
			c0.5,0.5,0.8,1.1,0.8,1.9c0,0.8-0.3,1.4-0.8,1.9c-0.5,0.5-1.2,0.8-2,0.8c-0.8,0-1.5-0.3-2-0.8C-181.2,498.4-181.4,497.7-181.4,497
			z M-181.2,501.1h5.3v15.3h-5.3V501.1z"/>
		<path id="XMLID_1002_" class="st1" d="M-168.3,511.3c0.1,0.2,0.2,0.5,0.3,0.7c0.1,0.2,0.3,0.3,0.5,0.5c0.2,0.1,0.5,0.2,0.8,0.2
			c0.5,0,0.9-0.1,1.1-0.3c0.2-0.2,0.4-0.4,0.4-0.7c0-0.2-0.2-0.4-0.6-0.5c-0.4-0.1-0.9-0.3-1.4-0.4c-0.6-0.2-1.2-0.3-1.9-0.6
			c-0.7-0.2-1.3-0.5-1.9-0.9s-1.1-0.8-1.4-1.4c-0.4-0.6-0.6-1.3-0.6-2.1c0-0.6,0.1-1.2,0.4-1.8c0.3-0.6,0.7-1.1,1.2-1.5
			c0.5-0.5,1.2-0.8,2-1.1c0.8-0.3,1.7-0.4,2.7-0.4c2.1,0,3.8,0.4,4.9,1.3c1.1,0.9,1.8,2.1,2.1,3.5l-5,0.5c-0.1-0.2-0.2-0.4-0.3-0.6
			c-0.1-0.2-0.3-0.3-0.4-0.4c-0.2-0.1-0.4-0.2-0.8-0.2c-0.8,0-1.2,0.3-1.2,0.8c0,0.2,0.2,0.4,0.6,0.5c0.4,0.1,0.9,0.3,1.4,0.4
			c0.6,0.2,1.2,0.3,1.9,0.5c0.7,0.2,1.3,0.5,1.9,0.9c0.6,0.4,1.1,0.9,1.4,1.4c0.4,0.6,0.6,1.3,0.6,2.2c0,0.7-0.1,1.3-0.4,1.9
			c-0.3,0.6-0.7,1.1-1.3,1.6c-0.6,0.5-1.3,0.8-2.1,1.1c-0.8,0.3-1.8,0.4-2.9,0.4c-2.2,0-3.9-0.5-5-1.4c-1.1-0.9-1.8-2.1-2.1-3.6
			L-168.3,511.3z M-164.8,494.7h4.3l-3.5,4.7h-4.7l-3.5-4.7h4.3l1.5,2L-164.8,494.7z"/>
		<path id="XMLID_999_" class="st1" d="M-150.5,516.8c-0.9,0-1.7-0.2-2.6-0.6c-0.8-0.4-1.6-1-2.2-1.7c-0.7-0.7-1.2-1.6-1.6-2.5
			c-0.4-1-0.6-2-0.6-3.1c0-1.1,0.2-2.2,0.6-3.1c0.4-1,0.9-1.8,1.6-2.5s1.4-1.3,2.2-1.7c0.8-0.4,1.7-0.6,2.6-0.6
			c0.7,0,1.3,0.1,1.8,0.3s1,0.4,1.4,0.6c0.5,0.3,0.9,0.6,1.3,0.9l0.8-1.5h3.8v15.3h-3.8l-0.8-1.5c-0.4,0.4-0.8,0.7-1.3,0.9
			c-0.4,0.2-0.9,0.5-1.4,0.6C-149.2,516.7-149.8,516.8-150.5,516.8z M-146.5,508.8c0-0.8-0.3-1.6-0.8-2.1c-0.6-0.6-1.2-0.9-2-0.9
			s-1.4,0.3-2,0.9c-0.6,0.6-0.8,1.3-0.8,2.1c0,0.8,0.3,1.6,0.8,2.1c0.6,0.6,1.2,0.9,2,0.9s1.4-0.3,2-0.9
			C-146.8,510.3-146.5,509.6-146.5,508.8z"/>
	</g>
	<g id="XMLID_372_">
		<g id="XMLID_1038_">
			<path class="st1" d="M-266.3,484.8c-0.8-0.6-2-0.6-2.8,0l-15.4,11.6c-0.8,0.6-1.4,1.9-1.4,2.8v18.1c0,1,0.8,1.8,1.8,1.8h33
				c1,0,1.8-0.8,1.8-1.8v-18.1c0-1-0.6-2.2-1.4-2.8L-266.3,484.8z M-270.3,495.8c0.1-0.1,0.2-0.1,0.2-0.1c0.1,0,0.1,0,0.1,0
				c0.1,0.1,0.2,0.2,0.3,0.2s0.2,0.2,0.4,0.4c0,0,0,0,0.2,0.1c0.3,0.2,0.5,0.4,0.8,0.6c0.1,0.1,0.1,0.1,0.1,0.1
				c0.2,0.1,0.3,0.1,0.4,0.1c0,0,0.2,0.1,0.3,0.1c0.1,0,0.5,0.1,0.5,0.1c0.1,0,0.2,0,0.4,0.1c0,0,0,0,0.2,0c0,0,0,0,0,0
				c0,0-0.1,0-0.2-0.1c0,0,0,0-0.1,0c-0.4-0.2-0.7-0.5-0.9-0.7c-0.2-0.2-0.4-0.4-0.6-0.6c-0.1-0.1-0.3-0.4-0.4-0.6
				c0-0.1,0-0.1,0-0.1c0-0.1,0-0.2,0-0.3c0-0.1,0.1-0.3,0.1-0.3c0,0,0.2-0.3,0.4-0.5c0,0,0,0,0.3-0.2c0.2-0.2,0.2-0.2,0.2-0.2
				c0.2-0.1,0.4-0.2,0.4-0.3c0,0,0.1-0.1,0.1-0.1c0,0,0.2-0.1,0.2-0.1s0.2-0.1,0.4-0.2c0,0,0,0,0.2,0c0.2,0,0.4,0,0.5,0.1
				c0.4,0.3,0.7,0.6,0.9,0.8c0.2,0.2,0.2,0.2,0.2,0.2c0.2,0.2,0.3,0.5,0.4,0.5c0,0.1,0.2,0.2,0.2,0.4c0,0,0,0,0.1,0.2
				c0.2,0.4-0.1,0.7-0.2,0.8c-0.3,0.3-0.7,0.6-1,0.8c-0.2,0.1-0.2,0.1-0.2,0.1c-0.2,0.1-0.4,0.2-0.4,0.2c0,0,0,0,0.1,0
				c0.1,0,0.5-0.1,0.5-0.2c0,0,0.2-0.1,0.3-0.1c0,0,0,0,0.1,0c0.3-0.1,0.5-0.2,0.6-0.4c0.2-0.2,0.4-0.3,0.6-0.5
				c0.1-0.1,0.2-0.1,0.2-0.2c0.1-0.1,0.2-0.2,0.3-0.3c0.1-0.1,0.4-0.3,0.8-0.2c0.2,0.1,0.3,0.2,0.4,0.2c0.2,0.2,0.4,0.3,0.5,0.5
				c0.1,0.1,0.2,0.2,0.2,0.3c0.1,0.1,0.2,0.3,0.3,0.4c0,0,0,0,0,0c0,0,0.1,0.3,0.2,0.6c0,0,0,0,0,0.3c0,0.2-0.1,0.3-0.2,0.3
				c-0.2,0.2-0.4,0.4-0.6,0.6c-0.2,0.1-0.2,0.1-0.2,0.1c-0.2,0.1-0.4,0.3-0.4,0.3c0,0-0.1,0.1-0.2,0.1c0,0-0.1,0.1-0.2,0.1
				c0,0-0.2,0.1-0.3,0.2c-0.1,0-0.2,0.1-0.3,0.1c-0.1,0-0.3,0.1-0.3,0.2c0,0-0.1,0-0.2,0.1c-0.1,0-0.3,0.1-0.3,0.1c0,0-0.1,0-0.1,0
				c0,0-0.1,0-0.2,0.1c-0.1,0-0.6,0.1-0.9,0.2c0,0,0,0-0.3,0c-0.2,0-0.5,0-0.7-0.1c-0.3,0-0.5-0.1-0.8-0.2c-0.3-0.1-0.5-0.2-0.7-0.4
				c-0.2-0.1-0.4-0.3-0.6-0.4c-0.2-0.1-0.2-0.1-0.2-0.1c-0.2-0.2-0.3-0.4-0.4-0.4c0,0-0.2-0.2-0.3-0.3c0,0,0,0-0.1-0.1
				c0-0.1-0.1-0.1-0.1-0.2c-0.1-0.1-0.1-0.1-0.2-0.2c-0.1-0.2-0.6-1.1-0.7-1.4C-270.5,496.3-270.4,496-270.3,495.8z M-255.9,507.9
				c0,0.1,0,0.1,0,0.1c0,0.1-0.1,0.3-0.1,0.4c0,0.1-0.1,0.5-0.1,0.5c0,0,0,0.2,0,0.2c0,0,0,0.1,0,0.1c0,0,0,0.2-0.1,0.2
				c0,0.1-0.1,0.2-0.1,0.3c0,0-0.1,0.2-0.1,0.3c0,0,0,0-0.1,0.1c-0.2,0.4-0.3,0.7-0.5,0.9c-0.1,0.2-0.3,0.5-0.5,0.7
				c-0.2,0.2-0.3,0.4-0.5,0.6c-0.2,0.2-0.4,0.3-0.5,0.5c-0.1,0.1-0.1,0.1-0.1,0.1c-0.2,0.1-0.3,0.2-0.3,0.2c0,0-0.2,0.1-0.5,0.2
				c0,0,0,0-0.2,0.1c-0.5,0.2-0.9,0.2-1.4,0.2c-1.2,0-2.1-0.2-2.7-0.6c-0.2-0.2-0.4-0.3-0.5-0.5c-0.1-0.1-0.3-0.3-0.4-0.5
				c-0.1-0.1-0.1-0.1-0.1-0.1c-0.1-0.1-0.1-0.2-0.1-0.3c0,0-0.1-0.1-0.1-0.2c0-0.1-0.1-0.2-0.1-0.3c0,0,0-0.1-0.1-0.2
				c0-0.1-0.1-0.4-0.1-0.4c0-0.1,0-0.1,0-0.2c0,0,0-0.2,0-0.2c0,0-0.1-0.4-0.1-0.9c0,0,0,0,0-0.3c0-0.1,0-0.2,0.1-0.3
				c0.1-0.1,0.2,0,0.3,0c0.2,0,0.2,0,0.2,0c0.2,0.1,0.3,0.2,0.4,0.2c0.1,0,0.2,0.1,0.3,0.1c0,0,0,0,0.1,0c0.2,0.1,0.3,0.2,0.5,0.3
				c0.1,0,0.1,0.1,0.2,0.1c0.1,0.1,0.2,0.1,0.3,0.1c0.2,0.1,0.5,0.2,0.8,0.2c0.3,0,0.5,0.1,0.9,0c0.2,0,0.3,0,0.5-0.1
				c0.3-0.1,0.3-0.1,0.3-0.1c0.3-0.1,0.6-0.2,0.6-0.3c0,0,0.1-0.1,0.2-0.1c0,0,0,0,0.1-0.1c0.2-0.1,0.4-0.3,0.5-0.4
				c0.2-0.2,0.4-0.5,0.5-0.7c0.1-0.2,0.2-0.4,0.4-0.6c0.1-0.2,0.2-0.3,0.2-0.5c0-0.1,0-0.1,0-0.1c0-0.1,0.1-0.3,0.1-0.3
				c0-0.1,0.1-0.2,0.1-0.3c0,0,0,0,0-0.1c0,0,0,0,0,0c0,0,0-0.1,0-0.1c0,0,0.1-0.4,0.1-0.9c0,0,0,0-0.1-0.4c0-0.3-0.1-0.5-0.2-0.7
				c-0.1-0.2-0.2-0.3-0.3-0.4c-0.1-0.1-0.2-0.2-0.4-0.3c-0.1-0.1-0.1-0.1-0.1-0.1c-0.2-0.1-0.3-0.1-0.3-0.1c0,0-0.1,0-0.2,0
				c0,0,0,0-0.1,0c-0.3,0-0.5,0-0.8,0c-0.2,0-0.3,0.1-0.5,0.2c-0.1,0.1-0.1,0.1-0.1,0.1c-0.1,0.1-0.2,0.2-0.3,0.2
				c0,0-0.1,0.1-0.2,0.2c0,0,0,0-0.1,0.1c-0.1,0.1-0.3,0.3-0.4,0.5c-0.1,0.2-0.2,0.3-0.3,0.5c-0.1,0.2-0.1,0.2-0.1,0.2
				c-0.1,0.2-0.2,0.4-0.2,0.4c0,0,0,0.1-0.1,0.1c0,0-0.1,0.2-0.1,0.2c0,0-0.1,0.1-0.1,0.2c0,0,0,0,0,0.1c-0.1,0.2-0.2,0.4-0.2,0.5
				c0,0,0,0.1-0.1,0.1c0,0.1,0,0.1,0,0.1c-0.1,0.1-0.1,0.2-0.2,0.3c0,0-0.1,0.2-0.1,0.2c0,0-0.1,0.1-0.2,0.2c0,0,0,0-0.1,0.1
				c0,0,0,0,0,0c0,0-0.1,0.1-0.1,0.1c0,0-0.2,0.2-0.3,0.3c0,0,0,0-0.2,0.1c0,0,0,0,0,0c0,0-0.1,0.1-0.2,0.1c0,0,0,0,0,0
				c-0.4,0.2-0.4,0.2-0.4,0.2c-0.5,0-0.9,0.1-1,0.1c-0.1,0-0.3,0-0.6,0c0,0,0,0-0.3,0c-0.2,0-0.2,0-0.2,0c-0.2-0.1-0.4-0.1-0.4-0.1
				c0,0,0,0,0,0c0.1,0.5,0.1,0.5,0.1,0.5c0,0.5,0,1,0,1s0,0.2,0,0.3c0,0.1-0.1,0.4-0.1,0.5s-0.1,0.3-0.2,0.6c0,0,0,0-0.1,0.3
				c-0.1,0.3-0.3,0.6-0.5,0.9c0,0-0.1,0.1-0.1,0.1c0,0.1-0.1,0.1-0.1,0.2c-0.2,0.2-0.3,0.3-0.4,0.5c-0.1,0.1-0.2,0.2-0.2,0.2
				c-0.2,0.1-0.3,0.2-0.4,0.3c0,0,0,0,0,0c-0.1,0-0.1,0.1-0.1,0.1c0,0-0.1,0-0.1,0.1c0,0,0,0,0,0c0,0-0.1,0.1-0.1,0.1
				c-0.1,0-0.1,0-0.1,0c-0.1,0-0.2,0.1-0.3,0.1c-0.1,0-0.1,0.1-0.2,0.1c0,0-0.2,0.1-0.2,0.1c0,0-0.1,0-0.1,0.1c0,0-0.1,0-0.1,0.1
				c0,0-0.1,0-0.1,0.1c0,0,0,0,0,0c-0.2,0.1-0.4,0.1-0.6,0.1c-0.2,0-0.4,0-0.7,0c-0.2,0-0.5,0-0.7,0c-0.2,0-0.2,0-0.2,0
				c-0.3-0.1-0.8-0.2-1.1-0.3c0,0,0,0-0.3-0.1c-0.2-0.1-0.4-0.2-0.7-0.3c-0.3-0.2-0.5-0.4-0.8-0.5c-0.2-0.1-0.2-0.1-0.2-0.1
				c-0.1-0.1-0.3-0.3-0.4-0.4c-0.1-0.1-0.2-0.3-0.4-0.4c0,0,0,0-0.1-0.1c-0.2-0.3-0.4-0.5-0.6-0.8c-0.1-0.1-0.1-0.2-0.2-0.3
				c0-0.1-0.1-0.2-0.2-0.2c-0.1-0.2-0.1-0.2-0.1-0.2c-0.1-0.2-0.2-0.5-0.3-0.5c0-0.1-0.1-0.2-0.1-0.3c0,0,0,0,0-0.1
				c-0.1-0.1-0.1-0.2-0.1-0.3c0-0.1-0.1-0.2-0.1-0.4c0-0.1,0-0.1,0-0.1c0-0.2-0.1-0.3-0.1-0.3c0,0-0.1-0.2-0.1-0.4c0,0,0,0,0,0
				c0-0.1,0-0.1-0.1-0.2c0-0.1,0-0.1,0-0.1c0-0.1-0.1-0.2-0.1-0.2c0,0,0-0.1-0.1-0.2c0-0.1-0.1-0.3-0.1-0.4c0,0-0.1-0.4-0.1-0.8
				c0,0,0,0,0-0.4c0-0.1,0.1-0.3,0.2-0.3c0.1-0.1,0.2-0.1,0.3,0c0.1,0,0.2,0.1,0.2,0.2c0.1,0.1,0.1,0.1,0.1,0.1
				c0.1,0.2,0.2,0.3,0.2,0.4c0,0,0.1,0.1,0.1,0.2c0,0.1,0.1,0.3,0.1,0.3c0,0,0,0,0,0.1c0,0,0,0.1,0.1,0.1c0,0,0,0.1,0.1,0.2
				c0,0,0,0,0,0.1c0.1,0.1,0.1,0.1,0.1,0.1c0,0.1,0.1,0.2,0.1,0.3c0,0,0.1,0.2,0.1,0.2c0,0.1,0.2,0.3,0.2,0.4c0,0.1,0.1,0.2,0.2,0.3
				c0.1,0.1,0.2,0.4,0.3,0.4c0,0,0.1,0.2,0.2,0.3c0,0,0,0,0.1,0.1c0.2,0.2,0.4,0.5,0.6,0.7c0.2,0.2,0.4,0.4,0.7,0.5
				c0.2,0.1,0.4,0.2,0.6,0.3c0.1,0,0.2,0.1,0.3,0.1c0.1,0,0.2,0.1,0.3,0.1c0.1,0,0.1,0,0.1,0c0.1,0,0.2,0.1,0.3,0.1
				c0.1,0,0.3,0.1,0.5,0.1c0,0,0,0,0.2,0c0.4,0.1,0.8,0.1,1.3,0c0.4,0,0.7-0.1,0.9-0.3c0.2-0.1,0.2-0.1,0.2-0.1
				c0.3-0.2,0.5-0.4,0.5-0.4c0,0,0.2-0.1,0.3-0.3c0,0,0,0,0.1-0.1c0.1-0.1,0.2-0.3,0.2-0.5c0.1-0.2,0.1-0.4,0-0.6c0-0.1,0-0.1,0-0.1
				c0-0.1-0.1-0.3-0.1-0.3c0,0,0-0.1-0.1-0.2c0-0.1-0.2-0.3-0.2-0.4c0,0-0.1-0.1-0.2-0.2c-0.1-0.1-0.3-0.3-0.5-0.4c0,0,0,0-0.2-0.1
				c0,0-0.1,0-0.1,0c-0.1,0-0.1,0-0.1,0c-0.1,0-0.2-0.1-0.2-0.1s-0.2,0-0.2,0c0,0-0.1,0-0.1,0c-0.1,0-0.2,0-0.3,0c0,0-0.1,0-0.1,0
				c0,0-0.1,0-0.2,0c0,0-0.1,0-0.2,0c0,0,0,0-0.1,0c-0.1,0-0.1,0-0.1,0c-0.1,0-0.2,0-0.2,0c0,0-0.2,0-0.4,0c0,0,0,0-0.1-0.2
				c0-0.1-0.1-0.2-0.1-0.3c0-0.1-0.1-0.1-0.1-0.2c0-0.1-0.1-0.2-0.1-0.3c-0.1-0.3-0.1-0.3-0.1-0.3c-0.1-0.3-0.2-0.6-0.2-0.6
				c0-0.1-0.1-0.2-0.1-0.4c0,0,0,0,0-0.2c-0.1-0.3,0.1-0.6,0.5-0.7c0.4-0.1,0.4-0.1,0.4-0.1c0.5,0,0.9,0.1,0.9,0.1c0,0,0.2,0,0.4,0
				c0,0,0,0,0.1,0c0.2,0,0.4,0.1,0.6,0c0.3,0,0.5-0.1,0.7-0.2c0.3-0.2,0.4-0.4,0.3-0.7c0-0.3-0.2-0.5-0.5-0.8
				c-0.4-0.2-0.8-0.3-1.3-0.3c-0.2,0-0.5,0.1-0.7,0.1c-0.3,0.1-0.6,0.2-0.8,0.3c-0.3,0.1-0.3,0.1-0.3,0.1c-0.3,0.2-0.6,0.3-0.7,0.4
				c-0.1,0-0.3,0.2-0.5,0.3c0,0,0,0-0.2,0.1c0,0-0.1,0.1-0.1,0.1c-0.1,0-0.1,0.1-0.2,0.1c-0.4,0.2-0.6,0-0.7-0.1
				c-0.2-0.2-0.4-0.4-0.6-0.6c-0.1-0.2-0.1-0.2-0.1-0.2c-0.1-0.2-0.2-0.4-0.2-0.4c0,0-0.1-0.1-0.1-0.2c-0.1-0.1-0.2-0.4-0.2-0.4
				c0,0-0.1-0.1-0.1-0.3c0,0,0,0,0-0.1c0,0,0-0.1,0-0.1c0,0,0-0.1-0.1-0.2c-0.1-0.3,0-0.5,0.2-0.7c0.2-0.2,0.4-0.4,0.7-0.6
				c0.1-0.1,0.3-0.2,0.4-0.3c0.1,0,0.1-0.1,0.2-0.1c0.1-0.1,0.1-0.1,0.1-0.1c0.1-0.1,0.2-0.1,0.2-0.1c0,0,0.2-0.1,0.4-0.2
				c0,0,0,0,0.2-0.1c0.3-0.1,0.6-0.2,0.8-0.4c0.4-0.1,0.8-0.2,1.1-0.3c0.5-0.1,1-0.1,1.7,0c0.2,0,0.2,0,0.2,0
				c0.2,0.1,0.5,0.2,0.6,0.2c0.1,0,0.2,0.1,0.3,0.1c0,0,0.1,0,0.1,0.1c0,0,0,0,0,0c0.1,0,0.1,0.1,0.2,0.1c0.1,0,0.1,0,0.1,0
				c0.1,0.1,0.2,0.1,0.2,0.1c0,0,0.5,0.4,0.9,0.8c0,0,0,0,0.3,0.4c0.1,0.1,0.1,0.2,0.2,0.3c0,0.1,0.1,0.1,0.1,0.2
				c0.1,0.1,0.1,0.1,0.1,0.1c0,0.1,0.1,0.2,0.1,0.2c0,0,0.1,0.3,0.2,0.5c0,0,0,0,0.1,0.2c0.1,0.4,0.1,0.9,0,1.4
				c0,0.3-0.1,0.5-0.2,0.7c0,0,0,0.1,0,0.1c0,0.1-0.1,0.1-0.1,0.2c-0.2,0.3-0.3,0.5-0.5,0.7c-0.1,0.2-0.3,0.3-0.4,0.5
				c-0.1,0.1-0.1,0.1-0.1,0.1c-0.1,0.1-0.2,0.2-0.2,0.2c0,0,0,0,0.1,0.1s0.2,0.1,0.2,0.1c0,0,0.3,0.1,0.5,0.3c0,0,0,0,0.2,0.1
				c0.1,0.1,0.3,0.1,0.4,0.1c0.2,0,0.3,0,0.5,0c0.2,0,0.4-0.1,0.7-0.2c0.1-0.1,0.1-0.1,0.1-0.1c0.1-0.1,0.2-0.2,0.2-0.2
				c0,0,0.1-0.1,0.2-0.2c0,0,0,0,0.1-0.1c0.1-0.1,0.2-0.2,0.2-0.4c0.1-0.2,0.2-0.4,0.3-0.6c0-0.1,0.1-0.2,0.1-0.3
				c0.1-0.1,0.1-0.3,0.2-0.4c0-0.1,0.1-0.2,0.1-0.2c0.1-0.1,0.1-0.3,0.2-0.4c0.1-0.2,0.3-0.5,0.5-0.7c0.1-0.2,0.3-0.4,0.5-0.5
				c0,0,0,0,0,0c0,0,0.1-0.1,0.1-0.1c0,0,0,0,0,0c0,0,0,0,0.1,0c0,0,0,0,0,0c0,0,0,0,0,0c0.1,0,0.2-0.1,0.3-0.2
				c0.1-0.1,0.4-0.3,0.5-0.3c0,0,0.2-0.1,0.3-0.1c0,0,0,0,0.1,0c0,0,0.1,0,0.1,0c0.2-0.1,0.5-0.2,0.7-0.3c0.1,0,0.1,0,0.2,0
				c0.1,0,0.1,0,0.2,0c0.3-0.1,0.6-0.1,1-0.1c0.4,0,0.7,0.1,1,0.2c0.4,0.1,0.7,0.3,1,0.5c0.3,0.2,0.6,0.4,0.8,0.6
				c0.1,0.1,0.1,0.1,0.1,0.1c0.1,0.1,0.2,0.2,0.2,0.2c0,0,0.1,0.1,0.2,0.2c0.1,0.1,0.2,0.3,0.3,0.3c0,0,0.1,0.2,0.2,0.3
				c0,0,0,0,0.1,0.1c0,0,0,0.1,0.1,0.1c0.1,0.2,0.1,0.2,0.1,0.2c0.1,0.2,0.2,0.4,0.2,0.5c0,0.1,0.1,0.1,0.1,0.2c0,0,0,0.1,0.1,0.2
				s0.1,0.3,0.1,0.4c0,0,0,0,0,0.1c0,0.1,0,0.2,0.1,0.2c0,0.1,0,0.1,0,0.1c0,0.1,0,0.2,0,0.2c0,0,0,0.2,0.1,0.5c0,0.2,0.1,1,0.1,1.1
				c0,0.1,0,0.3,0,0.4s0,0.5,0,1C-255.9,507.5-255.9,507.5-255.9,507.9z"/>
		</g>
	</g>
</g>
</svg>
