<?xml version="1.0" encoding="utf-8"?>
<!-- Generator: Adobe Illustrator 21.0.0, SVG Export Plug-In . SVG Version: 6.00 Build 0)  -->
<svg version="1.1" xmlns="http://www.w3.org/2000/svg" xmlns:xlink="http://www.w3.org/1999/xlink" x="0px" y="0px"
	 viewBox="0 0 935.4 150" style="enable-background:new 0 0 935.4 150;" xml:space="preserve">
<style type="text/css">
	.st0{display:none;}
	.st1{display:inline;}
	.st2{fill:#282525;}
	.st3{fill:#231F20;}
</style>
<g id="Layer_1" class="st0">
	<g class="st1">
		<g id="XMLID_1_">
			<path id="XMLID_6_" class="st2" d="M68.9,63.9c0.2,0.2,0.4,0.5,0.5,0.7c0.2,0.2,0.3,0.4,0.4,0.6c0.3,0.4,0.7,0.8,1,1.2l0.5,0.5
				c0.5,0.5,1,1,1.5,1.4c0.6,0.5,1.2,1,1.8,1.4c0.6,0.4,1.3,0.8,2.1,1.1c0.9,0.4,1.8,0.6,2.6,0.7c0.8,0.1,1.6,0.2,2.3,0.2
				c1,0,1.9-0.1,2.8-0.3c0.6,0,1.1-0.2,1.7-0.4h0.1c0.2,0,0.4-0.1,0.5-0.2c0.4-0.1,0.7-0.2,1.1-0.4l0.4-0.1c0.5-0.2,0.9-0.4,1.3-0.6
				l0.9-0.5c0.3-0.1,0.6-0.2,0.8-0.4c0.2,0,0.3-0.1,0.4-0.2c0.3-0.1,0.5-0.3,0.5-0.3c0.6-0.4,1.2-0.8,1.7-1.2
				c0.6-0.5,1.3-1.1,1.9-1.8c0.2-0.2,0.5-0.5,0.6-1.1c0.1-0.8,0-1.6-0.3-2.4c0-0.1-0.1-0.3-0.2-0.4c-0.2-0.4-0.5-0.8-0.8-1.3
				c-0.2-0.4-0.5-0.7-0.7-1c-0.4-0.5-0.9-1-1.5-1.6c-0.3-0.3-0.7-0.6-1.1-0.8c-1.2-0.4-2.1,0.3-2.5,0.6s-0.7,0.6-1,0.9
				c-0.2,0.2-0.5,0.4-0.7,0.6c-0.6,0.5-1.2,1-1.9,1.5c-0.5,0.4-1.1,0.8-1.9,1.1c-0.3,0.1-0.5,0.2-0.8,0.3L82.2,62
				c-0.7,0.3-1.4,0.4-2,0.6l0.5-0.3c0.6-0.3,1.1-0.6,1.7-0.9c1.1-0.7,2.2-1.6,3.2-2.6c0.3-0.3,1.2-1.2,0.7-2.4
				c-0.2-0.5-0.4-1-0.7-1.4L85,54.3c-0.4-0.6-0.9-1.3-1.4-1.9c-0.7-0.8-1.6-1.8-2.7-2.6c-0.6-0.4-1.1-0.5-1.6-0.4
				c-0.6,0.1-1.2,0.4-1.7,0.7L77.4,50c-0.3,0.1-0.5,0.3-0.8,0.5l-0.4,0.2c-0.5,0.3-1,0.7-1.6,1.2c-0.9,0.8-1.5,1.5-2,2.3l-0.1,0.1
				c-0.2,0.3-0.5,0.8-0.4,1.4c0,0.2,0,0.4,0.1,0.7c0.1,0.5,0.8,1.4,1.1,1.8c0.5,0.7,1.1,1.2,1.7,1.9c0.8,0.7,1.7,1.5,2.8,2.1
				c0.2,0.1,0.5,0.2,0.8,0.3l0,0c-0.5,0-1,0-1.4-0.1l-0.7-0.2c-0.7-0.1-1.3-0.3-1.9-0.5l-0.4-0.2c-0.5-0.2-0.9-0.4-1.3-0.6
				c-0.8-0.5-1.5-1.1-2.3-1.8c-0.5-0.4-1-0.9-1.5-1.4l-0.7-0.6c-0.2-0.2-0.6-0.3-0.8-0.3c-0.3,0-0.6,0.1-0.8,0.4
				c-0.6,0.6-0.7,1.5-0.4,2.3C67,60.4,68.4,63.3,68.9,63.9z"/>
			<path id="XMLID_5_" class="st2" d="M111.3,88.9c0-1.6-0.2-3-0.6-4.3v-0.2c0-0.2-0.1-0.5-0.1-0.7c-0.1-0.2-0.1-0.5-0.2-0.7
				c-0.1-0.4-0.2-0.8-0.3-1.2c0-0.1,0-0.5-0.3-0.7c0-0.1-0.1-0.3-0.1-0.4l-0.3-0.7c-0.2-0.6-0.5-1.1-0.8-1.7
				c-0.1-0.1-0.1-0.3-0.2-0.4c-0.2-0.3-0.3-0.7-0.6-0.9l-0.3-0.4c-0.3-0.4-0.7-0.9-1-1.3l-0.3-0.4c-0.3-0.3-0.5-0.6-0.8-0.8
				c-0.6-0.6-1.4-1.2-2.4-1.9c-1-0.7-2-1.2-3.2-1.5c-1-0.3-2.1-0.5-3.2-0.6c-1,0-1.9-0.1-2.9,0.2c-0.2,0.1-0.4,0.1-0.7,0.1
				c-0.2,0-0.4,0.1-0.6,0.1c-0.9,0.2-1.6,0.5-2.3,0.8c-0.1,0-0.2,0.1-0.2,0.1c-0.3,0.1-0.6,0.2-0.8,0.4L88.7,72
				c-0.6,0.4-1.3,0.8-1.9,1.3c-0.2,0.1-0.3,0.2-0.4,0.3l-0.1,0.1L86,73.9L85.9,74c-0.1,0.1-0.2,0.1-0.2,0.2
				c-0.5,0.5-0.9,1.1-1.4,1.6c-0.6,0.7-1,1.4-1.4,2.1c-0.2,0.4-0.4,0.8-0.6,1.3c-0.1,0.3-0.2,0.5-0.3,0.8c-0.2,0.5-0.4,0.9-0.6,1.4
				c-0.1,0.3-0.3,0.7-0.4,1c-0.3,0.6-0.6,1.2-0.9,1.8c-0.2,0.4-0.5,0.7-0.7,1.1c-0.2,0.3-0.5,0.6-0.8,0.9l-0.2,0.2
				c-0.3,0.4-0.7,0.6-1,0.9c-0.7,0.5-1.4,0.7-2,0.8c-0.5,0-1,0-1.5,0c-0.3,0-0.7-0.1-1.1-0.3c-0.7-0.3-1.5-0.7-2.2-1l-0.4-0.2
				c-0.2-0.1-0.5-0.3-0.8-0.4l0.2-0.1c0.3-0.2,0.5-0.4,0.7-0.7c0.5-0.5,0.9-1,1.4-1.5c0.5-0.7,1-1.4,1.4-2.2
				c0.1-0.2,0.2-0.4,0.3-0.6c0-0.1,0.1-0.2,0.1-0.3c0.4-0.7,0.6-1.5,0.7-2.2c0.3-1.7,0.2-3.1-0.1-4.4c-0.2-0.7-0.4-1.4-0.8-2.3
				L73,71.5c-0.1-0.2-0.2-0.5-0.4-0.8c-0.2-0.2-0.3-0.4-0.5-0.7c-0.2-0.3-0.4-0.5-0.5-0.8c-0.9-1.2-1.9-2.2-3.2-3.1
				c-0.2-0.3-0.5-0.4-0.7-0.5c-0.2-0.2-0.4-0.3-0.7-0.4c-0.2-0.1-0.3-0.1-0.5-0.2c-0.1-0.1-0.3-0.1-0.4-0.2l-0.3-0.1
				c-0.3-0.1-0.6-0.3-1.1-0.4c-0.7-0.3-1.4-0.4-2-0.5c-2-0.3-3.6-0.2-5.2,0.1c-1,0.2-2.2,0.5-3.3,0.9c-0.9,0.3-1.7,0.7-2.6,1.1
				c-0.5,0.2-1.1,0.5-1.5,0.8l-0.3,0.2c-0.3,0.2-0.6,0.3-0.8,0.5s-0.5,0.3-0.7,0.5c-0.4,0.3-0.9,0.6-1.3,0.9c-0.7,0.6-1.4,1.2-2,1.8
				c-0.6,0.6-0.8,1.3-0.6,2.2c0,0.2,0.1,0.3,0.2,0.5c0,0.1,0.1,0.2,0.1,0.3c0.1,0.4,0.3,0.7,0.4,1l0.1,0.3c0.2,0.6,0.6,1.1,0.9,1.7
				l0.2,0.3c0.3,0.5,0.6,1,1.1,1.6c0.5,0.7,1.1,1.3,1.7,1.9c0.5,0.5,1.2,1,2.3,0.4c0.2-0.1,0.4-0.2,0.6-0.4c0.1-0.1,0.3-0.2,0.4-0.3
				c0.5-0.3,1-0.6,1.5-0.9l0.8-0.5c0.8-0.5,1.6-0.9,2.5-1.3c0.8-0.4,1.6-0.7,2.6-0.9c0.8-0.2,1.5-0.4,2.3-0.4c1.7-0.1,3,0,4.2,0.8
				c0.9,0.6,1.4,1.4,1.6,2.3c0.1,0.9-0.2,1.7-1,2.3c-0.5,0.4-1.2,0.6-2,0.6c-0.7,0-1.3-0.1-2-0.1c-0.4,0-0.9-0.1-1.3-0.1h-0.4
				c-1.3-0.1-2.6-0.2-3.9,0.2c-1.1,0.3-1.7,1.2-1.4,2.2c0.1,0.5,0.3,1,0.4,1.5l0.2,0.6c0.2,0.8,0.5,1.6,0.8,2.6
				c0.1,0.3,0.2,0.6,0.4,0.9c0.1,0.2,0.2,0.5,0.3,0.7c0.1,0.3,0.3,0.6,0.4,0.9c0.2,0.5,0.7,0.7,1.2,0.7l0.5-0.1
				c0.2,0,0.4-0.1,0.6-0.1c0.2,0,0.5,0,0.7,0h0.3c0.2,0,0.3,0,0.5,0h0.6c0.3,0,0.6,0,0.9,0.1h0.2c0.2,0.1,0.5,0.1,0.6,0.1
				c0.2,0.1,0.5,0.2,0.6,0.2s0.2,0,0.3,0.1c0.7,0.3,1.3,0.7,1.8,1.1l0.9,0.9l0.2,0.3c0.3,0.5,0.6,0.9,0.8,1.4l0.1,0.3
				c0.1,0.4,0.3,0.8,0.3,1.2c0,0.7,0,1.3-0.1,1.8c-0.2,0.5-0.4,1-0.7,1.5c-0.3,0.4-0.7,0.8-1,1.2l-0.2,0.2c-0.7,0.7-1.6,1.2-2.3,1.6
				c-0.8,0.4-1.8,0.7-2.9,0.8c-1.5,0.1-2.8,0.1-4.1-0.1c-0.6-0.1-1.3-0.2-1.9-0.4l-0.7-0.1c-0.3-0.1-0.5-0.1-0.7-0.2
				c-0.3-0.2-0.7-0.3-1-0.4s-0.6-0.2-1-0.4c-0.7-0.3-1.3-0.7-1.8-1c-0.7-0.5-1.4-1.1-2-1.6c-0.7-0.7-1.3-1.5-1.8-2.2
				c-0.2-0.3-0.5-0.7-0.7-1l-0.3-0.5c-0.3-0.5-0.7-1-1-1.5l-0.4-0.6c-0.3-0.5-0.6-0.9-0.8-1.4l-0.3-0.5c-0.1-0.3-0.3-0.6-0.4-0.9
				c-0.1-0.2-0.2-0.4-0.3-0.7L42.7,91c0-0.1-0.1-0.2-0.2-0.3l-0.1-0.1c-0.2-0.4-0.4-0.8-0.6-1.2l-0.2-0.3c-0.3-0.5-0.5-1-0.8-1.3
				c-0.2-0.3-0.5-0.4-0.7-0.6c-0.3-0.2-0.7-0.2-1,0s-0.5,0.6-0.5,1c0,1.4,0.1,2.5,0.4,3.6l0.1,0.3c0.1,0.5,0.2,1,0.4,1.5v0.1
				c0.1,0.3,0.2,0.7,0.3,1c0.1,0.2,0.1,0.4,0.2,0.6c0,0.1,0.3,0.8,0.4,1.3l0.1,0.4c0.1,0.4,0.3,0.9,0.4,1.3c0.1,0.4,0.3,0.7,0.4,1.1
				c0.1,0.3,0.2,0.5,0.4,1c0.1,0.4,0.3,0.7,0.4,1l0.3,0.6c0.3,0.6,0.7,1.3,1.1,1.9c0.2,0.3,0.3,0.5,0.5,0.8s0.4,0.7,0.6,1
				c0.6,0.8,1.2,1.6,1.8,2.4c0.3,0.4,0.7,0.8,1,1.2l0.9,0.9c0.4,0.4,0.8,0.8,1.3,1.2c0.8,0.6,1.5,1.2,2.4,1.7c0.7,0.4,1.3,0.8,2,1.1
				c0.9,0.4,1.9,0.7,2.9,0.9c0.7,0.2,1.5,0.4,2.2,0.4s1.4,0,2.1,0c0.7,0,1.4,0,2.1,0c0.7,0,1.3-0.1,2-0.3c0.2,0,0.3-0.1,0.4-0.2
				l0.2-0.1c0.2-0.1,0.3-0.1,0.5-0.2l0.5-0.2c0.2-0.1,0.4-0.1,0.6-0.2l0.6-0.3c0.3-0.1,0.5-0.3,0.8-0.4c0.1-0.1,0.3-0.2,0.4-0.3
				c0.1-0.1,0.2-0.1,0.2-0.2l0.3-0.2c0.1-0.1,0.3-0.2,0.4-0.3c0.4-0.3,0.8-0.6,1.3-1c0.3-0.2,0.5-0.5,0.7-0.7
				c0.4-0.4,0.8-0.9,1.3-1.4c0.2-0.2,0.3-0.4,0.4-0.6c0.1-0.1,0.2-0.3,0.3-0.4c0.7-0.9,1.2-1.9,1.6-2.7c0.4-0.9,0.6-1.8,0.8-2.6
				l0.1-0.4c0.2-0.7,0.2-1.3,0.3-2v-0.4c0.1-1.5,0.1-3-0.2-4.4c0-0.1,0-0.1,0-0.2c0.6,0.2,1.2,0.3,1.9,0.5c0.8,0.1,1.5,0.1,2.3,0.1
				h0.6c1.4,0,2.7-0.3,3.9-0.8c0.1,0,0.2-0.1,0.3-0.2c0.1-0.1,0.3-0.1,0.4-0.2c0.6-0.4,1-0.8,1.5-1.2l0.2-0.2
				c0.1-0.1,0.1-0.2,0.2-0.2c0.2-0.2,0.4-0.4,0.6-0.8l0.3-0.3c0.1-0.2,0.3-0.4,0.4-0.7c0.2-0.3,0.3-0.6,0.5-0.8
				c0.1-0.1,0.1-0.2,0.2-0.3c0.3-0.5,0.5-1.1,0.8-1.7c0.1-0.2,0.2-0.5,0.3-0.7l0.2-0.4c0.1-0.2,0.2-0.5,0.3-0.7l0.1-0.2
				c0.3-0.5,0.6-1,0.9-1.5s0.6-0.9,1.1-1.5c0.4-0.5,0.9-1,1.3-1.4c0.2-0.2,0.5-0.4,0.7-0.6l0.4-0.3c0.3-0.2,0.6-0.5,1.1-0.7
				s0.9-0.5,1.4-0.6c0.8-0.2,1.6-0.2,2.5-0.1c0.2,0,0.5,0,0.6,0.1l0.2,0.1c0.4,0.2,0.9,0.4,1.3,0.6c0.4,0.3,0.8,0.6,1.2,1
				c0.3,0.4,0.6,0.9,0.9,1.4c0.3,0.6,0.5,1.3,0.6,2.1c0.2,1.2,0.1,2.5-0.2,3.8l-0.1,0.3c0,0.1,0,0.2-0.1,0.3
				c-0.1,0.3-0.2,0.6-0.3,0.8l-0.3,0.9c-0.1,0.3-0.2,0.6-0.3,0.9c-0.2,0.5-0.5,1.1-0.8,1.6c-0.3,0.6-0.7,1.2-1.1,1.8
				c-0.4,0.6-0.9,1.4-1.6,2.1c-0.4,0.5-1,0.9-1.6,1.3c-0.2,0.2-0.5,0.3-0.8,0.4l-0.4,0.2c-0.8,0.4-1.6,0.7-2.4,0.9
				c-0.5,0.1-1,0.2-1.5,0.3c-1,0.1-1.9,0.1-2.7-0.1c-0.8-0.1-1.6-0.4-2.3-0.7c-0.3-0.1-0.7-0.3-1-0.4c-0.2-0.1-0.4-0.2-0.6-0.3
				c-0.5-0.2-1-0.5-1.6-0.8c-0.2-0.1-0.5-0.3-0.7-0.4L85.1,98c-0.5-0.2-0.9-0.5-1.5-0.6c-0.3-0.1-0.7-0.1-1,0.1s-0.4,0.6-0.4,1
				c-0.1,1.1-0.1,2.2,0.2,3.7v0.3c0,0.3,0.1,0.5,0.1,0.8l0.2,0.6c0.2,0.5,0.3,1.1,0.5,1.6l0.1,0.4c0.1,0.3,0.3,0.7,0.4,1l0.3,0.5
				c0.2,0.3,0.3,0.6,0.5,0.8c0.4,0.6,0.8,1.1,1.2,1.5c0.5,0.5,1,1,1.7,1.4c2.1,1.4,4.7,2.1,8.5,1.9c1.3,0,2.8-0.2,4.2-0.7
				c0.6-0.2,1.3-0.5,2-0.9l0.2-0.1c0.4-0.3,0.8-0.5,1.2-0.8c0.5-0.4,1.1-0.9,1.7-1.5s1.1-1.3,1.7-1.9c0.5-0.7,1-1.4,1.4-2.1
				c0.5-0.8,0.9-1.7,1.4-2.9c0.2-0.4,0.3-0.8,0.4-1.2l0.1-0.5c0.1-0.3,0.2-0.6,0.2-0.9c0.1-0.1,0.2-0.4,0.2-0.6v-0.1
				c0-0.2,0.1-0.4,0.1-0.7c0.2-0.7,0.3-1.2,0.3-2c0.1-0.2,0.2-0.7,0.2-1.1c0.1-1.4,0.2-2.9,0.1-4.3v-0.5
				C111.3,89.7,111.3,89.2,111.3,88.9z"/>
			<path id="XMLID_2_" class="st2" d="M0,0v150h150V0H0z M126.3,118.1c0,4.5-3.7,8.2-8.2,8.2H31.9c-4.5,0-8.2-3.7-8.2-8.2V71.7
				c0-4.5,2.9-10.4,6.4-13.2l38.4-29.8c1.8-1.4,4.1-2.1,6.4-2.1s4.7,0.7,6.4,2.1l38.4,29.8c3.5,2.8,6.4,8.7,6.4,13.2v46.4H126.3z"/>
		</g>
		<g>
			<path class="st2" d="M182.6,53.5c0-2.7,0.5-5.1,1.5-7.4c1-2.3,2.3-4.3,4-6s3.7-3,6.1-4c2.3-1,4.9-1.4,7.6-1.4
				c2.7,0,5.3,0.5,7.6,1.4c2.4,1,4.4,2.3,6.1,4c1.7,1.7,3.1,3.7,4,6s1.5,4.7,1.5,7.4s-0.5,5.1-1.5,7.4c-1,2.3-2.3,4.3-4,6
				s-3.8,3-6.1,4c-2.4,1-4.9,1.5-7.6,1.5c-2.8,0-5.3-0.5-7.6-1.5s-4.4-2.3-6.1-4c-1.7-1.7-3.1-3.7-4-6
				C183.1,58.6,182.6,56.1,182.6,53.5z M201.8,60.5c1.8,0,3.3-0.7,4.7-2c1.3-1.4,2-3,2-5s-0.7-3.7-2-5c-1.3-1.4-2.9-2-4.7-2
				s-3.3,0.7-4.7,2c-1.3,1.4-2,3-2,5s0.7,3.7,2,5C198.5,59.8,200,60.5,201.8,60.5z"/>
			<path class="st2" d="M234.6,35.4h9l2,3.5c0.8-0.8,1.7-1.5,2.7-2.1c0.8-0.6,1.8-1.1,3-1.5c1.1-0.4,2.4-0.7,3.8-0.7
				c1.8,0,3.3,0.2,4.5,0.7s2.2,1,3,1.6c0.9,0.7,1.7,1.5,2.3,2.4c0.8-0.9,1.8-1.7,2.9-2.4c0.9-0.6,2.1-1.1,3.4-1.6s2.7-0.7,4.3-0.7
				c3.8,0,6.8,1.3,9.1,3.8s3.5,6.2,3.5,11.1v22h-12.5V51.9c0-2-0.4-3.4-1.1-4.2s-1.7-1.3-2.9-1.3s-2.2,0.4-2.9,1.3
				c-0.7,0.8-1.1,2.2-1.1,4.2v19.6h-12.5V51.9c0-2-0.4-3.4-1.1-4.2c-0.7-0.8-1.7-1.3-2.9-1.3s-2.2,0.4-2.9,1.3
				c-0.7,0.8-1.1,2.2-1.1,4.2v19.6h-12.5L234.6,35.4L234.6,35.4z"/>
			<path class="st2" d="M302.6,22.1h12.5v16.1c0.7-0.6,1.5-1.2,2.4-1.7c0.8-0.4,1.7-0.8,2.9-1.2c1.1-0.4,2.4-0.6,3.7-0.6
				c2.1,0,4.1,0.4,5.9,1.1c1.8,0.7,3.3,1.7,4.6,3.1c1.3,1.4,2.3,3,3,4.9s1.1,4.1,1.1,6.6v21.2h-12.5V52.7c0-2-0.5-3.5-1.6-4.6
				c-1-1.1-2.4-1.6-3.9-1.6c-1.6,0-2.9,0.5-3.9,1.6s-1.6,2.6-1.6,4.6v18.8h-12.6V22.1z"/>
			<path class="st2" d="M353,25.6c0-1.8,0.6-3.3,1.8-4.5c1.2-1.2,2.8-1.8,4.8-1.8s3.6,0.6,4.8,1.8c1.2,1.2,1.8,2.7,1.8,4.5
				s-0.6,3.3-1.8,4.5s-2.8,1.8-4.8,1.8s-3.6-0.6-4.8-1.8C353.7,28.9,353,27.4,353,25.6z M353.4,35.4h12.5v36.1h-12.5V35.4z"/>
			<path class="st2" d="M390.9,59.4c0.2,0.6,0.4,1.1,0.8,1.6c0.3,0.4,0.7,0.8,1.2,1.1s1.2,0.5,2,0.5c1.2,0,2.1-0.2,2.7-0.7
				s0.9-1,0.9-1.6c0-0.5-0.5-1-1.4-1.3s-2.1-0.7-3.4-1.1c-1.4-0.4-2.8-0.8-4.4-1.3s-3.1-1.2-4.4-2.1c-1.4-0.9-2.5-2-3.4-3.3
				s-1.4-3-1.4-5.1c0-1.5,0.3-2.9,1-4.2c0.7-1.4,1.6-2.6,2.9-3.6c1.3-1.1,2.8-1.9,4.7-2.5c1.9-0.6,4-0.9,6.3-0.9
				c5.1,0,8.9,1.1,11.4,3.2c2.6,2.1,4.2,4.8,5,8.2l-11.8,1.2c-0.2-0.5-0.4-0.9-0.6-1.3c-0.3-0.4-0.6-0.7-1.1-1
				c-0.4-0.3-1.1-0.4-1.8-0.4c-1.8,0-2.7,0.7-2.7,2c0,0.5,0.5,0.9,1.4,1.3c0.9,0.3,2.1,0.7,3.4,1c1.4,0.4,2.8,0.8,4.4,1.3
				s3.1,1.1,4.4,2c1.4,0.9,2.5,2,3.4,3.4s1.4,3.1,1.4,5.2c0,1.6-0.3,3.1-1,4.5s-1.7,2.7-3,3.8c-1.3,1.1-3,2-4.9,2.6
				s-4.2,0.9-6.7,0.9c-5.3,0-9.2-1.1-11.8-3.2c-2.6-2.1-4.3-5-5.1-8.5L390.9,59.4z M382.1,20.2h10.2l3.5,4.7l3.5-4.7h10.3l-8.2,11
				h-11L382.1,20.2z"/>
			<path class="st2" d="M450.3,68c-0.9,0.8-1.9,1.6-3,2.2c-0.9,0.6-2.1,1.1-3.3,1.5c-1.3,0.4-2.7,0.6-4.3,0.6c-2,0-4.1-0.5-6-1.5
				c-2-1-3.8-2.3-5.3-4s-2.8-3.7-3.7-6c-0.9-2.3-1.4-4.7-1.4-7.4s0.5-5.1,1.4-7.4c0.9-2.3,2.2-4.3,3.7-6s3.3-3,5.3-4s4-1.4,6-1.4
				c1.6,0,3,0.2,4.3,0.7c1.3,0.4,2.4,1,3.3,1.5c1.1,0.6,2.1,1.3,3,2.1l2-3.5h9v36.1h-9L450.3,68z M442.5,60.5c1.8,0,3.3-0.7,4.7-2
				s2-3,2-5s-0.7-3.7-2-5c-1.3-1.4-2.9-2-4.7-2c-1.8,0-3.3,0.7-4.7,2c-1.3,1.4-2,3-2,5s0.7,3.7,2,5
				C439.2,59.8,440.7,60.5,442.5,60.5z"/>
		</g>
		<g>
			<path class="st2" d="M203,124c-0.5,0.6-1.1,1-1.8,1.5c-0.6,0.4-1.4,0.7-2.4,1s-2.1,0.4-3.4,0.4c-1.8,0-3.4-0.3-4.9-1
				s-2.9-1.6-4-2.8c-1.2-1.2-2.1-2.6-2.7-4.3s-1-3.5-1-5.5s0.3-3.8,1-5.5s1.6-3.1,2.7-4.3c1.2-1.2,2.5-2.1,4-2.8
				c1.5-0.7,3.2-1,4.9-1c1.3,0,2.5,0.2,3.4,0.5c1,0.3,1.8,0.6,2.4,1c0.7,0.4,1.3,0.9,1.8,1.5l1.2-2.6h3.8v26.5h-3.8L203,124z
				 M195.6,122c1,0,2-0.2,2.9-0.6s1.7-1,2.4-1.8s1.3-1.7,1.7-2.7s0.6-2.2,0.6-3.4c0-1.3-0.2-2.4-0.6-3.4c-0.4-1-1-1.9-1.7-2.7
				c-0.7-0.8-1.5-1.4-2.4-1.8s-1.9-0.6-2.9-0.6s-2,0.2-2.9,0.6s-1.7,1-2.4,1.8s-1.3,1.7-1.7,2.7s-0.6,2.2-0.6,3.4
				c0,1.3,0.2,2.4,0.6,3.4s1,1.9,1.7,2.7c0.7,0.8,1.5,1.4,2.4,1.8C193.7,121.8,194.6,122,195.6,122z"/>
			<path class="st2" d="M213.6,100.2h3.8l1.2,2.6c0.5-0.5,1-1,1.7-1.5c0.5-0.4,1.2-0.7,2.1-1c0.8-0.3,1.8-0.5,3-0.5
				c0.3,0,0.6,0,0.8,0.1c0.2,0,0.4,0.1,0.5,0.1c0.2,0,0.3,0.1,0.5,0.1v5.3c-0.2,0-0.3-0.1-0.5-0.1s-0.4-0.1-0.6-0.1
				c-0.2,0-0.4-0.1-0.6-0.1c-0.9,0-1.7,0.2-2.5,0.5c-0.8,0.4-1.5,0.8-2.1,1.4s-1,1.3-1.4,2.1c-0.3,0.8-0.5,1.6-0.5,2.5v15h-5.4
				V100.2z"/>
			<path class="st2" d="M230.7,89.6h5.3v13.2c0.5-0.5,1.2-1,1.9-1.5c0.6-0.4,1.4-0.7,2.3-1c0.9-0.3,2-0.5,3.1-0.5
				c1.4,0,2.8,0.3,4.1,0.9s2.4,1.4,3.4,2.4s1.7,2.2,2.3,3.6c0.5,1.4,0.8,3,0.8,4.6v15.3h-5.3v-15.3c0-0.9-0.2-1.7-0.5-2.5
				s-0.8-1.5-1.4-2.1c-0.6-0.6-1.2-1.1-2-1.4c-0.7-0.4-1.5-0.5-2.4-0.5s-1.7,0.2-2.5,0.5c-0.8,0.4-1.5,0.8-2.1,1.4s-1,1.3-1.4,2.1
				c-0.3,0.8-0.5,1.6-0.5,2.5v15.3h-5.3v-37H230.7z"/>
			<path class="st2" d="M262,89.6c0.9,0,1.7,0.3,2.3,0.9s0.9,1.4,0.9,2.3s-0.3,1.7-0.9,2.3c-0.6,0.6-1.4,0.9-2.3,0.9
				s-1.7-0.3-2.3-0.9s-0.9-1.4-0.9-2.3s0.3-1.7,0.9-2.3C260.3,89.9,261.1,89.6,262,89.6z M259.3,100.2h5.3v26.5h-5.3V100.2z"/>
			<path class="st2" d="M272.6,105.2h-4.7v-5h2.1c1,0,1.9-0.3,2.5-1c0.7-0.7,1-1.5,1-2.5v-3.5h4.4v7.1h5.9v5h-5.9v12.6
				c0,1.2,0.4,2.2,1.2,2.9c0.8,0.8,1.8,1.2,2.9,1.2c0.2,0,0.4,0,0.6,0s0.4,0,0.6-0.1c0.2,0,0.4-0.1,0.5-0.2v4.7
				c-0.2,0.1-0.5,0.2-0.8,0.3c-0.6,0.2-1.3,0.3-2.1,0.3c-1.2,0-2.3-0.2-3.3-0.6s-1.9-1-2.6-1.8s-1.3-1.7-1.7-2.9
				c-0.4-1.1-0.6-2.4-0.6-3.8V105.2L272.6,105.2z"/>
			<path class="st2" d="M310.6,119c-0.4,1.1-1,2.1-1.6,3.1c-0.7,1-1.5,1.8-2.4,2.5s-2,1.3-3.3,1.7c-1.2,0.4-2.6,0.6-4.1,0.6
				c-1.8,0-3.4-0.3-4.9-1s-2.9-1.6-4-2.8c-1.2-1.2-2.1-2.6-2.7-4.3s-1-3.5-1-5.5s0.3-3.8,1-5.5s1.5-3.1,2.6-4.3
				c1.1-1.2,2.4-2.1,3.9-2.8c1.5-0.7,3.1-1,4.8-1c1.7,0,3.3,0.3,4.8,1s2.8,1.6,3.9,2.8c1.1,1.2,2,2.6,2.6,4.3c0.6,1.6,1,3.5,1,5.5
				c0,0.3,0,0.6-0.1,0.9c0,0.3-0.1,0.5-0.1,0.7c0,0.3-0.1,0.5-0.1,0.7h-18.8c0.1,0.8,0.3,1.6,0.7,2.4s0.9,1.4,1.5,2s1.3,1,2.2,1.4
				c0.8,0.3,1.7,0.5,2.7,0.5c1.6,0,2.9-0.3,3.8-1s1.6-1.3,2.1-1.9L310.6,119L310.6,119z M306.2,111.4c-0.3-1.9-1.1-3.5-2.4-4.7
				s-2.9-1.8-5-1.8c-1.8,0-3.3,0.6-4.5,1.8c-1.2,1.2-2,2.8-2.3,4.7H306.2z"/>
			<path class="st2" d="M315.6,89.6h5.3v22l9.1-11.5h6.2l-10.3,12.3l11.8,14.1h-6.5L320.9,114v12.6h-5.3V89.6z"/>
			<path class="st2" d="M341.6,105.2h-4.7v-5h2.1c1,0,1.9-0.3,2.5-1c0.7-0.7,1-1.5,1-2.5v-3.5h4.4v7.1h5.9v5h-5.9v12.6
				c0,1.2,0.4,2.2,1.2,2.9c0.8,0.8,1.8,1.2,2.9,1.2c0.2,0,0.4,0,0.6,0s0.4,0,0.6-0.1c0.2,0,0.4-0.1,0.5-0.2v4.7
				c-0.2,0.1-0.5,0.2-0.8,0.3c-0.6,0.2-1.3,0.3-2.1,0.3c-1.2,0-2.3-0.2-3.3-0.6s-1.9-1-2.6-1.8s-1.3-1.7-1.7-2.9
				c-0.4-1.1-0.6-2.4-0.6-3.8V105.2z"/>
			<path class="st2" d="M357.5,100.2h5.3v15.3c0,0.9,0.2,1.7,0.5,2.5s0.8,1.5,1.4,2.1s1.2,1,2,1.4c0.7,0.3,1.5,0.5,2.4,0.5
				s1.7-0.2,2.5-0.5s1.5-0.8,2.1-1.4s1.1-1.3,1.4-2.1c0.4-0.8,0.5-1.6,0.5-2.5v-15.3h5.3v26.5h-3.8l-1.2-2.6c-0.5,0.6-1.1,1-1.8,1.5
				c-0.6,0.4-1.4,0.7-2.4,1s-2.1,0.4-3.4,0.4c-1.5,0-2.9-0.3-4.1-0.8c-1.3-0.6-2.4-1.4-3.3-2.4c-1-1-1.7-2.2-2.3-3.6
				c-0.5-1.4-0.8-3-0.8-4.6v-15.4H357.5z"/>
			<path class="st2" d="M386.4,100.2h3.8l1.2,2.6c0.5-0.5,1-1,1.7-1.5c0.5-0.4,1.2-0.7,2.1-1c0.8-0.3,1.8-0.5,3-0.5
				c0.3,0,0.6,0,0.8,0.1c0.2,0,0.4,0.1,0.5,0.1c0.2,0,0.3,0.1,0.5,0.1v5.3c-0.2,0-0.3-0.1-0.5-0.1s-0.4-0.1-0.6-0.1
				s-0.4-0.1-0.6-0.1c-0.9,0-1.7,0.2-2.5,0.5c-0.8,0.4-1.5,0.8-2.1,1.4s-1,1.3-1.4,2.1c-0.3,0.8-0.5,1.6-0.5,2.5v15h-5.3v-26.4
				H386.4z"/>
			<path class="st2" d="M422,124c-0.5,0.6-1.1,1-1.8,1.5c-0.6,0.4-1.4,0.7-2.4,1s-2.1,0.4-3.4,0.4c-1.8,0-3.4-0.3-4.9-1
				s-2.9-1.6-4-2.8c-1.2-1.2-2.1-2.6-2.7-4.3s-1-3.5-1-5.5s0.3-3.8,1-5.5s1.6-3.1,2.7-4.3c1.2-1.2,2.5-2.1,4-2.8
				c1.5-0.7,3.2-1,4.9-1c1.3,0,2.5,0.2,3.4,0.5c1,0.3,1.8,0.6,2.4,1c0.7,0.4,1.3,0.9,1.8,1.5l1.2-2.6h3.8v26.5h-3.8L422,124z
				 M414.7,122c1,0,2-0.2,2.9-0.6s1.7-1,2.4-1.8c0.7-0.8,1.3-1.7,1.7-2.7s0.6-2.2,0.6-3.4c0-1.3-0.2-2.4-0.6-3.4s-1-1.9-1.7-2.7
				c-0.7-0.8-1.5-1.4-2.4-1.8s-1.9-0.6-2.9-0.6s-2,0.2-2.9,0.6s-1.7,1-2.4,1.8c-0.7,0.8-1.3,1.7-1.7,2.7c-0.4,1-0.6,2.2-0.6,3.4
				c0,1.3,0.2,2.4,0.6,3.4s1,1.9,1.7,2.7c0.7,0.8,1.5,1.4,2.4,1.8S413.6,122,414.7,122z"/>
			<path class="st2" d="M431.8,131.1c0.4-0.3,0.8-0.6,1.1-1.1c0.3-0.4,0.6-0.8,0.9-1.3s0.5-1.1,0.6-1.8c-1,0-1.9-0.3-2.5-0.9
				s-1-1.4-1-2.3s0.3-1.7,0.9-2.3c0.6-0.6,1.4-0.9,2.3-0.9s1.7,0.3,2.3,1c0.6,0.7,0.9,1.5,0.9,2.5c0,1.5-0.2,2.8-0.7,3.8
				s-1,1.9-1.6,2.6c-0.7,0.8-1.5,1.4-2.4,1.9L431.8,131.1z"/>
			<path class="st2" d="M461.3,94.9h-11.2v-5.3H478v5.3h-11.2v31.7h-5.6V94.9H461.3z"/>
			<path class="st2" d="M496.3,124c-0.5,0.6-1.1,1-1.8,1.5c-0.6,0.4-1.4,0.7-2.4,1s-2.1,0.4-3.4,0.4c-1.8,0-3.4-0.3-4.9-1
				s-2.9-1.6-4-2.8c-1.2-1.2-2.1-2.6-2.7-4.3s-1-3.5-1-5.5s0.3-3.8,1-5.5s1.6-3.1,2.7-4.3c1.2-1.2,2.5-2.1,4-2.8
				c1.5-0.7,3.2-1,4.9-1c1.3,0,2.5,0.2,3.4,0.5c1,0.3,1.8,0.6,2.4,1c0.7,0.4,1.3,0.9,1.8,1.5l1.2-2.6h3.8v26.5h-3.8L496.3,124z
				 M489,122c1,0,2-0.2,2.9-0.6s1.7-1,2.4-1.8c0.7-0.8,1.3-1.7,1.7-2.7s0.6-2.2,0.6-3.4c0-1.3-0.2-2.4-0.6-3.4s-1-1.9-1.7-2.7
				c-0.7-0.8-1.5-1.4-2.4-1.8S490,105,489,105s-2,0.2-2.9,0.6s-1.7,1-2.4,1.8c-0.7,0.8-1.3,1.7-1.7,2.7c-0.4,1-0.6,2.2-0.6,3.4
				c0,1.3,0.2,2.4,0.6,3.4s1,1.9,1.7,2.7c0.7,0.8,1.5,1.4,2.4,1.8S488,122,489,122z"/>
			<path class="st2" d="M525.8,124c-0.5,0.6-1.1,1-1.8,1.5c-0.6,0.4-1.4,0.7-2.4,1s-2.1,0.4-3.4,0.4c-1.8,0-3.4-0.3-4.9-1
				s-2.9-1.6-4-2.8c-1.2-1.2-2.1-2.6-2.7-4.3s-1-3.5-1-5.5s0.3-3.8,1-5.5s1.6-3.1,2.7-4.3c1.2-1.2,2.5-2.1,4-2.8
				c1.5-0.7,3.2-1,4.9-1c1.3,0,2.3,0.2,3.2,0.5s1.7,0.6,2.3,1c0.7,0.4,1.3,0.9,1.8,1.5V89.6h5.3v37H527L525.8,124z M518.4,122
				c1,0,2-0.2,2.9-0.6s1.7-1,2.4-1.8s1.3-1.7,1.7-2.7s0.6-2.2,0.6-3.4c0-1.3-0.2-2.4-0.6-3.4c-0.4-1-1-1.9-1.7-2.7
				c-0.7-0.8-1.5-1.4-2.4-1.8s-1.9-0.6-2.9-0.6s-2,0.2-2.9,0.6s-1.7,1-2.4,1.8s-1.3,1.7-1.7,2.7c-0.4,1-0.6,2.2-0.6,3.4
				c0,1.3,0.2,2.4,0.6,3.4s1,1.9,1.7,2.7c0.7,0.8,1.5,1.4,2.4,1.8S517.4,122,518.4,122z"/>
			<path class="st2" d="M559.4,119c-0.4,1.1-1,2.1-1.6,3.1c-0.7,1-1.5,1.8-2.4,2.5s-2,1.3-3.3,1.7c-1.2,0.4-2.6,0.6-4.1,0.6
				c-1.8,0-3.4-0.3-4.9-1s-2.9-1.6-4-2.8c-1.2-1.2-2.1-2.6-2.7-4.3c-0.6-1.6-1-3.5-1-5.5s0.3-3.8,1-5.5c0.6-1.6,1.5-3.1,2.6-4.3
				c1.1-1.2,2.4-2.1,3.9-2.8c1.5-0.7,3.1-1,4.8-1s3.3,0.3,4.8,1s2.8,1.6,3.9,2.8c1.1,1.2,2,2.6,2.6,4.3c0.6,1.6,1,3.5,1,5.5
				c0,0.3,0,0.6-0.1,0.9s-0.1,0.5-0.1,0.7c0,0.3-0.1,0.5-0.1,0.7h-18.8c0.1,0.8,0.3,1.6,0.7,2.4c0.4,0.7,0.9,1.4,1.5,2
				s1.3,1,2.2,1.4c0.8,0.3,1.7,0.5,2.7,0.5c1.6,0,2.9-0.3,3.8-1c0.9-0.7,1.6-1.3,2.1-1.9L559.4,119L559.4,119z M554.9,111.4
				c-0.3-1.9-1.1-3.5-2.4-4.7c-1.3-1.2-2.9-1.8-5-1.8c-1.8,0-3.3,0.6-4.5,1.8c-1.2,1.2-2,2.8-2.3,4.7H554.9z"/>
			<path class="st2" d="M558.2,131.1c0.2,0.1,0.3,0.1,0.5,0.2c0.2,0,0.4,0.1,0.6,0.1c0.2,0,0.4,0,0.6,0c1.2,0,2.2-0.4,2.9-1.2
				c0.8-0.8,1.2-1.8,1.2-2.9v-27h5.3v27c0,1.4-0.2,2.7-0.6,3.8c-0.4,1.1-1,2.1-1.7,2.9c-0.7,0.8-1.6,1.4-2.6,1.8
				c-1,0.4-2.1,0.6-3.3,0.6c-0.8,0-1.5-0.1-2.1-0.3c-0.3-0.1-0.6-0.2-0.8-0.3L558.2,131.1L558.2,131.1z M566.8,96.1
				c-0.9,0-1.7-0.3-2.3-0.9s-0.9-1.4-0.9-2.3s0.3-1.7,0.9-2.3c0.6-0.6,1.4-0.9,2.3-0.9c0.9,0,1.7,0.3,2.3,0.9s0.9,1.4,0.9,2.3
				s-0.3,1.7-0.9,2.3C568.4,95.8,567.7,96.1,566.8,96.1z"/>
			<path class="st2" d="M587.5,89.6h14.7c1.5,0,2.8,0.3,4.1,0.8s2.4,1.3,3.4,2.2c1,0.9,1.7,2,2.3,3.3c0.5,1.2,0.8,2.6,0.8,4
				c0,1.2-0.2,2.2-0.6,3.1c-0.4,0.9-0.9,1.6-1.3,2.2c-0.5,0.7-1.2,1.3-1.9,1.8c1,0.5,1.9,1.3,2.6,2.1c0.7,0.7,1.3,1.7,1.8,2.8
				c0.5,1.1,0.8,2.5,0.8,4.2c0,1.4-0.3,2.8-0.9,4c-0.6,1.3-1.4,2.4-2.5,3.3c-1.1,1-2.3,1.7-3.7,2.3c-1.4,0.6-3,0.9-4.7,0.9h-15v-37
				C587.4,89.6,587.5,89.6,587.5,89.6z M602.2,104.9c1.5,0,2.7-0.5,3.8-1.5c1-1,1.5-2.2,1.5-3.5s-0.5-2.5-1.5-3.5s-2.3-1.5-3.8-1.5
				h-9.1v10H602.2z M602.5,121.4c0.9,0,1.7-0.2,2.4-0.5c0.8-0.3,1.4-0.7,2-1.3c0.5-0.5,1-1.1,1.3-1.9c0.3-0.7,0.5-1.5,0.5-2.3
				s-0.2-1.6-0.5-2.3c-0.3-0.7-0.7-1.3-1.3-1.9c-0.5-0.5-1.2-1-2-1.3s-1.6-0.5-2.4-0.5h-9.4v11.8h9.4V121.4z"/>
			<path class="st2" d="M637.2,124c-0.5,0.6-1.1,1-1.8,1.5c-0.6,0.4-1.4,0.7-2.4,1s-2.1,0.4-3.4,0.4c-1.8,0-3.4-0.3-4.9-1
				s-2.9-1.6-4-2.8c-1.2-1.2-2.1-2.6-2.7-4.3c-0.6-1.6-1-3.5-1-5.5s0.3-3.8,1-5.5c0.6-1.6,1.6-3.1,2.7-4.3c1.2-1.2,2.5-2.1,4-2.8
				c1.5-0.7,3.2-1,4.9-1c1.3,0,2.5,0.2,3.4,0.5c1,0.3,1.8,0.6,2.4,1c0.7,0.4,1.3,0.9,1.8,1.5l1.2-2.6h3.8v26.5h-3.8L637.2,124z
				 M629.8,122c1,0,2-0.2,2.9-0.6s1.7-1,2.4-1.8s1.3-1.7,1.7-2.7s0.6-2.2,0.6-3.4c0-1.3-0.2-2.4-0.6-3.4c-0.4-1-1-1.9-1.7-2.7
				c-0.7-0.8-1.5-1.4-2.4-1.8s-1.9-0.6-2.9-0.6s-2,0.2-2.9,0.6s-1.7,1-2.4,1.8s-1.3,1.7-1.7,2.7s-0.6,2.2-0.6,3.4
				c0,1.3,0.2,2.4,0.6,3.4s1,1.9,1.7,2.7c0.7,0.8,1.5,1.4,2.4,1.8C627.9,121.8,628.8,122,629.8,122z"/>
			<path class="st2" d="M642,131.1c0.2,0.1,0.3,0.1,0.5,0.2c0.2,0,0.4,0.1,0.6,0.1c0.2,0,0.4,0,0.6,0c1.2,0,2.2-0.4,2.9-1.2
				c0.8-0.8,1.2-1.8,1.2-2.9v-27h5.3v27c0,1.4-0.2,2.7-0.6,3.8c-0.4,1.1-1,2.1-1.7,2.9c-0.7,0.8-1.6,1.4-2.6,1.8
				c-1,0.4-2.1,0.6-3.3,0.6c-0.8,0-1.5-0.1-2.1-0.3c-0.3-0.1-0.6-0.2-0.8-0.3L642,131.1L642,131.1z M650.5,96.1
				c-0.9,0-1.7-0.3-2.3-0.9s-0.9-1.4-0.9-2.3s0.3-1.7,0.9-2.3c0.6-0.6,1.4-0.9,2.3-0.9c0.9,0,1.7,0.3,2.3,0.9s0.9,1.4,0.9,2.3
				s-0.3,1.7-0.9,2.3S651.4,96.1,650.5,96.1z"/>
			<path class="st2" d="M677.6,124c-0.5,0.6-1.1,1-1.8,1.5c-0.6,0.4-1.4,0.7-2.4,1s-2.1,0.4-3.4,0.4c-1.8,0-3.4-0.3-4.9-1
				s-2.9-1.6-4-2.8c-1.2-1.2-2.1-2.6-2.7-4.3c-0.6-1.6-1-3.5-1-5.5s0.3-3.8,1-5.5c0.6-1.6,1.6-3.1,2.7-4.3c1.2-1.2,2.5-2.1,4-2.8
				c1.5-0.7,3.2-1,4.9-1c1.3,0,2.3,0.2,3.2,0.5s1.7,0.6,2.3,1c0.7,0.4,1.3,0.9,1.8,1.5V89.6h5.3v37h-3.8L677.6,124z M670.2,122
				c1,0,2-0.2,2.9-0.6s1.7-1,2.4-1.8s1.3-1.7,1.7-2.7s0.6-2.2,0.6-3.4c0-1.3-0.2-2.4-0.6-3.4c-0.4-1-1-1.9-1.7-2.7
				c-0.7-0.8-1.5-1.4-2.4-1.8s-1.9-0.6-2.9-0.6s-2,0.2-2.9,0.6s-1.7,1-2.4,1.8s-1.3,1.7-1.7,2.7s-0.6,2.2-0.6,3.4
				c0,1.3,0.2,2.4,0.6,3.4s1,1.9,1.7,2.7c0.7,0.8,1.5,1.4,2.4,1.8S669.2,122,670.2,122z"/>
			<path class="st2" d="M707.3,124c-0.5,0.6-1.1,1-1.8,1.5c-0.6,0.4-1.4,0.7-2.4,1s-2.1,0.4-3.4,0.4c-1.8,0-3.4-0.3-4.9-1
				s-2.9-1.6-4-2.8c-1.2-1.2-2.1-2.6-2.7-4.3c-0.6-1.6-1-3.5-1-5.5s0.3-3.8,1-5.5c0.6-1.6,1.6-3.1,2.7-4.3c1.2-1.2,2.5-2.1,4-2.8
				c1.5-0.7,3.2-1,4.9-1c1.3,0,2.5,0.2,3.4,0.5c1,0.3,1.8,0.6,2.4,1c0.7,0.4,1.3,0.9,1.8,1.5l1.2-2.6h3.8v26.5h-3.8L707.3,124z
				 M700,122c1,0,2-0.2,2.9-0.6s1.7-1,2.4-1.8s1.3-1.7,1.7-2.7s0.6-2.2,0.6-3.4c0-1.3-0.2-2.4-0.6-3.4c-0.4-1-1-1.9-1.7-2.7
				c-0.7-0.8-1.5-1.4-2.4-1.8S701,105,700,105s-2,0.2-2.9,0.6s-1.7,1-2.4,1.8s-1.3,1.7-1.7,2.7s-0.6,2.2-0.6,3.4
				c0,1.3,0.2,2.4,0.6,3.4s1,1.9,1.7,2.7c0.7,0.8,1.5,1.4,2.4,1.8S699,122,700,122z"/>
			<path class="st2" d="M733.3,118.1c0.2,1.2,0.6,2.1,1.4,2.8c0.7,0.7,1.9,1,3.4,1c1.6,0,2.8-0.3,3.6-0.9c0.7-0.6,1.1-1.4,1.1-2.3
				c0-0.8-0.4-1.4-1.1-1.8c-0.7-0.4-1.6-0.8-2.6-1c-1-0.3-2.2-0.6-3.4-0.9s-2.3-0.7-3.4-1.3c-1-0.5-1.9-1.3-2.6-2.2
				c-0.7-0.9-1.1-2.2-1.1-3.7c0-1.1,0.2-2.1,0.6-3.1c0.4-1,1-1.8,1.8-2.5s1.7-1.3,2.9-1.7c1.1-0.4,2.4-0.6,3.8-0.6
				c3.1,0,5.4,0.7,7.1,2.2c1.6,1.5,2.5,3.5,2.6,6h-5.3c-0.2-0.9-0.6-1.7-1.3-2.3c-0.7-0.6-1.8-0.9-3.1-0.9s-2.4,0.3-3.1,0.9
				c-0.7,0.6-1.1,1.3-1.1,2c0,0.8,0.4,1.4,1.1,1.8c0.7,0.4,1.6,0.8,2.6,1c1,0.3,2.2,0.6,3.4,0.9s2.3,0.7,3.4,1.3
				c1,0.6,1.9,1.3,2.6,2.2c0.7,0.9,1.1,2.2,1.1,3.7c0,2.4-0.8,4.3-2.5,5.9s-4.1,2.3-7.2,2.3c-3.3,0-5.7-0.8-7.3-2.3
				s-2.5-3.7-2.7-6.5H733.3z"/>
			<path class="st2" d="M750.1,123.4c0-0.9,0.3-1.7,0.9-2.3c0.6-0.6,1.4-0.9,2.3-0.9c0.9,0,1.7,0.3,2.3,0.9s0.9,1.4,0.9,2.3
				s-0.3,1.7-0.9,2.3c-0.6,0.6-1.4,0.9-2.3,0.9c-0.9,0-1.7-0.3-2.3-0.9C750.5,125,750.1,124.3,750.1,123.4z"/>
			<path class="st2" d="M760.5,100.2h3.8l1.2,2.6c0.5-0.5,1.1-1,1.8-1.5c0.6-0.4,1.4-0.7,2.4-1s2.1-0.5,3.4-0.5c1.8,0,3.4,0.3,4.9,1
				s2.9,1.6,4,2.8c1.2,1.2,2.1,2.6,2.7,4.3c0.6,1.6,1,3.5,1,5.5s-0.3,3.8-1,5.5c-0.6,1.6-1.6,3.1-2.7,4.3c-1.2,1.2-2.5,2.1-4,2.8
				c-1.5,0.7-3.2,1-4.9,1c-1.3,0-2.3-0.1-3.2-0.4s-1.7-0.6-2.3-1c-0.7-0.4-1.3-0.9-1.8-1.5v12.1h-5.3L760.5,100.2L760.5,100.2z
				 M772.8,122c1,0,2-0.2,2.9-0.6s1.7-1,2.4-1.8s1.3-1.7,1.7-2.7s0.6-2.2,0.6-3.4c0-1.3-0.2-2.4-0.6-3.4c-0.4-1-1-1.9-1.7-2.7
				c-0.7-0.8-1.5-1.4-2.4-1.8s-1.9-0.6-2.9-0.6s-2,0.2-2.9,0.6s-1.7,1-2.4,1.8s-1.3,1.7-1.7,2.7s-0.6,2.2-0.6,3.4
				c0,1.3,0.2,2.4,0.6,3.4s1,1.9,1.7,2.7c0.7,0.8,1.5,1.4,2.4,1.8S771.8,122,772.8,122z"/>
			<path class="st2" d="M788.2,123.4c0-0.9,0.3-1.7,0.9-2.3c0.6-0.6,1.4-0.9,2.3-0.9c0.9,0,1.7,0.3,2.3,0.9s0.9,1.4,0.9,2.3
				s-0.3,1.7-0.9,2.3c-0.6,0.6-1.4,0.9-2.3,0.9c-0.9,0-1.7-0.3-2.3-0.9C788.5,125,788.2,124.3,788.2,123.4z"/>
		</g>
	</g>
</g>
<g id="Layer_2">
	<g>
		<g id="XMLID_149_">
			<path id="XMLID_154_" class="st3" d="M68.9,63.9c0.2,0.2,0.4,0.5,0.5,0.7c0.2,0.2,0.3,0.4,0.4,0.6c0.3,0.4,0.7,0.8,1,1.2l0.5,0.5
				c0.5,0.5,1,1,1.5,1.4c0.6,0.5,1.2,1,1.8,1.4c0.6,0.4,1.3,0.8,2.1,1.1c0.9,0.4,1.8,0.6,2.6,0.7c0.8,0.1,1.6,0.2,2.3,0.2
				c1,0,1.9-0.1,2.8-0.3c0.6,0,1.1-0.2,1.7-0.4c0,0,0.1,0,0.1,0c0.2,0,0.4-0.1,0.5-0.2c0.4-0.1,0.7-0.2,1.1-0.4l0.4-0.1
				c0.5-0.2,0.9-0.4,1.3-0.6l0.9-0.5c0.3-0.1,0.6-0.2,0.8-0.4c0.2,0,0.3-0.1,0.4-0.2c0.3-0.1,0.5-0.3,0.5-0.3
				c0.6-0.4,1.2-0.8,1.7-1.2c0.6-0.5,1.3-1.1,1.9-1.8c0.2-0.2,0.5-0.5,0.6-1.1c0.1-0.8,0-1.6-0.3-2.4c0-0.1-0.1-0.3-0.2-0.4
				c-0.2-0.4-0.5-0.8-0.8-1.3c-0.2-0.4-0.5-0.7-0.7-1c-0.4-0.5-0.9-1-1.5-1.6c-0.3-0.3-0.7-0.6-1.1-0.8c-1.2-0.4-2.1,0.3-2.5,0.6
				c-0.4,0.3-0.7,0.6-1,0.9c-0.2,0.2-0.5,0.4-0.7,0.6c-0.6,0.5-1.2,1-1.9,1.5c-0.5,0.4-1.1,0.8-1.9,1.1c-0.3,0.1-0.5,0.2-0.8,0.3
				L82.2,62c-0.7,0.3-1.4,0.4-2,0.6l0.5-0.3c0.6-0.3,1.1-0.6,1.7-0.9c1.1-0.7,2.2-1.6,3.2-2.6c0.3-0.3,1.2-1.2,0.7-2.4
				c-0.2-0.5-0.4-1-0.7-1.4L85,54.3c-0.4-0.6-0.9-1.3-1.4-1.9c-0.7-0.8-1.6-1.8-2.7-2.6c-0.6-0.4-1.1-0.5-1.6-0.4
				c-0.6,0.1-1.2,0.4-1.7,0.7L77.4,50c-0.3,0.1-0.5,0.3-0.8,0.5l-0.4,0.2c-0.5,0.3-1,0.7-1.6,1.2c-0.9,0.8-1.5,1.5-2,2.3l-0.1,0.1
				c-0.2,0.3-0.5,0.8-0.4,1.4c0,0.2,0,0.4,0.1,0.7c0.1,0.5,0.8,1.4,1.1,1.8c0.5,0.7,1.1,1.2,1.7,1.9c0.8,0.7,1.7,1.5,2.8,2.1
				c0.2,0.1,0.5,0.2,0.8,0.3c0,0,0,0,0,0c-0.5,0-1,0-1.4-0.1l-0.7-0.2c-0.7-0.1-1.3-0.3-1.9-0.5l-0.4-0.2c-0.5-0.2-0.9-0.4-1.3-0.6
				c-0.8-0.5-1.5-1.1-2.3-1.8c-0.5-0.4-1-0.9-1.5-1.4l-0.7-0.6c-0.2-0.2-0.6-0.3-0.8-0.3c-0.3,0-0.6,0.1-0.8,0.4
				c-0.6,0.6-0.7,1.5-0.4,2.3C67,60.4,68.4,63.3,68.9,63.9z"/>
			<path id="XMLID_153_" class="st3" d="M111.3,88.9c0-1.6-0.2-3-0.6-4.3l0-0.2c0-0.2-0.1-0.5-0.1-0.7c-0.1-0.2-0.1-0.5-0.2-0.7
				c-0.1-0.4-0.2-0.8-0.3-1.2c0-0.1,0-0.5-0.3-0.7c0-0.1-0.1-0.3-0.1-0.4l-0.3-0.7c-0.2-0.6-0.5-1.1-0.8-1.7
				c-0.1-0.1-0.1-0.3-0.2-0.4c-0.2-0.3-0.3-0.7-0.6-0.9l-0.3-0.4c-0.3-0.4-0.7-0.9-1-1.3l-0.3-0.4c-0.3-0.3-0.5-0.6-0.8-0.8
				c-0.6-0.6-1.4-1.2-2.4-1.9c-1-0.7-2-1.2-3.2-1.5c-1-0.3-2.1-0.5-3.2-0.6c-1,0-1.9-0.1-2.9,0.2c-0.2,0.1-0.4,0.1-0.7,0.1
				c-0.2,0-0.4,0.1-0.6,0.1c-0.9,0.2-1.6,0.5-2.3,0.8c-0.1,0-0.2,0.1-0.2,0.1c-0.3,0.1-0.6,0.2-0.8,0.4l-0.4,0.2
				c-0.6,0.4-1.3,0.8-1.9,1.3c-0.2,0.1-0.3,0.2-0.4,0.3c0,0-0.1,0.1-0.1,0.1L86,73.9L85.9,74c-0.1,0.1-0.2,0.1-0.2,0.2
				c-0.5,0.5-0.9,1.1-1.4,1.6c-0.6,0.7-1,1.4-1.4,2.1c-0.2,0.4-0.4,0.8-0.6,1.3c-0.1,0.3-0.2,0.5-0.3,0.8c-0.2,0.5-0.4,0.9-0.6,1.4
				c-0.1,0.3-0.3,0.7-0.4,1c-0.3,0.6-0.6,1.2-0.9,1.8c-0.2,0.4-0.5,0.7-0.7,1.1c-0.2,0.3-0.5,0.6-0.8,0.9l-0.2,0.2
				c-0.3,0.4-0.7,0.6-1,0.9c-0.7,0.5-1.4,0.7-2,0.8c-0.5,0-1,0-1.5,0c-0.3,0-0.7-0.1-1.1-0.3c-0.7-0.3-1.5-0.7-2.2-1l-0.4-0.2
				c-0.2-0.1-0.5-0.3-0.8-0.4l0.2-0.1c0.3-0.2,0.5-0.4,0.7-0.7c0.5-0.5,0.9-1,1.4-1.5c0.5-0.7,1-1.4,1.4-2.2
				c0.1-0.2,0.2-0.4,0.3-0.6c0-0.1,0.1-0.2,0.1-0.3c0.4-0.7,0.6-1.5,0.7-2.2c0.3-1.7,0.2-3.1-0.1-4.4c-0.2-0.7-0.4-1.4-0.8-2.3
				L73,71.5c-0.1-0.2-0.2-0.5-0.4-0.8c-0.2-0.2-0.3-0.4-0.5-0.7c-0.2-0.3-0.4-0.5-0.5-0.8c-0.9-1.2-1.9-2.2-3.2-3.1
				c-0.2-0.3-0.5-0.4-0.7-0.5c-0.2-0.2-0.4-0.3-0.7-0.4c-0.2-0.1-0.3-0.1-0.5-0.2c-0.1-0.1-0.3-0.1-0.4-0.2l-0.3-0.1
				c-0.3-0.1-0.6-0.3-1.1-0.4c-0.7-0.3-1.4-0.4-2-0.5c-2-0.3-3.6-0.2-5.2,0.1c-1,0.2-2.2,0.5-3.3,0.9c-0.9,0.3-1.7,0.7-2.6,1.1
				c-0.5,0.2-1.1,0.5-1.5,0.8l-0.3,0.2c-0.3,0.2-0.6,0.3-0.8,0.5c-0.2,0.2-0.5,0.3-0.7,0.5c-0.4,0.3-0.9,0.6-1.3,0.9
				c-0.7,0.6-1.4,1.2-2,1.8c-0.6,0.6-0.8,1.3-0.6,2.2c0,0.2,0.1,0.3,0.2,0.5c0,0.1,0.1,0.2,0.1,0.3c0.1,0.4,0.3,0.7,0.4,1l0.1,0.3
				c0.2,0.6,0.6,1.1,0.9,1.7l0.2,0.3c0.3,0.5,0.6,1,1.1,1.6c0.5,0.7,1.1,1.3,1.7,1.9c0.5,0.5,1.2,1,2.3,0.4c0.2-0.1,0.4-0.2,0.6-0.4
				c0.1-0.1,0.3-0.2,0.4-0.3c0.5-0.3,1-0.6,1.5-0.9l0.8-0.5c0.8-0.5,1.6-0.9,2.5-1.3c0.8-0.4,1.6-0.7,2.6-0.9
				c0.8-0.2,1.5-0.4,2.3-0.4c1.7-0.1,3,0,4.2,0.8c0.9,0.6,1.4,1.4,1.6,2.3c0.1,0.9-0.2,1.7-1,2.3c-0.5,0.4-1.2,0.6-2,0.6
				c-0.7,0-1.3-0.1-2-0.1c-0.4,0-0.9-0.1-1.3-0.1l-0.4,0c-1.3-0.1-2.6-0.2-3.9,0.2c-1.1,0.3-1.7,1.2-1.4,2.2c0.1,0.5,0.3,1,0.4,1.5
				l0.2,0.6c0.2,0.8,0.5,1.6,0.8,2.6c0.1,0.3,0.2,0.6,0.4,0.9c0.1,0.2,0.2,0.5,0.3,0.7c0.1,0.3,0.3,0.6,0.4,0.9
				c0.2,0.5,0.7,0.7,1.2,0.7l0.5-0.1c0.2,0,0.4-0.1,0.6-0.1c0.2,0,0.5,0,0.7,0l0.3,0c0.2,0,0.3,0,0.5,0l0.6,0c0.3,0,0.6,0,0.9,0.1
				l0.2,0c0.2,0.1,0.5,0.1,0.6,0.1c0.2,0.1,0.5,0.2,0.6,0.2c0.1,0,0.2,0,0.3,0.1c0.7,0.3,1.3,0.7,1.8,1.1l0.9,0.9l0.2,0.3
				c0.3,0.5,0.6,0.9,0.8,1.4l0.1,0.3c0.1,0.4,0.3,0.8,0.3,1.2c0,0.7,0,1.3-0.1,1.8c-0.2,0.5-0.4,1-0.7,1.5c-0.3,0.4-0.7,0.8-1,1.2
				l-0.2,0.2c-0.7,0.7-1.6,1.2-2.3,1.6c-0.8,0.4-1.8,0.7-2.9,0.8c-1.5,0.1-2.8,0.1-4.1-0.1c-0.6-0.1-1.3-0.2-1.9-0.4l-0.7-0.1
				c-0.3-0.1-0.5-0.1-0.7-0.2c-0.3-0.2-0.7-0.3-1-0.4c-0.3-0.1-0.6-0.2-1-0.4c-0.7-0.3-1.3-0.7-1.8-1c-0.7-0.5-1.4-1.1-2-1.6
				c-0.7-0.7-1.3-1.5-1.8-2.2c-0.2-0.3-0.5-0.7-0.7-1l-0.3-0.5c-0.3-0.5-0.7-1-1-1.5l-0.4-0.6c-0.3-0.5-0.6-0.9-0.8-1.4l-0.3-0.5
				c-0.1-0.3-0.3-0.6-0.4-0.9c-0.1-0.2-0.2-0.4-0.3-0.7L42.7,91c0-0.1-0.1-0.2-0.2-0.3l-0.1-0.1c-0.2-0.4-0.4-0.8-0.6-1.2l-0.2-0.3
				c-0.3-0.5-0.5-1-0.8-1.3c-0.2-0.3-0.5-0.4-0.7-0.6c-0.3-0.2-0.7-0.2-1,0c-0.3,0.2-0.5,0.6-0.5,1c0,1.4,0.1,2.5,0.4,3.6l0.1,0.3
				c0.1,0.5,0.2,1,0.4,1.5l0,0.1c0.1,0.3,0.2,0.7,0.3,1c0.1,0.2,0.1,0.4,0.2,0.6c0,0.1,0.3,0.8,0.4,1.3l0.1,0.4
				c0.1,0.4,0.3,0.9,0.4,1.3c0.1,0.4,0.3,0.7,0.4,1.1c0.1,0.3,0.2,0.5,0.4,1c0.1,0.4,0.3,0.7,0.4,1l0.3,0.6c0.3,0.6,0.7,1.3,1.1,1.9
				c0.2,0.3,0.3,0.5,0.5,0.8c0.2,0.3,0.4,0.7,0.6,1c0.6,0.8,1.2,1.6,1.8,2.4c0.3,0.4,0.7,0.8,1,1.2l0.9,0.9c0.4,0.4,0.8,0.8,1.3,1.2
				c0.8,0.6,1.5,1.2,2.4,1.7c0.7,0.4,1.3,0.8,2,1.1c0.9,0.4,1.9,0.7,2.9,0.9c0.7,0.2,1.5,0.4,2.2,0.4c0.7,0,1.4,0,2.1,0
				c0.7,0,1.4,0,2.1,0c0.7,0,1.3-0.1,2-0.3c0.2,0,0.3-0.1,0.4-0.2l0.2-0.1c0.2-0.1,0.3-0.1,0.5-0.2l0.5-0.2c0.2-0.1,0.4-0.1,0.6-0.2
				l0.6-0.3c0.3-0.1,0.5-0.3,0.8-0.4c0.1-0.1,0.3-0.2,0.4-0.3c0.1-0.1,0.2-0.1,0.2-0.2l0.3-0.2c0.1-0.1,0.3-0.2,0.4-0.3
				c0.4-0.3,0.8-0.6,1.3-1c0.3-0.2,0.5-0.5,0.7-0.7c0.4-0.4,0.8-0.9,1.3-1.4c0.2-0.2,0.3-0.4,0.4-0.6c0.1-0.1,0.2-0.3,0.3-0.4
				c0.7-0.9,1.2-1.9,1.6-2.7c0.4-0.9,0.6-1.8,0.8-2.6l0.1-0.4c0.2-0.7,0.2-1.3,0.3-2l0-0.4c0.1-1.5,0.1-3-0.2-4.4c0-0.1,0-0.1,0-0.2
				c0.6,0.2,1.2,0.3,1.9,0.5c0.8,0.1,1.5,0.1,2.3,0.1l0.6,0c1.4,0,2.7-0.3,3.9-0.8c0.1,0,0.2-0.1,0.3-0.2c0.1-0.1,0.3-0.1,0.4-0.2
				c0.6-0.4,1-0.8,1.5-1.2l0.2-0.2c0.1-0.1,0.1-0.2,0.2-0.2c0.2-0.2,0.4-0.4,0.6-0.8l0.3-0.3c0.1-0.2,0.3-0.4,0.4-0.7
				c0.2-0.3,0.3-0.6,0.5-0.8c0.1-0.1,0.1-0.2,0.2-0.3c0.3-0.5,0.5-1.1,0.8-1.7c0.1-0.2,0.2-0.5,0.3-0.7l0.2-0.4
				c0.1-0.2,0.2-0.5,0.3-0.7l0.1-0.2c0.3-0.5,0.6-1,0.9-1.5c0.3-0.5,0.6-0.9,1.1-1.5c0.4-0.5,0.9-1,1.3-1.4c0.2-0.2,0.5-0.4,0.7-0.6
				l0.4-0.3c0.3-0.2,0.6-0.5,1.1-0.7c0.5-0.2,0.9-0.5,1.4-0.6c0.8-0.2,1.6-0.2,2.5-0.1c0.2,0,0.5,0,0.6,0.1l0.2,0.1
				c0.4,0.2,0.9,0.4,1.3,0.6c0.4,0.3,0.8,0.6,1.2,1c0.3,0.4,0.6,0.9,0.9,1.4c0.3,0.6,0.5,1.3,0.6,2.1c0.2,1.2,0.1,2.5-0.2,3.8
				l-0.1,0.3c0,0.1,0,0.2-0.1,0.3c-0.1,0.3-0.2,0.6-0.3,0.8l-0.3,0.9c-0.1,0.3-0.2,0.6-0.3,0.9c-0.2,0.5-0.5,1.1-0.8,1.6
				c-0.3,0.6-0.7,1.2-1.1,1.8c-0.4,0.6-0.9,1.4-1.6,2.1c-0.4,0.5-1,0.9-1.6,1.3c-0.2,0.2-0.5,0.3-0.8,0.4l-0.4,0.2
				c-0.8,0.4-1.6,0.7-2.4,0.9c-0.5,0.1-1,0.2-1.5,0.3c-1,0.1-1.9,0.1-2.7-0.1c-0.8-0.1-1.6-0.4-2.3-0.7c-0.3-0.1-0.7-0.3-1-0.4
				c-0.2-0.1-0.4-0.2-0.6-0.3c-0.5-0.2-1-0.5-1.6-0.8c-0.2-0.1-0.5-0.3-0.7-0.4L85.1,98c-0.5-0.2-0.9-0.5-1.5-0.6
				c-0.3-0.1-0.7-0.1-1,0.1c-0.3,0.2-0.4,0.6-0.4,1c-0.1,1.1-0.1,2.2,0.2,3.7l0,0.3c0,0.3,0.1,0.5,0.1,0.8l0.2,0.6
				c0.2,0.5,0.3,1.1,0.5,1.6l0.1,0.4c0.1,0.3,0.3,0.7,0.4,1l0.3,0.5c0.2,0.3,0.3,0.6,0.5,0.8c0.4,0.6,0.8,1.1,1.2,1.5
				c0.5,0.5,1,1,1.7,1.4c2.1,1.4,4.7,2.1,8.5,1.9c1.3,0,2.8-0.2,4.2-0.7c0.6-0.2,1.3-0.5,2-0.9l0.2-0.1c0.4-0.3,0.8-0.5,1.2-0.8
				c0.5-0.4,1.1-0.9,1.7-1.5c0.6-0.6,1.1-1.3,1.7-1.9c0.5-0.7,1-1.4,1.4-2.1c0.5-0.8,0.9-1.7,1.4-2.9c0.2-0.4,0.3-0.8,0.4-1.2
				l0.1-0.5c0.1-0.3,0.2-0.6,0.2-0.9c0.1-0.1,0.2-0.4,0.2-0.6l0-0.1c0-0.2,0.1-0.4,0.1-0.7c0.2-0.7,0.3-1.2,0.3-2
				c0.1-0.2,0.2-0.7,0.2-1.1c0.1-1.4,0.2-2.9,0.1-4.3l0-0.5C111.3,89.7,111.3,89.2,111.3,88.9z"/>
			<path id="XMLID_150_" class="st3" d="M0,0v150h150V0H0z M126.3,118.1c0,4.5-3.7,8.2-8.2,8.2H31.9c-4.5,0-8.2-3.7-8.2-8.2V71.7
				c0-4.5,2.9-10.4,6.4-13.2l38.4-29.8c1.8-1.4,4.1-2.1,6.4-2.1c2.3,0,4.7,0.7,6.4,2.1l38.4,29.8c3.5,2.8,6.4,8.7,6.4,13.2V118.1z"
				/>
		</g>
		<g>
			<path class="st3" d="M190,124.3c-2.9,0-5.6-0.5-8-1.5c-2.4-1-4.6-2.4-6.4-4.2c-1.8-1.8-3.2-3.9-4.2-6.2c-1-2.4-1.5-5-1.5-7.8
				c0-2.8,0.5-5.4,1.5-7.8c1-2.4,2.4-4.5,4.2-6.2c1.8-1.8,3.9-3.2,6.4-4.2c2.4-1,5.1-1.5,8-1.5c2.8,0,5.5,0.5,8,1.5
				c2.5,1,4.6,2.4,6.4,4.2c1.8,1.8,3.2,3.9,4.2,6.2c1,2.4,1.5,5,1.5,7.8c0,2.8-0.5,5.4-1.5,7.8c-1,2.4-2.4,4.5-4.2,6.2
				c-1.8,1.8-3.9,3.2-6.4,4.2C195.5,123.8,192.8,124.3,190,124.3z M190,112c1.9,0,3.5-0.7,4.9-2.1c1.4-1.4,2.1-3.2,2.1-5.3
				c0-2.1-0.7-3.8-2.1-5.3c-1.4-1.4-3-2.1-4.9-2.1c-1.9,0-3.5,0.7-4.9,2.1c-1.4,1.4-2.1,3.2-2.1,5.3c0,2.1,0.7,3.8,2.1,5.3
				C186.5,111.3,188.1,112,190,112z"/>
			<path class="st3" d="M224.3,85.8h9.4l2.1,3.7c0.9-0.8,1.8-1.6,2.8-2.2c0.9-0.6,1.9-1.1,3.1-1.6c1.2-0.5,2.5-0.7,3.9-0.7
				c1.9,0,3.4,0.3,4.7,0.8c1.3,0.5,2.3,1.1,3.2,1.7c1,0.7,1.8,1.5,2.4,2.5c0.9-0.9,1.9-1.7,3-2.5c1-0.6,2.2-1.2,3.5-1.7
				c1.4-0.5,2.9-0.8,4.5-0.8c3.9,0,7.1,1.3,9.5,3.9c2.4,2.6,3.6,6.5,3.6,11.7v23h-13.1V103c0-2.1-0.4-3.6-1.1-4.4
				c-0.7-0.9-1.7-1.3-3-1.3c-1.3,0-2.3,0.4-3,1.3c-0.7,0.9-1.1,2.4-1.1,4.4v20.5h-13.1V103c0-2.1-0.4-3.6-1.1-4.4
				c-0.7-0.9-1.7-1.3-3-1.3s-2.3,0.4-3,1.3c-0.7,0.9-1.1,2.4-1.1,4.4v20.5h-13.1V85.8z"/>
			<path class="st3" d="M295.5,71.8h13.1v16.8c0.7-0.7,1.6-1.3,2.5-1.8c0.8-0.4,1.8-0.9,3-1.3s2.5-0.6,3.9-0.6
				c2.2,0,4.3,0.4,6.2,1.1c1.9,0.7,3.5,1.8,4.8,3.2c1.3,1.4,2.4,3.1,3.1,5.2c0.7,2,1.1,4.3,1.1,6.9v22.2h-13.1v-19.7
				c0-2.1-0.5-3.7-1.6-4.8c-1.1-1.1-2.5-1.7-4.1-1.7c-1.6,0-3,0.6-4.1,1.7c-1.1,1.1-1.6,2.8-1.6,4.8v19.7h-13.1V71.8z"/>
			<path class="st3" d="M355.3,82.1c-2.1,0-3.8-0.6-5-1.9c-1.3-1.3-1.9-2.8-1.9-4.7s0.6-3.4,1.9-4.7c1.3-1.3,3-1.9,5-1.9
				c2.1,0,3.8,0.6,5,1.9c1.3,1.3,1.9,2.8,1.9,4.7s-0.6,3.4-1.9,4.7C359,81.4,357.4,82.1,355.3,82.1z M348.7,85.8h13.1v37.8h-13.1
				V85.8z"/>
			<path class="st3" d="M393.3,124.3c-5.5,0-9.6-1.1-12.4-3.4c-2.7-2.2-4.5-5.2-5.3-8.9l12.3-1.2c0.2,0.6,0.4,1.1,0.8,1.6
				c0.3,0.4,0.7,0.8,1.2,1.1c0.5,0.3,1.2,0.5,2.1,0.5c1.3,0,2.2-0.3,2.8-0.8c0.6-0.5,0.9-1.1,0.9-1.7c0-0.5-0.5-1-1.4-1.4
				s-2.1-0.7-3.6-1.1c-1.4-0.4-3-0.8-4.6-1.4s-3.2-1.3-4.6-2.2c-1.4-0.9-2.6-2.1-3.6-3.4c-1-1.4-1.4-3.2-1.4-5.3
				c0-1.5,0.4-3,1.1-4.4c0.7-1.4,1.7-2.7,3-3.8c1.3-1.1,2.9-2,4.9-2.7c1.9-0.7,4.1-1,6.6-1c5.3,0,9.3,1.1,12,3.3
				c2.7,2.2,4.4,5.1,5.3,8.6L397,98.1c-0.2-0.5-0.4-1-0.7-1.4c-0.3-0.4-0.6-0.7-1.1-1c-0.5-0.3-1.1-0.5-1.9-0.5
				c-1.9,0-2.9,0.7-2.9,2.1c0,0.5,0.5,1,1.4,1.3c1,0.3,2.1,0.7,3.6,1.1c1.4,0.4,3,0.8,4.6,1.3c1.7,0.5,3.2,1.2,4.6,2.1
				c1.4,0.9,2.6,2.1,3.6,3.5c1,1.4,1.4,3.2,1.4,5.4c0,1.6-0.4,3.2-1.1,4.7c-0.7,1.5-1.8,2.8-3.2,3.9c-1.4,1.1-3.1,2.1-5.1,2.7
				C398.3,124,396,124.3,393.3,124.3z M378.5,69.8h10.7l3.7,4.9l3.7-4.9h10.7l-8.6,11.5h-11.5L378.5,69.8z"/>
			<path class="st3" d="M439.1,124.3c-2.1,0-4.2-0.5-6.3-1.5c-2.1-1-3.9-2.4-5.5-4.2c-1.6-1.8-2.9-3.9-3.9-6.2c-1-2.4-1.5-5-1.5-7.8
				c0-2.8,0.5-5.4,1.5-7.8c1-2.4,2.3-4.5,3.9-6.2c1.6-1.8,3.5-3.2,5.5-4.2c2.1-1,4.2-1.5,6.3-1.5c1.6,0,3.1,0.2,4.5,0.7
				c1.3,0.5,2.5,1,3.5,1.6c1.1,0.7,2.2,1.4,3.1,2.2l2.1-3.7h9.4v37.8h-9.4l-2.1-3.7c-0.9,0.9-2,1.6-3.1,2.3c-1,0.6-2.1,1.1-3.5,1.6
				C442.2,124.1,440.7,124.3,439.1,124.3z M442,112c1.9,0,3.5-0.7,4.9-2.1c1.4-1.4,2.1-3.2,2.1-5.3c0-2.1-0.7-3.8-2.1-5.3
				c-1.4-1.4-3-2.1-4.9-2.1c-1.9,0-3.5,0.7-4.9,2.1c-1.4,1.4-2.1,3.2-2.1,5.3c0,2.1,0.7,3.8,2.1,5.3C438.5,111.3,440.1,112,442,112z
				"/>
			<path class="st3" d="M477.5,129.7c0.5-0.4,1.1-0.9,1.6-1.5c0.4-0.5,0.8-1.1,1.2-1.8c0.4-0.7,0.7-1.5,0.9-2.5
				c-1.4,0-2.6-0.4-3.5-1.3c-0.9-0.9-1.4-1.9-1.4-3.2c0-1.3,0.4-2.3,1.3-3.2c0.9-0.9,1.9-1.3,3.2-1.3s2.3,0.5,3.2,1.4
				c0.9,0.9,1.3,2.1,1.3,3.5c0,2.1-0.3,3.8-1,5.3c-0.7,1.4-1.4,2.6-2.3,3.6c-1,1.1-2.1,2-3.3,2.6L477.5,129.7z"/>
			<path class="st3" d="M515.4,84.3h-14.1v-6.7h35.2v6.7h-14.1v40h-7V84.3z"/>
			<path class="st3" d="M550,124.7c-2.2,0-4.3-0.4-6.2-1.3c-1.9-0.8-3.6-2-5.1-3.5c-1.5-1.5-2.6-3.3-3.4-5.4
				c-0.8-2.1-1.2-4.4-1.2-6.9c0-2.5,0.4-4.8,1.2-6.9c0.8-2.1,1.9-3.9,3.4-5.4c1.5-1.5,3.1-2.7,5.1-3.5c1.9-0.8,4-1.3,6.2-1.3
				c1.7,0,3.1,0.2,4.3,0.6c1.2,0.4,2.2,0.8,3,1.3c0.9,0.5,1.7,1.2,2.3,1.9l1.5-3.3h4.8v33.3h-4.8l-1.5-3.3c-0.6,0.7-1.4,1.3-2.3,1.9
				c-0.8,0.5-1.8,0.9-3,1.3C553.1,124.5,551.6,124.7,550,124.7z M550.3,118.4c1.3,0,2.5-0.3,3.7-0.8c1.2-0.5,2.2-1.3,3.1-2.2
				c0.9-1,1.6-2.1,2.1-3.4c0.5-1.3,0.8-2.8,0.8-4.3c0-1.6-0.3-3-0.8-4.3c-0.5-1.3-1.2-2.4-2.1-3.4c-0.9-1-1.9-1.7-3.1-2.2
				c-1.2-0.5-2.4-0.8-3.7-0.8c-1.3,0-2.5,0.3-3.7,0.8c-1.2,0.5-2.2,1.3-3.1,2.2c-0.9,1-1.6,2.1-2.1,3.4c-0.5,1.3-0.8,2.8-0.8,4.3
				c0,1.6,0.3,3,0.8,4.3c0.5,1.3,1.2,2.4,2.1,3.4c0.9,1,1.9,1.7,3.1,2.2C547.8,118.1,549.1,118.4,550.3,118.4z"/>
			<path class="st3" d="M587.1,124.7c-2.2,0-4.3-0.4-6.2-1.3c-1.9-0.8-3.6-2-5.1-3.5c-1.5-1.5-2.6-3.3-3.4-5.4
				c-0.8-2.1-1.2-4.4-1.2-6.9c0-2.5,0.4-4.8,1.2-6.9c0.8-2.1,1.9-3.9,3.4-5.4c1.5-1.5,3.1-2.7,5.1-3.5c1.9-0.8,4-1.3,6.2-1.3
				c1.6,0,2.9,0.2,4.1,0.6c1.1,0.4,2.1,0.8,2.9,1.3c0.9,0.5,1.7,1.2,2.3,1.9V77.6h6.7v46.7h-4.8l-1.5-3.3c-0.6,0.7-1.4,1.3-2.3,1.9
				c-0.8,0.5-1.8,0.9-3,1.3C590.2,124.5,588.8,124.7,587.1,124.7z M587.4,118.4c1.3,0,2.5-0.3,3.7-0.8c1.2-0.5,2.2-1.3,3.1-2.2
				c0.9-1,1.6-2.1,2.1-3.4c0.5-1.3,0.8-2.8,0.8-4.3c0-1.6-0.3-3-0.8-4.3c-0.5-1.3-1.2-2.4-2.1-3.4c-0.9-1-1.9-1.7-3.1-2.2
				c-1.2-0.5-2.4-0.8-3.7-0.8c-1.3,0-2.5,0.3-3.7,0.8c-1.2,0.5-2.2,1.3-3.1,2.2c-0.9,1-1.6,2.1-2.1,3.4c-0.5,1.3-0.8,2.8-0.8,4.3
				c0,1.6,0.3,3,0.8,4.3c0.5,1.3,1.2,2.4,2.1,3.4c0.9,1,1.9,1.7,3.1,2.2C584.9,118.1,586.2,118.4,587.4,118.4z"/>
			<path class="st3" d="M624.6,124.7c-2.2,0-4.3-0.4-6.2-1.3c-1.9-0.8-3.6-2-5.1-3.5c-1.5-1.5-2.6-3.3-3.4-5.4
				c-0.8-2.1-1.2-4.4-1.2-6.9c0-2.5,0.4-4.8,1.2-6.9c0.8-2.1,1.9-3.9,3.3-5.4c1.4-1.5,3.1-2.7,5-3.5c1.9-0.8,3.9-1.3,6-1.3
				c2.1,0,4.1,0.4,6,1.3c1.9,0.8,3.6,2,5,3.5c1.4,1.5,2.5,3.3,3.3,5.4c0.8,2.1,1.2,4.4,1.2,6.9c0,0.4,0,0.8-0.1,1.1
				c-0.1,0.4-0.1,0.7-0.1,0.9c-0.1,0.3-0.1,0.6-0.1,0.9h-23.7c0.1,1,0.4,2,0.9,3c0.5,0.9,1.1,1.8,1.9,2.5c0.8,0.7,1.7,1.3,2.7,1.7
				c1.1,0.4,2.2,0.6,3.4,0.6c2,0,3.6-0.4,4.8-1.3c1.2-0.9,2-1.7,2.6-2.4h7c-0.5,1.4-1.2,2.7-2.1,3.9c-0.8,1.2-1.9,2.3-3,3.2
				c-1.2,0.9-2.6,1.6-4.1,2.2C628.2,124.4,626.5,124.7,624.6,124.7z M633.4,105c-0.4-2.4-1.4-4.4-3-5.9c-1.6-1.5-3.7-2.3-6.3-2.3
				c-2.2,0-4.1,0.8-5.6,2.3c-1.5,1.5-2.5,3.5-2.9,5.9H633.4z"/>
			<path class="st3" d="M641.3,136.5c-1,0-1.9-0.1-2.7-0.4c-0.4-0.1-0.7-0.2-1-0.4v-5.9c0.2,0.1,0.4,0.2,0.7,0.2
				c0.2,0,0.5,0.1,0.7,0.1c0.2,0,0.5,0,0.8,0c1.5,0,2.7-0.5,3.7-1.5c1-1,1.5-2.2,1.5-3.7V91h6.7V125c0,1.8-0.3,3.4-0.8,4.8
				c-0.5,1.4-1.2,2.6-2.2,3.6c-0.9,1-2,1.8-3.3,2.3C644.1,136.2,642.8,136.5,641.3,136.5z M648.3,85.8c-1.1,0-2.1-0.4-2.9-1.2
				c-0.8-0.8-1.2-1.8-1.2-2.9c0-1.1,0.4-2.1,1.2-2.9c0.8-0.8,1.8-1.2,2.9-1.2s2.1,0.4,2.9,1.2c0.8,0.8,1.2,1.8,1.2,2.9
				c0,1.1-0.4,2.1-1.2,2.9C650.4,85.4,649.5,85.8,648.3,85.8z"/>
			<path class="st3" d="M674.4,77.6h18.5c1.8,0,3.6,0.3,5.2,1c1.6,0.7,3,1.6,4.3,2.8c1.2,1.2,2.2,2.6,2.9,4.1c0.7,1.6,1,3.2,1,5
				c0,1.5-0.3,2.8-0.8,3.9c-0.5,1.1-1.1,2-1.7,2.8c-0.7,0.9-1.5,1.6-2.4,2.2c1.2,0.7,2.3,1.6,3.3,2.7c0.8,0.9,1.6,2.1,2.3,3.6
				c0.7,1.4,1,3.2,1,5.3c0,1.8-0.4,3.5-1.1,5.1c-0.7,1.6-1.8,3-3.1,4.2s-2.9,2.2-4.7,2.9c-1.8,0.7-3.8,1.1-5.9,1.1h-18.9V77.6z
				 M692.9,96.9c1.9,0,3.5-0.6,4.7-1.9c1.3-1.3,1.9-2.7,1.9-4.4c0-1.7-0.6-3.1-1.9-4.4s-2.9-1.9-4.7-1.9h-11.5v12.6H692.9z
				 M693.3,117.6c1.1,0,2.1-0.2,3.1-0.6c1-0.4,1.8-0.9,2.5-1.6c0.7-0.7,1.2-1.4,1.6-2.3c0.4-0.9,0.6-1.9,0.6-2.9s-0.2-2-0.6-2.9
				c-0.4-0.9-0.9-1.7-1.6-2.3c-0.7-0.7-1.5-1.2-2.5-1.6c-1-0.4-2-0.6-3.1-0.6h-11.9v14.8H693.3z"/>
			<path class="st3" d="M727.4,124.7c-2.2,0-4.3-0.4-6.2-1.3c-1.9-0.8-3.6-2-5.1-3.5c-1.5-1.5-2.6-3.3-3.4-5.4
				c-0.8-2.1-1.2-4.4-1.2-6.9c0-2.5,0.4-4.8,1.2-6.9c0.8-2.1,1.9-3.9,3.4-5.4c1.5-1.5,3.1-2.7,5.1-3.5c1.9-0.8,4-1.3,6.2-1.3
				c1.7,0,3.1,0.2,4.3,0.6c1.2,0.4,2.2,0.8,3,1.3c0.9,0.5,1.7,1.2,2.3,1.9l1.5-3.3h4.8v33.3h-4.8l-1.5-3.3c-0.6,0.7-1.4,1.3-2.3,1.9
				c-0.8,0.5-1.8,0.9-3,1.3C730.6,124.5,729.1,124.7,727.4,124.7z M727.8,118.4c1.3,0,2.5-0.3,3.7-0.8c1.2-0.5,2.2-1.3,3.1-2.2
				c0.9-1,1.6-2.1,2.1-3.4c0.5-1.3,0.8-2.8,0.8-4.3c0-1.6-0.3-3-0.8-4.3c-0.5-1.3-1.2-2.4-2.1-3.4c-0.9-1-1.9-1.7-3.1-2.2
				c-1.2-0.5-2.4-0.8-3.7-0.8c-1.3,0-2.5,0.3-3.7,0.8c-1.2,0.5-2.2,1.3-3.1,2.2c-0.9,1-1.6,2.1-2.1,3.4c-0.5,1.3-0.8,2.8-0.8,4.3
				c0,1.6,0.3,3,0.8,4.3c0.5,1.3,1.2,2.4,2.1,3.4c0.9,1,1.9,1.7,3.1,2.2C725.3,118.1,726.5,118.4,727.8,118.4z"/>
			<path class="st3" d="M746.8,136.5c-1,0-1.9-0.1-2.7-0.4c-0.4-0.1-0.7-0.2-1-0.4v-5.9c0.2,0.1,0.4,0.2,0.7,0.2
				c0.2,0,0.5,0.1,0.7,0.1c0.2,0,0.5,0,0.8,0c1.5,0,2.7-0.5,3.7-1.5c1-1,1.5-2.2,1.5-3.7V91h6.7V125c0,1.8-0.3,3.4-0.8,4.8
				c-0.5,1.4-1.2,2.6-2.2,3.6c-0.9,1-2,1.8-3.3,2.3C749.6,136.2,748.3,136.5,746.8,136.5z M753.8,85.8c-1.1,0-2.1-0.4-2.9-1.2
				c-0.8-0.8-1.2-1.8-1.2-2.9c0-1.1,0.4-2.1,1.2-2.9c0.8-0.8,1.8-1.2,2.9-1.2s2.1,0.4,2.9,1.2c0.8,0.8,1.2,1.8,1.2,2.9
				c0,1.1-0.4,2.1-1.2,2.9C755.9,85.4,754.9,85.8,753.8,85.8z"/>
			<path class="st3" d="M778.3,124.7c-2.2,0-4.3-0.4-6.2-1.3c-1.9-0.8-3.6-2-5.1-3.5c-1.5-1.5-2.6-3.3-3.4-5.4
				c-0.8-2.1-1.2-4.4-1.2-6.9c0-2.5,0.4-4.8,1.2-6.9c0.8-2.1,1.9-3.9,3.4-5.4c1.5-1.5,3.1-2.7,5.1-3.5c1.9-0.8,4-1.3,6.2-1.3
				c1.6,0,2.9,0.2,4.1,0.6c1.1,0.4,2.1,0.8,2.9,1.3c0.9,0.5,1.7,1.2,2.3,1.9V77.6h6.7v46.7h-4.8L788,121c-0.6,0.7-1.4,1.3-2.3,1.9
				c-0.8,0.5-1.8,0.9-3,1.3C781.5,124.5,780,124.7,778.3,124.7z M778.7,118.4c1.3,0,2.5-0.3,3.7-0.8c1.2-0.5,2.2-1.3,3.1-2.2
				c0.9-1,1.6-2.1,2.1-3.4c0.5-1.3,0.8-2.8,0.8-4.3c0-1.6-0.3-3-0.8-4.3c-0.5-1.3-1.2-2.4-2.1-3.4c-0.9-1-1.9-1.7-3.1-2.2
				c-1.2-0.5-2.4-0.8-3.7-0.8c-1.3,0-2.5,0.3-3.7,0.8c-1.2,0.5-2.2,1.3-3.1,2.2c-0.9,1-1.6,2.1-2.1,3.4c-0.5,1.3-0.8,2.8-0.8,4.3
				c0,1.6,0.3,3,0.8,4.3c0.5,1.3,1.2,2.4,2.1,3.4c0.9,1,1.9,1.7,3.1,2.2C776.2,118.1,777.4,118.4,778.7,118.4z"/>
			<path class="st3" d="M815.8,124.7c-2.2,0-4.3-0.4-6.2-1.3c-1.9-0.8-3.6-2-5.1-3.5c-1.5-1.5-2.6-3.3-3.4-5.4
				c-0.8-2.1-1.2-4.4-1.2-6.9c0-2.5,0.4-4.8,1.2-6.9c0.8-2.1,1.9-3.9,3.4-5.4c1.5-1.5,3.1-2.7,5.1-3.5c1.9-0.8,4-1.3,6.2-1.3
				c1.7,0,3.1,0.2,4.3,0.6c1.2,0.4,2.2,0.8,3,1.3c0.9,0.5,1.7,1.2,2.3,1.9l1.5-3.3h4.8v33.3h-4.8l-1.5-3.3c-0.6,0.7-1.4,1.3-2.3,1.9
				c-0.8,0.5-1.8,0.9-3,1.3C818.9,124.5,817.5,124.7,815.8,124.7z M816.2,118.4c1.3,0,2.5-0.3,3.7-0.8c1.2-0.5,2.2-1.3,3.1-2.2
				c0.9-1,1.6-2.1,2.1-3.4c0.5-1.3,0.8-2.8,0.8-4.3c0-1.6-0.3-3-0.8-4.3c-0.5-1.3-1.2-2.4-2.1-3.4c-0.9-1-1.9-1.7-3.1-2.2
				c-1.2-0.5-2.4-0.8-3.7-0.8c-1.3,0-2.5,0.3-3.7,0.8c-1.2,0.5-2.2,1.3-3.1,2.2c-0.9,1-1.6,2.1-2.1,3.4c-0.5,1.3-0.8,2.8-0.8,4.3
				c0,1.6,0.3,3,0.8,4.3c0.5,1.3,1.2,2.4,2.1,3.4c0.9,1,1.9,1.7,3.1,2.2C813.7,118.1,814.9,118.4,816.2,118.4z"/>
			<path class="st3" d="M864.1,124.7c-4.1,0-7.2-1-9.2-2.9c-2-1.9-3.2-4.7-3.4-8.2h6.7c0.2,1.5,0.8,2.7,1.7,3.5
				c0.9,0.9,2.3,1.3,4.2,1.3c2.1,0,3.6-0.4,4.5-1.2c0.9-0.8,1.4-1.8,1.4-2.9c0-1-0.4-1.7-1.3-2.3c-0.9-0.5-2-1-3.3-1.3
				c-1.3-0.3-2.7-0.7-4.3-1.1c-1.5-0.4-3-0.9-4.3-1.6c-1.3-0.7-2.4-1.6-3.3-2.8c-0.9-1.2-1.3-2.7-1.3-4.7c0-1.4,0.3-2.7,0.8-3.9
				c0.5-1.2,1.3-2.3,2.3-3.2c1-0.9,2.2-1.6,3.6-2.1c1.4-0.5,3-0.8,4.8-0.8c3.9,0,6.9,0.9,8.9,2.8c2,1.9,3.1,4.4,3.3,7.6h-6.7
				c-0.2-1.1-0.8-2.1-1.7-2.9c-0.9-0.8-2.2-1.2-3.9-1.2c-1.7,0-3,0.4-3.9,1.1c-0.9,0.8-1.3,1.6-1.3,2.6c0,1,0.4,1.7,1.3,2.3
				c0.9,0.5,2,1,3.3,1.3c1.3,0.3,2.7,0.7,4.3,1.1c1.5,0.4,3,0.9,4.3,1.6c1.3,0.7,2.4,1.6,3.3,2.8c0.9,1.2,1.3,2.7,1.3,4.7
				c0,3-1.1,5.4-3.2,7.4C871,123.7,868,124.7,864.1,124.7z"/>
			<path class="st3" d="M883.4,124.2c-1.1,0-2.1-0.4-2.9-1.2c-0.8-0.8-1.2-1.8-1.2-2.9c0-1.1,0.4-2.1,1.2-2.9
				c0.8-0.8,1.8-1.2,2.9-1.2c1.1,0,2.1,0.4,2.9,1.2c0.8,0.8,1.2,1.8,1.2,2.9c0,1.1-0.4,2.1-1.2,2.9
				C885.5,123.8,884.6,124.2,883.4,124.2z"/>
			<path class="st3" d="M892.4,91h4.8l1.5,3.3c0.6-0.7,1.4-1.3,2.3-1.9c0.8-0.4,1.8-0.9,3-1.3c1.2-0.4,2.7-0.6,4.3-0.6
				c2.2,0,4.3,0.4,6.2,1.3c1.9,0.8,3.6,2,5.1,3.5c1.5,1.5,2.6,3.3,3.4,5.4c0.8,2.1,1.2,4.4,1.2,6.9c0,2.5-0.4,4.8-1.2,6.9
				c-0.8,2.1-1.9,3.9-3.4,5.4c-1.5,1.5-3.1,2.7-5.1,3.5c-1.9,0.8-4,1.3-6.2,1.3c-1.6,0-2.9-0.2-4.1-0.6c-1.1-0.4-2.1-0.8-2.9-1.3
				c-0.9-0.5-1.7-1.2-2.3-1.9v15.2h-6.7V91z M908,118.4c1.3,0,2.5-0.3,3.7-0.8c1.2-0.5,2.2-1.3,3.1-2.2c0.9-1,1.6-2.1,2.1-3.4
				c0.5-1.3,0.8-2.8,0.8-4.3c0-1.6-0.3-3-0.8-4.3c-0.5-1.3-1.2-2.4-2.1-3.4c-0.9-1-1.9-1.7-3.1-2.2c-1.2-0.5-2.4-0.8-3.7-0.8
				c-1.3,0-2.5,0.3-3.7,0.8c-1.2,0.5-2.2,1.3-3.1,2.2c-0.9,1-1.6,2.1-2.1,3.4c-0.5,1.3-0.8,2.8-0.8,4.3c0,1.6,0.3,3,0.8,4.3
				c0.5,1.3,1.2,2.4,2.1,3.4c0.9,1,1.9,1.7,3.1,2.2C905.5,118.1,906.7,118.4,908,118.4z"/>
			<path class="st3" d="M931.4,124.2c-1.1,0-2.1-0.4-2.9-1.2c-0.8-0.8-1.2-1.8-1.2-2.9c0-1.1,0.4-2.1,1.2-2.9
				c0.8-0.8,1.8-1.2,2.9-1.2s2.1,0.4,2.9,1.2c0.8,0.8,1.2,1.8,1.2,2.9c0,1.1-0.4,2.1-1.2,2.9C933.5,123.8,932.5,124.2,931.4,124.2z"
				/>
		</g>
	</g>
</g>
</svg>
